Fraunces9ptSoft-Bold.ufo
<glyph name="exclam" format="2">
  <advance width="667.4"/>
  <unicode hex="0021"/>
  <outline>
    <contour>
      <point x="334.40000000000003" y="1496.6000000000001" type="curve" smooth="yes"/>
      <point x="186.9" y="1496.6000000000001"/>
      <point x="119.60000000000001" y="1423.7999999999997"/>
      <point x="119.60000000000001" y="1308.6000000000001" type="curve" smooth="yes"/>
      <point x="119.60000000000001" y="1275.8000000000002"/>
      <point x="125.60000000000002" y="1231.6"/>
      <point x="135.8" y="1187.5" type="curve" smooth="yes"/>
      <point x="247.60000000000002" y="580.5" type="line" smooth="yes"/>
      <point x="262.2" y="516.6999999999999"/>
      <point x="287.4" y="489.5"/>
      <point x="334.40000000000003" y="489.5" type="curve" smooth="yes"/>
      <point x="381.5" y="489.5"/>
      <point x="406.5" y="516.8"/>
      <point x="421.1" y="580.7" type="curve" smooth="yes"/>
      <point x="532.9999999999999" y="1187.5" type="line" smooth="yes"/>
      <point x="543.1999999999999" y="1231.6"/>
      <point x="549.1999999999999" y="1275.8"/>
      <point x="549.1999999999999" y="1308.6" type="curve" smooth="yes"/>
      <point x="549.1999999999999" y="1423.8"/>
      <point x="482.00000000000006" y="1496.6000000000001"/>
    </contour>
    <component base="period" xOffset="30.8"/>
  </outline>
</glyph>
<glyph name="numbersign" format="2">
  <advance width="1364.4"/>
  <unicode hex="0023"/>
  <outline>
    <contour>
      <point x="537.8000000000001" y="685.4999999999999" type="curve" smooth="yes"/>
      <point x="579.8000000000001" y="845.8"/>
      <point x="680.0000000000001" y="1162.3"/>
      <point x="719.2" y="1306.7999999999997" type="curve" smooth="yes"/>
      <point x="733.3000000000001" y="1357.6"/>
      <point x="717.6999999999999" y="1392.8"/>
      <point x="669.5" y="1405.0" type="curve" smooth="yes"/>
      <point x="622.5" y="1416.8999999999999"/>
      <point x="590.8000000000001" y="1394.6000000000001"/>
      <point x="576.4" y="1345.0" type="curve" smooth="yes"/>
      <point x="538.9999999999999" y="1201.3000000000002"/>
      <point x="475.20000000000005" y="875.8"/>
      <point x="431.7" y="714.1999999999999" type="curve" smooth="yes"/>
      <point x="388.29999999999995" y="549.2"/>
      <point x="272.2" y="233.50000000000003"/>
      <point x="233.10000000000002" y="89.3" type="curve" smooth="yes"/>
      <point x="220.1" y="39.5"/>
      <point x="235.8" y="5.2"/>
      <point x="283.7" y="-8.0" type="curve" smooth="yes"/>
      <point x="330.90000000000003" y="-19.200000000000003"/>
      <point x="362.0" y="2.6999999999999997"/>
      <point x="376.6" y="52.4" type="curve" smooth="yes"/>
      <point x="416.1" y="200.8"/>
      <point x="495.4" y="524.4"/>
    </contour>
    <contour>
      <point x="725.6000000000001" y="992.0" type="curve" smooth="yes"/>
      <point x="581.1" y="990.2"/>
      <point x="306.70000000000005" y="1020.7"/>
      <point x="180.0" y="1019.8" type="curve" smooth="yes"/>
      <point x="127.9" y="1019.0"/>
      <point x="96.7" y="995.8"/>
      <point x="96.7" y="947.3" type="curve" smooth="yes"/>
      <point x="97.60000000000001" y="900.7"/>
      <point x="127.5" y="875.3"/>
      <point x="180.5" y="876.1999999999999" type="curve" smooth="yes"/>
      <point x="306.7" y="875.3"/>
      <point x="583.4" y="884.5"/>
      <point x="724.7" y="886.3000000000001" type="curve" smooth="yes"/>
      <point x="863.9000000000001" y="886.3000000000001"/>
      <point x="1130.8999999999999" y="870.9999999999999"/>
      <point x="1253.7" y="869.5999999999999" type="curve" smooth="yes"/>
      <point x="1306.8" y="870.9"/>
      <point x="1337.6000000000001" y="895.7999999999998"/>
      <point x="1339.2" y="943.6999999999999" type="curve" smooth="yes"/>
      <point x="1337.6000000000001" y="990.1"/>
      <point x="1305.9999999999998" y="1013.9999999999999"/>
      <point x="1254.6000000000001" y="1013.9999999999999" type="curve" smooth="yes"/>
      <point x="1131.8" y="1011.8"/>
      <point x="865.4" y="992.0"/>
    </contour>
    <contour>
      <point x="653.2" y="438.49999999999994" type="curve" smooth="yes"/>
      <point x="792.0" y="438.49999999999994"/>
      <point x="1059.0" y="423.6"/>
      <point x="1182.2" y="421.8" type="curve" smooth="yes"/>
      <point x="1235.3000000000002" y="423.50000000000006"/>
      <point x="1266.1" y="448.0"/>
      <point x="1267.8" y="495.9" type="curve" smooth="yes"/>
      <point x="1266.1" y="542.3"/>
      <point x="1234.5" y="566.2"/>
      <point x="1183.1000000000001" y="566.2" type="curve" smooth="yes"/>
      <point x="1060.3000000000002" y="564.0000000000001"/>
      <point x="793.9" y="544.2"/>
      <point x="654.1" y="544.2" type="curve" smooth="yes"/>
      <point x="509.7" y="542.8"/>
      <point x="234.8" y="572.9"/>
      <point x="108.60000000000001" y="571.9999999999999" type="curve" smooth="yes"/>
      <point x="56.400000000000006" y="571.5999999999999"/>
      <point x="25.200000000000003" y="548.4"/>
      <point x="25.200000000000003" y="499.9" type="curve" smooth="yes"/>
      <point x="26.1" y="453.3"/>
      <point x="56.00000000000001" y="427.9"/>
      <point x="109.0" y="428.4" type="curve" smooth="yes"/>
      <point x="235.2" y="427.9"/>
      <point x="511.9" y="437.1"/>
    </contour>
    <contour>
      <point x="769.6999999999999" y="52.4" type="curve" smooth="yes"/>
      <point x="809.0000000000001" y="200.9"/>
      <point x="888.4000000000001" y="524.4"/>
      <point x="930.8" y="685.4999999999999" type="curve" smooth="yes"/>
      <point x="972.9" y="845.4"/>
      <point x="1073.0999999999997" y="1162.3"/>
      <point x="1111.9" y="1306.3999999999999" type="curve" smooth="yes"/>
      <point x="1126.3" y="1357.1999999999998"/>
      <point x="1110.8" y="1392.8"/>
      <point x="1062.6000000000001" y="1405.0" type="curve" smooth="yes"/>
      <point x="1015.5000000000001" y="1416.8999999999999"/>
      <point x="984.3" y="1394.6"/>
      <point x="970.3000000000001" y="1344.6" type="curve" smooth="yes"/>
      <point x="932.3000000000001" y="1201.3"/>
      <point x="869.1000000000001" y="876.2"/>
      <point x="825.6" y="714.1999999999999" type="curve" smooth="yes"/>
      <point x="781.6" y="549.2"/>
      <point x="665.1999999999999" y="233.50000000000003"/>
      <point x="626.1" y="89.3" type="curve" smooth="yes"/>
      <point x="613.2" y="39.49999999999999"/>
      <point x="628.9" y="5.2"/>
      <point x="676.8" y="-8.0" type="curve" smooth="yes"/>
      <point x="724.0" y="-19.200000000000003"/>
      <point x="755.0999999999999" y="2.7"/>
    </contour>
  </outline>
</glyph>
<glyph name="dollar" format="2">
  <advance width="1249.2"/>
  <unicode hex="0024"/>
  <outline>
    <contour>
      <point x="655.4999999999999" y="1393.2" type="curve" smooth="yes"/>
      <point x="315.4471633986928" y="1393.2"/>
      <point x="102.10000000000001" y="1211.0"/>
      <point x="102.10000000000001" y="979.4" type="curve" smooth="yes"/>
      <point x="102.10000000000001" y="785.6142105263158"/>
      <point x="215.98708867214106" y="654.5038690511093"/>
      <point x="526.9" y="549.3" type="curve" smooth="yes"/>
      <point x="775.8873658256924" y="466.7036560431147"/>
      <point x="854.0000000000001" y="383.70000000000005"/>
      <point x="854.0000000000001" y="266.79999999999995" type="curve" smooth="yes"/>
      <point x="854.0000000000001" y="153.89999999999998"/>
      <point x="758.4559633027523" y="84.8"/>
      <point x="617.3000000000001" y="84.8" type="curve" smooth="yes"/>
      <point x="483.0375" y="84.8"/>
      <point x="397.59999999999997" y="155.20000000000002"/>
      <point x="397.59999999999997" y="252.29999999999998" type="curve" smooth="yes"/>
      <point x="397.59999999999997" y="323.3" type="line" smooth="yes"/>
      <point x="397.59999999999997" y="420.1"/>
      <point x="328.6" y="482.8"/>
      <point x="243.4" y="482.8" type="curve" smooth="yes"/>
      <point x="147.88492462311555" y="482.8"/>
      <point x="88.8" y="416.1"/>
      <point x="88.8" y="322.2" type="curve" smooth="yes"/>
      <point x="88.8" y="148.20000000000002"/>
      <point x="278.13094806428137" y="4.6000000000000005"/>
      <point x="613.7000000000002" y="4.6000000000000005" type="curve" smooth="yes"/>
      <point x="966.7787362442315" y="4.6000000000000005"/>
      <point x="1173.2" y="163.3"/>
      <point x="1173.2" y="413.6" type="curve" smooth="yes"/>
      <point x="1173.2" y="577.5"/>
      <point x="1074.6" y="715.1999999999999"/>
      <point x="733.4" y="829.6999999999999" type="curve" smooth="yes"/>
      <point x="497.9" y="907.6999999999999"/>
      <point x="420.4" y="991.4"/>
      <point x="420.4" y="1109.4" type="curve" smooth="yes"/>
      <point x="420.4" y="1238.5"/>
      <point x="512.6202279202279" y="1318.4"/>
      <point x="640.0" y="1318.4" type="curve" smooth="yes"/>
      <point x="764.7243055555556" y="1318.4"/>
      <point x="839.0000000000001" y="1244.1451327433629"/>
      <point x="839.0000000000001" y="1142.6" type="curve" smooth="yes"/>
      <point x="839.0000000000001" y="1056.3" type="line" smooth="yes"/>
      <point x="839.0000000000001" y="967.0999999999999"/>
      <point x="913.9" y="906.1999999999999"/>
      <point x="1009.7" y="906.1999999999999" type="curve" smooth="yes"/>
      <point x="1088.7888888888888" y="906.1999999999999"/>
      <point x="1149.6" y="978.3"/>
      <point x="1149.6" y="1071.2" type="curve" smooth="yes"/>
      <point x="1149.6" y="1260.1373665480426"/>
      <point x="972.716201068607" y="1393.2"/>
    </contour>
    <contour>
      <point x="681.8000000000001" y="761.5999999999999" type="line"/>
      <point x="681.6" y="1222.0"/>
      <point x="727.2" y="1371.5999999999997"/>
      <point x="727.2" y="1497.5" type="curve" smooth="yes"/>
      <point x="727.2" y="1562.5"/>
      <point x="690.5999999999999" y="1594.3999999999999"/>
      <point x="645.2" y="1594.3999999999999" type="curve" smooth="yes"/>
      <point x="596.0999999999999" y="1594.3999999999999"/>
      <point x="562.8000000000001" y="1560.8999999999999"/>
      <point x="562.8000000000001" y="1500.0" type="curve" smooth="yes"/>
      <point x="562.8000000000001" y="1366.6"/>
      <point x="608.1999999999998" y="1220.0"/>
      <point x="606.6" y="761.5999999999999" type="curve"/>
    </contour>
    <contour>
      <point x="583.8000000000001" y="660.1" type="line"/>
      <point x="583.5000000000001" y="207.89999999999998"/>
      <point x="539.1" y="62.099999999999994"/>
      <point x="539.1" y="-69.0" type="curve" smooth="yes"/>
      <point x="539.1" y="-135.0"/>
      <point x="575.0" y="-167.2"/>
      <point x="621.2" y="-167.2" type="curve" smooth="yes"/>
      <point x="670.7" y="-167.2"/>
      <point x="703.5000000000001" y="-133.5"/>
      <point x="703.5000000000001" y="-71.6" type="curve" smooth="yes"/>
      <point x="703.5000000000001" y="56.5"/>
      <point x="657.3000000000001" y="207.1"/>
      <point x="658.5999999999999" y="660.1" type="curve"/>
    </contour>
  </outline>
</glyph>
<glyph name="ampersand" format="2">
  <advance width="1564.0"/>
  <unicode hex="0026"/>
  <outline>
    <contour>
      <point x="723.9000000000001" y="1308.8999999999999" type="curve" smooth="yes"/>
      <point x="637.2041825095056" y="1308.8999999999999"/>
      <point x="587.9" y="1223.4"/>
      <point x="587.9" y="1108.0000000000002" type="curve" smooth="yes"/>
      <point x="587.9" y="972.4000000000001"/>
      <point x="641.0188132070529" y="862.7653286992795"/>
      <point x="748.0999999999999" y="823.3000000000001" type="curve" smooth="yes"/>
      <point x="864.2152980690076" y="779.1643914988781"/>
      <point x="930.2447258733579" y="733.5016176517347"/>
      <point x="1023.7" y="618.7" type="curve" smooth="yes"/>
      <point x="1362.0000000000002" y="202.2" type="line" smooth="yes"/>
      <point x="1391.9" y="165.3"/>
      <point x="1422.4999999999998" y="151.39999999999998"/>
      <point x="1459.1000000000001" y="146.70000000000002" type="curve" smooth="yes"/>
      <point x="1503.5" y="141.0"/>
      <point x="1530.4" y="122.19999999999999"/>
      <point x="1530.4" y="76.6" type="curve" smooth="yes"/>
      <point x="1530.4" y="26.900000000000006"/>
      <point x="1499.6" y="2.4"/>
      <point x="1444.7" y="2.4" type="curve" smooth="yes"/>
      <point x="1153.0000000000002" y="2.4" type="line" smooth="yes"/>
      <point x="1088.3" y="2.4"/>
      <point x="1043.2999999999997" y="20.799999999999997"/>
      <point x="1002.9" y="70.10000000000001" type="curve" smooth="yes"/>
      <point x="641.4" y="509.1000000000001" type="line" smooth="yes"/>
      <point x="558.9000000000001" y="608.5999999999999"/>
      <point x="514.4" y="657.1"/>
      <point x="447.09999999999997" y="681.5" type="curve" smooth="yes"/>
      <point x="304.4" y="735.4"/>
      <point x="223.4" y="855.2947040498442"/>
      <point x="223.4" y="1008.9" type="curve" smooth="yes"/>
      <point x="223.4" y="1241.1000000000001"/>
      <point x="411.1" y="1425.7"/>
      <point x="764.5" y="1425.7" type="curve" smooth="yes"/>
      <point x="1032.0674999999999" y="1425.7"/>
      <point x="1215.0" y="1287.7211538461538"/>
      <point x="1215.0" y="1090.6" type="curve" smooth="yes"/>
      <point x="1215.0" y="907.8220779220779"/>
      <point x="1077.8171506122198" y="783.7453232919095"/>
      <point x="721.6999999999999" y="752.9999999999999" type="curve"/>
      <point x="714.6" y="805.4999999999999" type="line"/>
      <point x="814.8074165547206" y="831.1467178231152"/>
      <point x="856.6" y="941.4250755287009"/>
      <point x="856.6" y="1089.6999999999998" type="curve" smooth="yes"/>
      <point x="856.6" y="1226.1812080536913"/>
      <point x="799.5588932806324" y="1308.8999999999999"/>
    </contour>
    <contour>
      <point x="571.2" y="645.1" type="line"/>
      <point x="490.90487388554396" y="637.2006769285479"/>
      <point x="433.0" y="513.9701619941094"/>
      <point x="433.0" y="407.9" type="curve" smooth="yes"/>
      <point x="433.0" y="253.8"/>
      <point x="514.0999999999999" y="153.6"/>
      <point x="643.8" y="153.6" type="curve" smooth="yes"/>
      <point x="742.5" y="153.6"/>
      <point x="823.3000000000001" y="192.8"/>
      <point x="882.1" y="284.9" type="curve"/>
      <point x="978.5" y="215.50000000000003" type="line"/>
      <point x="864.4389758491012" y="56.1187297332047"/>
      <point x="726.4997903563941" y="-28.2"/>
      <point x="517.8" y="-28.2" type="curve" smooth="yes"/>
      <point x="225.39999999999998" y="-28.2"/>
      <point x="65.2" y="131.82727272727277"/>
      <point x="65.2" y="321.2" type="curve" smooth="yes"/>
      <point x="65.2" y="524.0994266994267"/>
      <point x="244.99299861103336" y="697.4993682957324"/>
      <point x="566.4000000000001" y="709.9" type="curve"/>
    </contour>
    <contour>
      <point x="1125.0" y="395.7" type="line"/>
      <point x="1182.3000000000002" y="489.9" type="line" smooth="yes"/>
      <point x="1234.1" y="559.7000000000002"/>
      <point x="1229.6" y="609.5"/>
      <point x="1184.0" y="632.4" type="curve" smooth="yes"/>
      <point x="1152.1999999999998" y="643.7" type="line" smooth="yes"/>
      <point x="1124.0" y="659.1"/>
      <point x="1110.4" y="685.8"/>
      <point x="1110.4" y="709.0" type="curve" smooth="yes"/>
      <point x="1110.4" y="749.1"/>
      <point x="1146.2" y="783.0"/>
      <point x="1191.0" y="783.0" type="curve" smooth="yes"/>
      <point x="1443.3999999999999" y="783.0" type="line" smooth="yes"/>
      <point x="1498.6" y="783.0"/>
      <point x="1526.5" y="761.5999999999999"/>
      <point x="1526.5" y="714.6999999999999" type="curve" smooth="yes"/>
      <point x="1526.5" y="679.9000000000001"/>
      <point x="1514.1999999999998" y="650.2"/>
      <point x="1470.5" y="627.0999999999999" type="curve" smooth="yes"/>
      <point x="1421.8" y="604.7"/>
      <point x="1387.5" y="572.5000000000001"/>
      <point x="1328.2" y="496.09999999999997" type="curve" smooth="yes"/>
      <point x="1198.0" y="314.40000000000003" type="line"/>
    </contour>
  </outline>
</glyph>
<glyph name="quotesingle" format="2">
  <advance width="398.59999999999997"/>
  <unicode hex="0027"/>
  <outline>
    <contour>
      <point x="191.0" y="824.0" type="curve" smooth="yes"/>
      <point x="237.78321995464856" y="824.0"/>
      <point x="269.2592849645088" y="849.0147452250721"/>
      <point x="280.6" y="907.4" type="curve" smooth="yes"/>
      <point x="351.40000000000003" y="1314.4" type="line" smooth="yes"/>
      <point x="381.98629887274325" y="1471.6446141498584"/>
      <point x="333.1332836562345" y="1566.0"/>
      <point x="201.6" y="1566.0" type="curve" smooth="yes"/>
      <point x="70.78636363636363" y="1566.0"/>
      <point x="17.680755432270217" y="1476.387007673611"/>
      <point x="46.2" y="1313.6" type="curve" smooth="yes"/>
      <point x="108.89999999999999" y="908.9999999999999" type="line" smooth="yes"/>
      <point x="118.33382021060466" y="854.2613086376073"/>
      <point x="151.5878787878788" y="824.0"/>
    </contour>
  </outline>
</glyph>
<glyph name="parenleft" format="2">
  <advance width="766.4000000000001"/>
  <unicode hex="0028"/>
  <outline>
    <contour>
      <point x="150.0" y="609.6999999999999" type="curve" smooth="yes"/>
      <point x="150.0" y="183.40000000000003"/>
      <point x="371.79999999999995" y="-147.5"/>
      <point x="632.4000000000001" y="-247.9" type="curve" smooth="yes"/>
      <point x="694.5" y="-270.1"/>
      <point x="732.3000000000001" y="-265.70000000000005"/>
      <point x="747.1000000000001" y="-235.39999999999998" type="curve" smooth="yes"/>
      <point x="759.5000000000001" y="-212.0"/>
      <point x="746.3000000000001" y="-185.80000000000004"/>
      <point x="709.9" y="-144.39999999999998" type="curve" smooth="yes"/>
      <point x="554.2" y="22.1"/>
      <point x="444.0" y="300.59999999999997"/>
      <point x="444.0" y="609.6999999999999" type="curve" smooth="yes"/>
      <point x="444.0" y="918.8"/>
      <point x="554.1999999999999" y="1197.3000000000002"/>
      <point x="709.9" y="1363.8" type="curve" smooth="yes"/>
      <point x="746.3000000000001" y="1405.2"/>
      <point x="759.5000000000001" y="1431.3"/>
      <point x="747.1000000000001" y="1454.8" type="curve" smooth="yes"/>
      <point x="732.3000000000001" y="1485.1"/>
      <point x="694.5" y="1489.4999999999998"/>
      <point x="632.4000000000001" y="1467.3" type="curve" smooth="yes"/>
      <point x="371.8" y="1366.8999999999999"/>
      <point x="150.0" y="1036.0"/>
    </contour>
  </outline>
</glyph>
<glyph name="asterisk" format="2">
  <advance width="1250.0"/>
  <unicode hex="002A"/>
  <outline>
    <contour>
      <point x="651.7" y="974.5999999999999" type="line"/>
      <point x="651.7" y="1167.0"/>
      <point x="798.8000000000001" y="1284.2999999999997"/>
      <point x="798.8000000000001" y="1415.1" type="curve" smooth="yes"/>
      <point x="798.8000000000001" y="1499.2"/>
      <point x="734.8999999999999" y="1544.6"/>
      <point x="629.1" y="1544.6" type="curve" smooth="yes"/>
      <point x="516.5999999999999" y="1544.6"/>
      <point x="459.6" y="1499.2"/>
      <point x="459.6" y="1415.1" type="curve" smooth="yes"/>
      <point x="459.6" y="1284.6999999999998"/>
      <point x="607.0999999999999" y="1167.0"/>
      <point x="607.0999999999999" y="974.5999999999999" type="curve"/>
    </contour>
    <contour>
      <point x="636.4489356881874" y="995.4972186842199" type="line"/>
      <point x="452.645269723176" y="1054.8191993582186"/>
      <point x="384.56146564070025" y="1229.692083629032"/>
      <point x="260.12364742011613" y="1270.2788093874065" type="curve" smooth="yes"/>
      <point x="179.78794223212233" y="1296.2475011570314"/>
      <point x="117.19476074768798" y="1250.665050964142"/>
      <point x="84.40590636568814" y="1150.7216701119971" type="curve" smooth="yes"/>
      <point x="49.6170519836883" y="1044.9782892598528"/>
      <point x="74.95957568724782" y="976.8271472973387"/>
      <point x="154.89528087524167" y="950.458455527714" type="curve" smooth="yes"/>
      <point x="280.0330990958258" y="910.6717297693393"/>
      <point x="439.1092017456761" y="1013.9149732930381"/>
      <point x="622.1128677106876" y="953.6929926190393" type="curve"/>
    </contour>
    <contour>
      <point x="611.2010643118126" y="987.3343490298142" type="line"/>
      <point x="497.13467466046126" y="831.6123683558154"/>
      <point x="308.7518832207215" y="822.2982410370474"/>
      <point x="230.60227235375717" y="716.4115152786729" type="curve" smooth="yes"/>
      <point x="182.02823199137782" y="648.2428235090482"/>
      <point x="206.51654070062554" y="575.0592426953385"/>
      <point x="292.3053950826254" y="512.9783298880027" type="curve" smooth="yes"/>
      <point x="383.5942494646252" y="447.59741708066673"/>
      <point x="456.7565985362523" y="450.78252803658194"/>
      <point x="505.73063889863164" y="518.8512198062067" type="curve" smooth="yes"/>
      <point x="582.9802497655959" y="624.7379455645812"/>
      <point x="534.070742637961" y="805.4612273466455"/>
      <point x="646.8371322893123" y="961.2832080206443" type="curve"/>
    </contour>
    <contour>
      <point x="611.2010643118126" y="961.0656509701857" type="line"/>
      <point x="724.4674539631641" y="805.2436702961869"/>
      <point x="675.419750234404" y="625.1379455645812"/>
      <point x="752.6693611013683" y="518.8512198062067" type="curve" smooth="yes"/>
      <point x="801.6434014637476" y="450.78252803658194"/>
      <point x="880.5057505353748" y="450.8974170806668"/>
      <point x="965.8946049173746" y="512.8783298880027" type="curve" smooth="yes"/>
      <point x="1057.1834592993744" y="578.7592426953386"/>
      <point x="1076.771768008622" y="648.2428235090481"/>
      <point x="1027.7977276462427" y="716.4115152786729" type="curve" smooth="yes"/>
      <point x="950.0481167792786" y="822.2982410370474"/>
      <point x="760.9035219406638" y="831.3948113053568"/>
      <point x="646.8371322893124" y="987.1167919793558" type="curve"/>
    </contour>
    <contour>
      <point x="622.1" y="995.0999999999999" type="curve"/>
      <point x="636.4" y="953.3" type="line"/>
      <point x="819.5" y="1013.4999999999999"/>
      <point x="978.4" y="910.6999999999999"/>
      <point x="1103.5000000000002" y="950.5" type="curve" smooth="yes"/>
      <point x="1183.4" y="976.8"/>
      <point x="1206.4" y="1050.6999999999998"/>
      <point x="1173.9999999999998" y="1150.1000000000001" type="curve" smooth="yes"/>
      <point x="1139.2" y="1256.4"/>
      <point x="1078.6" y="1296.2000000000003"/>
      <point x="998.3000000000001" y="1270.3" type="curve" smooth="yes"/>
      <point x="873.8" y="1229.7"/>
      <point x="805.9" y="1054.3999999999999"/>
    </contour>
  </outline>
</glyph>
<glyph name="comma" format="2">
  <advance width="623.8000000000001"/>
  <unicode hex="002C"/>
  <outline>
    <contour>
      <point x="291.79999999999995" y="-15.399999999999999" type="curve" smooth="yes"/>
      <point x="329.1" y="-15.399999999999999" type="line" smooth="yes"/>
      <point x="360.69999999999993" y="-15.399999999999999"/>
      <point x="371.00000000000006" y="-28.299999999999997"/>
      <point x="371.00000000000006" y="-52.8" type="curve" smooth="yes"/>
      <point x="371.00000000000006" y="-132.59999999999997"/>
      <point x="301.2491186045036" y="-221.9820206970538"/>
      <point x="157.7" y="-257.99999999999994" type="curve" smooth="yes"/>
      <point x="96.89999999999999" y="-272.6"/>
      <point x="80.89999999999999" y="-303.59999999999997"/>
      <point x="86.89999999999999" y="-338.90000000000003" type="curve" smooth="yes"/>
      <point x="93.29999999999998" y="-374.9"/>
      <point x="128.5" y="-393.0"/>
      <point x="190.39999999999998" y="-380.2" type="curve" smooth="yes"/>
      <point x="402.05376479308467" y="-335.502977355442"/>
      <point x="542.6999999999999" y="-180.3532928828732"/>
      <point x="542.6999999999999" y="82.89999999999999" type="curve" smooth="yes"/>
      <point x="542.6999999999999" y="275.96478873239437"/>
      <point x="443.8" y="367.40000000000003"/>
      <point x="314.5" y="367.40000000000003" type="curve" smooth="yes"/>
      <point x="195.8" y="367.40000000000003"/>
      <point x="107.0" y="280.4"/>
      <point x="107.0" y="165.0" type="curve" smooth="yes"/>
      <point x="107.0" y="60.4"/>
      <point x="167.7" y="-15.399999999999999"/>
    </contour>
  </outline>
</glyph>
<glyph name="hyphen" format="2">
  <advance width="816.4"/>
  <unicode hex="002D"/>
  <outline>
    <contour>
      <point x="685.5000000000001" y="671.3000000000001" type="curve" smooth="yes"/>
      <point x="195.10000000000002" y="671.3000000000001" type="line" smooth="yes"/>
      <point x="150.3" y="671.3000000000001"/>
      <point x="126.49999999999999" y="655.5000000000001"/>
      <point x="106.9" y="600.7" type="curve" smooth="yes"/>
      <point x="78.5" y="523.5000000000001" type="line" smooth="yes"/>
      <point x="57.50000000000001" y="466.1"/>
      <point x="76.1" y="435.90000000000003"/>
      <point x="130.9" y="435.90000000000003" type="curve" smooth="yes"/>
      <point x="621.3000000000001" y="435.90000000000003" type="line" smooth="yes"/>
      <point x="666.1" y="435.90000000000003"/>
      <point x="689.9" y="451.7"/>
      <point x="709.4999999999999" y="506.5" type="curve" smooth="yes"/>
      <point x="737.9" y="583.7" type="line" smooth="yes"/>
      <point x="758.9" y="641.1"/>
      <point x="740.3" y="671.3000000000001"/>
    </contour>
  </outline>
</glyph>
<glyph name="period" format="2">
  <advance width="600.2"/>
  <unicode hex="002E"/>
  <outline>
    <contour>
      <point x="299.4" y="-26.0" type="curve" smooth="yes"/>
      <point x="417.4" y="-26.0"/>
      <point x="508.2" y="72.60000000000001"/>
      <point x="508.2" y="187.0" type="curve" smooth="yes"/>
      <point x="508.2" y="303.8"/>
      <point x="417.4" y="398.6"/>
      <point x="299.4" y="398.6" type="curve" smooth="yes"/>
      <point x="183.4" y="398.6"/>
      <point x="92.0" y="303.8"/>
      <point x="92.0" y="187.0" type="curve" smooth="yes"/>
      <point x="92.0" y="72.60000000000001"/>
      <point x="183.4" y="-26.0"/>
    </contour>
  </outline>
</glyph>
<glyph name="slash" format="2">
  <advance width="1013.4"/>
  <unicode hex="002F"/>
  <outline>
    <contour>
      <point x="584.5" y="578.1999999999999" type="curve" smooth="yes"/>
      <point x="681.5999999999999" y="787.2000000000003"/>
      <point x="904.0000000000002" y="1187.2999999999997"/>
      <point x="992.0" y="1376.3" type="curve" smooth="yes"/>
      <point x="1020.9000000000001" y="1438.2"/>
      <point x="1001.5" y="1492.2999999999997"/>
      <point x="935.9" y="1522.8" type="curve" smooth="yes"/>
      <point x="869.9999999999999" y="1553.3"/>
      <point x="816.3" y="1533.2"/>
      <point x="787.3" y="1471.7" type="curve" smooth="yes"/>
      <point x="697.5999999999999" y="1279.6000000000001"/>
      <point x="540.5" y="852.2"/>
      <point x="444.1" y="643.1" type="curve" smooth="yes"/>
      <point x="346.8469767850385" y="433.93271484911423"/>
      <point x="114.74554820768927" y="39.0044691125979"/>
      <point x="23.999999999999996" y="-154.79999999999998" type="curve" smooth="yes"/>
      <point x="-4.9" y="-216.8"/>
      <point x="15.0" y="-270.4"/>
      <point x="80.80000000000001" y="-301.20000000000005" type="curve" smooth="yes"/>
      <point x="146.5" y="-331.79999999999995"/>
      <point x="199.7" y="-312.2"/>
      <point x="228.7" y="-250.3" type="curve" smooth="yes"/>
      <point x="317.4583096286326" y="-60.24141237791814"/>
      <point x="487.39294289405905" y="367.41034941794334"/>
    </contour>
  </outline>
</glyph>
<glyph name="zero" format="2">
  <advance width="1407.3999999999999"/>
  <unicode hex="0030"/>
  <outline>
    <contour>
      <point x="716.6" y="1435.6000000000001" type="curve" smooth="yes"/>
      <point x="322.4" y="1435.6000000000001"/>
      <point x="68.39999999999999" y="1151.6"/>
      <point x="68.39999999999999" y="701.4" type="curve" smooth="yes"/>
      <point x="68.39999999999999" y="230.20000000000002"/>
      <point x="298.6" y="-36.0"/>
      <point x="701.6000000000001" y="-36.0" type="curve" smooth="yes"/>
      <point x="1079.8" y="-36.0"/>
      <point x="1339.0000000000002" y="240.8"/>
      <point x="1339.0000000000002" y="713.5" type="curve" smooth="yes"/>
      <point x="1339.0000000000002" y="1168.1"/>
      <point x="1103.3" y="1435.6000000000001"/>
    </contour>
    <contour>
      <point x="944.6" y="669.9" type="curve" smooth="yes"/>
      <point x="944.6" y="251.20000000000002"/>
      <point x="853.5999999999999" y="92.9"/>
      <point x="711.0" y="92.9" type="curve" smooth="yes"/>
      <point x="549.4" y="92.9"/>
      <point x="463.2" y="266.20000000000005"/>
      <point x="463.2" y="737.6999999999999" type="curve" smooth="yes"/>
      <point x="463.2" y="1130.5"/>
      <point x="548.0" y="1306.8"/>
      <point x="701.5999999999999" y="1306.8" type="curve" smooth="yes"/>
      <point x="857.8000000000001" y="1306.8"/>
      <point x="944.6" y="1130.4"/>
    </contour>
  </outline>
</glyph>
<glyph name="one" format="2">
  <advance width="983.2"/>
  <unicode hex="0031"/>
  <outline>
    <contour>
      <point x="170.5" y="1153.2999999999997" type="line" smooth="yes"/>
      <point x="110.30000000000001" y="1153.2999999999997"/>
      <point x="82.4" y="1186.4"/>
      <point x="82.4" y="1236.0" type="curve" smooth="yes"/>
      <point x="82.4" y="1283.9"/>
      <point x="118.1" y="1319.6000000000001"/>
      <point x="176.3" y="1319.6000000000001" type="curve" smooth="yes"/>
      <point x="282.09999999999997" y="1319.6" type="line" smooth="yes"/>
      <point x="392.09285714285716" y="1319.6000000000001"/>
      <point x="454.4929403453972" y="1348.1764678179907"/>
      <point x="534.4" y="1396.2" type="curve" smooth="yes"/>
      <point x="569.1973436636392" y="1417.491272037672"/>
      <point x="595.4" y="1426.1"/>
      <point x="625.6" y="1426.1" type="curve" smooth="yes"/>
      <point x="676.7833333333333" y="1426.1"/>
      <point x="707.2" y="1398.6000000000001"/>
      <point x="707.2" y="1341.5" type="curve" smooth="yes"/>
      <point x="707.2" y="254.1" type="line" smooth="yes"/>
      <point x="707.2" y="203.4"/>
      <point x="726.2" y="178.20000000000002"/>
      <point x="765.6" y="169.7" type="curve" smooth="yes"/>
      <point x="868.0000000000001" y="147.5" type="line" smooth="yes"/>
      <point x="909.1380577468772" y="136.96881653732387"/>
      <point x="931.8" y="110.69999999999999"/>
      <point x="931.8" y="72.39999999999999" type="curve" smooth="yes"/>
      <point x="931.8" y="27.3"/>
      <point x="905.3873563218391" y="0.0"/>
      <point x="848.6999999999999" y="0.0" type="curve" smooth="yes"/>
      <point x="160.20000000000002" y="0.0" type="line" smooth="yes"/>
      <point x="100.6" y="0.0"/>
      <point x="72.69999999999999" y="27.400000000000002"/>
      <point x="72.69999999999999" y="72.5" type="curve" smooth="yes"/>
      <point x="72.69999999999999" y="110.79999999999998"/>
      <point x="97.1" y="138.89999999999998"/>
      <point x="140.9" y="148.39999999999998" type="curve" smooth="yes"/>
      <point x="259.5" y="169.7" type="line" smooth="yes"/>
      <point x="298.0" y="177.20000000000002"/>
      <point x="319.59999999999997" y="203.0"/>
      <point x="319.59999999999997" y="254.19999999999996" type="curve" smooth="yes"/>
      <point x="319.59999999999997" y="1060.5" type="line" smooth="yes"/>
      <point x="319.59999999999997" y="1133.9"/>
      <point x="300.40000000000003" y="1153.2999999999997"/>
      <point x="249.4" y="1153.2999999999997" type="curve" smooth="yes"/>
    </contour>
  </outline>
</glyph>
<glyph name="two" format="2">
  <advance width="1286.6"/>
  <unicode hex="0032"/>
  <outline>
    <contour>
      <point x="258.59999999999997" y="287.6" type="line"/>
      <point x="631.6" y="478.9" type="line" smooth="yes"/>
      <point x="1003.8806287407529" y="661.4324255535586"/>
      <point x="1155.6" y="821.6334572490707"/>
      <point x="1155.6" y="1031.1000000000001" type="curve" smooth="yes"/>
      <point x="1155.6" y="1265.6428961748634"/>
      <point x="991.9" y="1435.6000000000001"/>
      <point x="636.5" y="1435.6000000000001" type="curve" smooth="yes"/>
      <point x="273.9" y="1435.6000000000001"/>
      <point x="103.8" y="1252.5000000000002"/>
      <point x="103.8" y="1053.9" type="curve" smooth="yes"/>
      <point x="103.8" y="928.8363636363637"/>
      <point x="172.70000000000005" y="856.6999999999999"/>
      <point x="281.0" y="856.6999999999999" type="curve" smooth="yes"/>
      <point x="394.0" y="856.6999999999999"/>
      <point x="462.8" y="924.3000000000001"/>
      <point x="462.8" y="1032.7" type="curve" smooth="yes"/>
      <point x="462.8" y="1143.5" type="line" smooth="yes"/>
      <point x="462.8" y="1250.6692307692308"/>
      <point x="501.7436084802108" y="1326.3"/>
      <point x="601.8000000000001" y="1326.3" type="curve" smooth="yes"/>
      <point x="697.9544685260341" y="1326.3"/>
      <point x="751.0" y="1232.5746436309728"/>
      <point x="751.0" y="1011.0999999999999" type="curve" smooth="yes"/>
      <point x="751.0" y="776.2455026455027"/>
      <point x="639.9828181936725" y="630.1975453629851"/>
      <point x="409.9" y="490.8" type="curve" smooth="yes"/>
      <point x="187.4" y="348.2" type="line"/>
    </contour>
    <contour>
      <point x="73.19999999999999" y="155.09999999999997" type="curve" smooth="yes"/>
      <point x="73.19999999999999" y="35.549253731343285"/>
      <point x="144.7" y="-36.0"/>
      <point x="240.2" y="-36.0" type="curve" smooth="yes"/>
      <point x="356.49999999999994" y="-36.0"/>
      <point x="427.7377630643591" y="14.1408388937881"/>
      <point x="438.70000000000005" y="135.5" type="curve" smooth="yes"/>
      <point x="444.8" y="203.39999999999998"/>
      <point x="467.90000000000003" y="236.00000000000003"/>
      <point x="506.5" y="236.00000000000003" type="curve" smooth="yes"/>
      <point x="544.8" y="236.00000000000003"/>
      <point x="561.5" y="215.7"/>
      <point x="595.3999999999999" y="159.20000000000002" type="curve" smooth="yes"/>
      <point x="664.5" y="20.1"/>
      <point x="755.1920227920227" y="-35.900000000000006"/>
      <point x="903.5" y="-35.900000000000006" type="curve" smooth="yes"/>
      <point x="1095.9123966942147" y="-35.900000000000006"/>
      <point x="1214.649362721745" y="82.38146047138143"/>
      <point x="1240.3999999999999" y="368.59999999999997" type="curve" smooth="yes"/>
      <point x="1246.3" y="437.79999999999995"/>
      <point x="1227.3" y="468.7"/>
      <point x="1192.7" y="471.5" type="curve" smooth="yes"/>
      <point x="1161.4" y="473.9"/>
      <point x="1137.6" y="458.5"/>
      <point x="1115.4" y="423.2" type="curve" smooth="yes"/>
      <point x="1074.8665792470167" y="348.69768355491806"/>
      <point x="1023.1000000000001" y="313.90000000000003"/>
      <point x="934.3000000000001" y="313.90000000000003" type="curve" smooth="yes"/>
      <point x="734.8000000000001" y="313.90000000000003"/>
      <point x="591.825788497217" y="398.79999999999995"/>
      <point x="393.59999999999997" y="398.79999999999995" type="curve" smooth="yes"/>
      <point x="186.6" y="398.79999999999995"/>
      <point x="73.19999999999999" y="297.8952029520295"/>
    </contour>
  </outline>
</glyph>
<glyph name="three" format="2">
  <advance width="1184.8"/>
  <unicode hex="0033"/>
  <outline>
    <contour>
      <point x="566.0999999999999" y="726.5000000000001" type="line"/>
      <point x="1053.0" y="1196.9000000000003" type="line" smooth="yes"/>
      <point x="1116.7631895419427" y="1255.992586359308"/>
      <point x="1140.4999999999998" y="1288.5"/>
      <point x="1140.4999999999998" y="1324.1000000000001" type="curve" smooth="yes"/>
      <point x="1140.4999999999998" y="1371.5"/>
      <point x="1106.3999999999999" y="1400.0"/>
      <point x="1039.8" y="1400.0" type="curve" smooth="yes"/>
      <point x="269.20000000000005" y="1400.0" type="line" smooth="yes"/>
      <point x="197.03235294117647" y="1400.0"/>
      <point x="154.79999999999998" y="1362.8999999999999"/>
      <point x="149.20000000000002" y="1303.6" type="curve" smooth="yes"/>
      <point x="118.1" y="985.3" type="line" smooth="yes"/>
      <point x="112.60000000000001" y="926.9"/>
      <point x="147.79999999999998" y="899.6"/>
      <point x="195.50000000000003" y="899.4" type="curve" smooth="yes"/>
      <point x="243.9" y="899.3"/>
      <point x="268.8" y="926.5"/>
      <point x="278.79999999999995" y="968.3" type="curve" smooth="yes"/>
      <point x="297.3" y="1043.0" type="line" smooth="yes"/>
      <point x="308.93334872424293" y="1091.0838210457107"/>
      <point x="336.5" y="1111.2"/>
      <point x="394.2" y="1111.2" type="curve" smooth="yes"/>
      <point x="917.7" y="1111.2" type="line"/>
      <point x="905.7" y="1239.3999999999999" type="line"/>
      <point x="446.1" y="805.1" type="line" smooth="yes"/>
      <point x="407.70000000000005" y="769.9"/>
      <point x="392.0" y="741.6999999999999"/>
      <point x="392.0" y="705.0999999999999" type="curve" smooth="yes"/>
      <point x="392.0" y="654.8000000000001"/>
      <point x="423.1" y="630.0000000000001"/>
      <point x="473.9" y="630.0000000000001" type="curve" smooth="yes"/>
      <point x="546.4999999999999" y="630.0000000000001" type="line" smooth="yes"/>
      <point x="685.2886363636363" y="630.0000000000001"/>
      <point x="760.8" y="550.5999999999999"/>
      <point x="760.8" y="353.7" type="curve" smooth="yes"/>
      <point x="760.8" y="166.19999999999996"/>
      <point x="688.4859030287922" y="76.5"/>
      <point x="579.5000000000001" y="76.5" type="curve" smooth="yes"/>
      <point x="487.5817467661767" y="76.40033782856175"/>
      <point x="437.0" y="134.2497461928934"/>
      <point x="437.0" y="214.6" type="curve" smooth="yes"/>
      <point x="437.0" y="310.4" type="line" smooth="yes"/>
      <point x="437.0" y="412.2"/>
      <point x="379.98733766233767" y="478.4"/>
      <point x="266.29999999999995" y="478.4" type="curve" smooth="yes"/>
      <point x="159.6343859649123" y="478.4"/>
      <point x="79.0" y="399.54653465346536"/>
      <point x="79.0" y="285.40000000000003" type="curve" smooth="yes"/>
      <point x="79.0" y="101.2"/>
      <point x="244.74818652849743" y="-36.0"/>
      <point x="574.8" y="-36.0" type="curve" smooth="yes"/>
      <point x="915.6593023255814" y="-36.0"/>
      <point x="1127.2" y="139.69357554477625"/>
      <point x="1127.2" y="409.00000000000006" type="curve" smooth="yes"/>
      <point x="1127.2" y="636.3914358757792"/>
      <point x="950.3652173913044" y="782.9999999999999"/>
      <point x="678.4999999999999" y="782.9999999999999" type="curve" smooth="yes"/>
      <point x="621.3" y="782.9999999999999"/>
      <point x="572.6" y="775.8"/>
      <point x="534.7" y="763.4" type="curve"/>
    </contour>
  </outline>
</glyph>
<glyph name="four" format="2">
  <advance width="1328.8"/>
  <unicode hex="0034"/>
  <outline>
    <contour>
      <point x="655.8000000000001" y="643.1999999999999" type="curve" smooth="yes"/>
      <point x="655.8000000000001" y="246.10000000000002" type="line" smooth="yes"/>
      <point x="655.8000000000001" y="200.0"/>
      <point x="636.9" y="178.70000000000002"/>
      <point x="600.9" y="169.49999999999997" type="curve" smooth="yes"/>
      <point x="516.3" y="147.59999999999997" type="line" smooth="yes"/>
      <point x="474.3" y="135.79999999999998"/>
      <point x="449.3" y="110.39999999999999"/>
      <point x="449.3" y="72.1" type="curve" smooth="yes"/>
      <point x="449.3" y="26.600000000000005"/>
      <point x="477.1" y="0.0"/>
      <point x="535.9000000000001" y="0.0" type="curve" smooth="yes"/>
      <point x="1132.8" y="0.0" type="line" smooth="yes"/>
      <point x="1191.7" y="0.0"/>
      <point x="1219.1000000000001" y="27.400000000000002"/>
      <point x="1219.1000000000001" y="72.5" type="curve" smooth="yes"/>
      <point x="1219.1000000000001" y="109.99999999999999"/>
      <point x="1194.5" y="131.2"/>
      <point x="1151.7" y="147.20000000000002" type="curve" smooth="yes"/>
      <point x="1083.1" y="169.4" type="line" smooth="yes"/>
      <point x="1048.1999999999998" y="180.5"/>
      <point x="1027.4" y="200.39999999999998"/>
      <point x="1027.4" y="246.89999999999998" type="curve" smooth="yes"/>
      <point x="1025.3999999999999" y="903.8" type="line" smooth="yes"/>
      <point x="1025.3999999999999" y="945.2"/>
      <point x="1005.7" y="963.0"/>
      <point x="976.8000000000001" y="963.0" type="curve" smooth="yes"/>
      <point x="953.7" y="963.0"/>
      <point x="934.7" y="955.4"/>
      <point x="899.9000000000001" y="923.4" type="curve" smooth="yes"/>
      <point x="692.8000000000001" y="735.1999999999999" type="line" smooth="yes"/>
      <point x="668.5999999999999" y="712.3"/>
      <point x="655.8000000000001" y="683.5000000000001"/>
    </contour>
    <contour>
      <point x="435.2" y="886.8" type="curve" smooth="yes"/>
      <point x="94.69999999999999" y="543.4" type="line" smooth="yes"/>
      <point x="46.920870110196674" y="499.5224948957716"/>
      <point x="32.5" y="467.39464285714286"/>
      <point x="32.5" y="438.2" type="curve" smooth="yes"/>
      <point x="32.5" y="388.0988888888889"/>
      <point x="64.96818393621118" y="354.1035837069312"/>
      <point x="122.2" y="354.1000000000001" type="curve" smooth="yes"/>
      <point x="1163.0" y="354.00000000000006" type="line" smooth="yes"/>
      <point x="1221.0" y="354.00000000000006"/>
      <point x="1246.5" y="378.19999999999993"/>
      <point x="1246.5" y="427.8" type="curve" smooth="yes"/>
      <point x="1246.5" y="473.19473684210527"/>
      <point x="1213.3" y="493.4"/>
      <point x="1164.4" y="493.4" type="curve" smooth="yes"/>
      <point x="154.6" y="493.4" type="line"/>
      <point x="180.5" y="432.40000000000003" type="line"/>
      <point x="736.8000000000001" y="971.2" type="line" smooth="yes"/>
      <point x="894.1122586241854" y="1117.1344670036208"/>
      <point x="922.1999999999999" y="1196.8000000000002"/>
      <point x="922.1999999999999" y="1274.1000000000001" type="curve" smooth="yes"/>
      <point x="922.1999999999999" y="1395.5"/>
      <point x="835.6534883720931" y="1463.0"/>
      <point x="706.1" y="1463.0" type="curve" smooth="yes"/>
      <point x="543.0" y="1463.0"/>
      <point x="462.0" y="1382.3999999999999"/>
      <point x="462.0" y="1272.5" type="curve" smooth="yes"/>
      <point x="462.0" y="1170.1984962406013"/>
      <point x="532.2" y="1126.6401574803149"/>
      <point x="532.2" y="1044.1999999999998" type="curve" smooth="yes"/>
      <point x="532.2" y="995.8999999999999"/>
      <point x="499.79682066560594" y="946.2808087541072"/>
    </contour>
  </outline>
</glyph>
<glyph name="five" format="2">
  <advance width="1222.4"/>
  <unicode hex="0035"/>
  <outline>
    <contour>
      <point x="92.80000000000001" y="281.6" type="curve" smooth="yes"/>
      <point x="92.80000000000001" y="101.8"/>
      <point x="257.2" y="-36.0"/>
      <point x="574.7" y="-36.0" type="curve" smooth="yes"/>
      <point x="915.0390588235293" y="-36.0"/>
      <point x="1140.0" y="131.39999999999998"/>
      <point x="1140.0" y="423.2" type="curve" smooth="yes"/>
      <point x="1140.0" y="682.1"/>
      <point x="946.3885941644562" y="851.6"/>
      <point x="653.3" y="851.6" type="curve" smooth="yes"/>
      <point x="484.294922403386" y="851.6"/>
      <point x="376.2852588912962" y="805.5826319501165"/>
      <point x="267.5" y="703.8000000000001" type="curve"/>
      <point x="326.3" y="686.8" type="line"/>
      <point x="326.3" y="1253.7" type="line"/>
      <point x="230.7" y="1128.2" type="line"/>
      <point x="344.739857653683" y="1068.9933087454613"/>
      <point x="521.1999999999999" y="1026.4"/>
      <point x="684.8999999999999" y="1026.4" type="curve" smooth="yes"/>
      <point x="949.0704918032787" y="1026.4"/>
      <point x="1103.1164406617615" y="1121.7512492793887"/>
      <point x="1139.8000000000002" y="1356.2" type="curve" smooth="yes"/>
      <point x="1148.2" y="1407.6999999999998"/>
      <point x="1133.5" y="1429.8"/>
      <point x="1112.9999999999998" y="1438.3" type="curve" smooth="yes"/>
      <point x="1088.2" y="1449.1"/>
      <point x="1062.6" y="1441.3999999999999"/>
      <point x="1028.2" y="1414.6000000000001" type="curve" smooth="yes"/>
      <point x="977.2148347147412" y="1367.7432231431612"/>
      <point x="895.5076628352492" y="1339.3999999999999"/>
      <point x="755.5" y="1339.3999999999999" type="curve" smooth="yes"/>
      <point x="630.1945205479452" y="1339.3999999999999"/>
      <point x="504.7934830411761" y="1365.7825365324977"/>
      <point x="399.0" y="1402.2" type="curve" smooth="yes"/>
      <point x="354.0522854392646" y="1418.1940623031205"/>
      <point x="321.89000000000004" y="1424.0"/>
      <point x="290.2" y="1424.0" type="curve" smooth="yes"/>
      <point x="209.26891592920353" y="1424.0"/>
      <point x="174.4" y="1380.9222222222224"/>
      <point x="174.4" y="1311.6999999999998" type="curve" smooth="yes"/>
      <point x="174.4" y="648.9999999999999" type="line" smooth="yes"/>
      <point x="174.4" y="597.8000000000001"/>
      <point x="208.07352941176472" y="575.4"/>
      <point x="247.9" y="575.4" type="curve" smooth="yes"/>
      <point x="281.9333923969072" y="575.4"/>
      <point x="305.3" y="588.6"/>
      <point x="347.5" y="616.0" type="curve" smooth="yes"/>
      <point x="409.9515388147903" y="670.6886467614394"/>
      <point x="467.0132653061225" y="698.3000000000001"/>
      <point x="537.9" y="698.3000000000001" type="curve" smooth="yes"/>
      <point x="677.7801980198019" y="698.3000000000001"/>
      <point x="772.8000000000001" y="601.9646437994722"/>
      <point x="772.8000000000001" y="371.80000000000007" type="curve" smooth="yes"/>
      <point x="772.8000000000001" y="160.10000000000002"/>
      <point x="700.0686932441424" y="73.3"/>
      <point x="596.6999999999998" y="73.3" type="curve" smooth="yes"/>
      <point x="501.6747003610109" y="73.3"/>
      <point x="450.79999999999995" y="129.19898477157358"/>
      <point x="450.79999999999995" y="201.4" type="curve" smooth="yes"/>
      <point x="450.79999999999995" y="309.7" type="line" smooth="yes"/>
      <point x="450.79999999999995" y="409.40000000000003"/>
      <point x="393.825" y="478.5"/>
      <point x="281.8" y="478.5" type="curve" smooth="yes"/>
      <point x="173.86599999999999" y="478.5"/>
      <point x="92.80000000000001" y="397.05"/>
    </contour>
  </outline>
</glyph>
<glyph name="six" format="2">
  <advance width="1294.0"/>
  <unicode hex="0036"/>
  <outline>
    <contour>
      <point x="738.3000000000001" y="1435.7" type="curve" smooth="yes"/>
      <point x="323.695164410058" y="1435.7"/>
      <point x="67.59999999864876" y="1153.1000007202147"/>
      <point x="67.8" y="654.4000000000001" type="curve" smooth="yes"/>
      <point x="68.00000000217105" y="231.59999904691105"/>
      <point x="284.5" y="-35.900000000000006"/>
      <point x="669.8" y="-35.900000000000006" type="curve" smooth="yes"/>
      <point x="1012.4" y="-35.900000000000006"/>
      <point x="1229.8" y="155.1"/>
      <point x="1229.8" y="438.5" type="curve" smooth="yes"/>
      <point x="1229.8" y="701.6"/>
      <point x="1061.1324705882353" y="852.8"/>
      <point x="795.3" y="852.8" type="curve" smooth="yes"/>
      <point x="555.1" y="852.8"/>
      <point x="360.0" y="698.3"/>
      <point x="346.4" y="529.1999999999999" type="curve"/>
      <point x="420.20000000000005" y="491.6" type="line"/>
      <point x="440.59999999999997" y="606.7091370558375"/>
      <point x="541.7" y="689.3000000000001"/>
      <point x="652.3000000000001" y="689.3000000000001" type="curve" smooth="yes"/>
      <point x="776.6693641618497" y="689.3000000000001"/>
      <point x="860.6" y="587.1434782608695"/>
      <point x="860.6" y="392.20000000000005" type="curve" smooth="yes"/>
      <point x="860.6" y="189.73554987212276"/>
      <point x="787.8000000000001" y="92.0"/>
      <point x="672.4" y="92.0" type="curve" smooth="yes"/>
      <point x="549.6" y="92.0"/>
      <point x="450.80015385113217" y="211.7276899678871"/>
      <point x="451.4" y="643.0" type="curve" smooth="yes"/>
      <point x="451.99999999558" y="1135.7000022762886"/>
      <point x="559.1447552447553" y="1306.8"/>
      <point x="695.6999999999999" y="1306.8" type="curve" smooth="yes"/>
      <point x="777.7405004598405" y="1306.8"/>
      <point x="816.4" y="1265.9204861111111"/>
      <point x="816.4" y="1187.2" type="curve" smooth="yes"/>
      <point x="816.4" y="1113.9" type="line" smooth="yes"/>
      <point x="816.4" y="1005.5094527363185"/>
      <point x="879.3" y="945.6999999999999"/>
      <point x="1000.1" y="945.6999999999999" type="curve" smooth="yes"/>
      <point x="1116.057142857143" y="945.6999999999999"/>
      <point x="1189.2" y="1013.8525252525251"/>
      <point x="1189.2" y="1132.6" type="curve" smooth="yes"/>
      <point x="1189.2" y="1292.3355805243448"/>
      <point x="1027.1534743202417" y="1435.7"/>
    </contour>
  </outline>
</glyph>
<glyph name="seven" format="2">
  <advance width="1117.2"/>
  <unicode hex="0037"/>
  <outline>
    <contour>
      <point x="838.6" y="1101.8000000000002" type="line"/>
      <point x="594.7" y="820.8999999999999" type="line" smooth="yes"/>
      <point x="359.8" y="572.9000000000001"/>
      <point x="263.79999999999995" y="408.2"/>
      <point x="263.79999999999995" y="239.7" type="curve" smooth="yes"/>
      <point x="263.79999999999995" y="60.199999999999996"/>
      <point x="368.2150943396226" y="-35.900000000000006"/>
      <point x="525.9000000000001" y="-35.900000000000006" type="curve" smooth="yes"/>
      <point x="683.1999999999999" y="-35.900000000000006"/>
      <point x="764.5" y="61.6"/>
      <point x="764.5" y="175.70000000000002" type="curve" smooth="yes"/>
      <point x="764.5" y="325.5"/>
      <point x="639.0" y="383.0"/>
      <point x="639.0" y="513.2" type="curve" smooth="yes"/>
      <point x="639.0" y="616.6"/>
      <point x="678.4000000000001" y="698.1"/>
      <point x="864.3" y="915.5999999999999" type="curve" smooth="yes"/>
      <point x="1059.5" y="1162.5" type="line" smooth="yes"/>
      <point x="1120.7000000000003" y="1228.7"/>
      <point x="1134.1999999999998" y="1266.9"/>
      <point x="1134.1999999999998" y="1302.2" type="curve" smooth="yes"/>
      <point x="1134.1999999999998" y="1360.5000000000002"/>
      <point x="1092.6000000000001" y="1400.0"/>
      <point x="1014.6999999999999" y="1400.0" type="curve" smooth="yes"/>
      <point x="205.39999999999998" y="1400.0" type="line" smooth="yes"/>
      <point x="141.2" y="1400.0"/>
      <point x="104.60000000000002" y="1361.3000000000002"/>
      <point x="100.6" y="1302.4" type="curve" smooth="yes"/>
      <point x="74.6" y="928.9" type="line" smooth="yes"/>
      <point x="70.7" y="872.1"/>
      <point x="99.10000000000001" y="842.8"/>
      <point x="152.4" y="842.5999999999999" type="curve" smooth="yes"/>
      <point x="199.2" y="842.5"/>
      <point x="226.00000000000003" y="868.9"/>
      <point x="236.1" y="911.1" type="curve" smooth="yes"/>
      <point x="260.3" y="1009.4000000000002" type="line" smooth="yes"/>
      <point x="272.4" y="1059.0000000000002"/>
      <point x="292.3" y="1076.8000000000002"/>
      <point x="351.6" y="1076.8000000000002" type="curve" smooth="yes"/>
      <point x="901.9" y="1076.8000000000002" type="line"/>
    </contour>
  </outline>
</glyph>
<glyph name="eight" format="2">
  <advance width="1311.8"/>
  <unicode hex="0038"/>
  <outline>
    <contour>
      <point x="618.0999999999999" y="-35.199999999999996" type="curve" smooth="yes"/>
      <point x="1011.5368794326242" y="-35.199999999999996"/>
      <point x="1233.8" y="131.66167664670655"/>
      <point x="1233.8" y="366.6000000000001" type="curve" smooth="yes"/>
      <point x="1233.8" y="535.6594879001543"/>
      <point x="1100.6930415326376" y="666.8694377483264"/>
      <point x="811.0000000000001" y="754.9999999999999" type="curve" smooth="yes"/>
      <point x="556.7899208056405" y="832.5703600841133"/>
      <point x="467.9" y="945.9721510154615"/>
      <point x="467.9" y="1111.6" type="curve" smooth="yes"/>
      <point x="467.9" y="1234.0999999999997"/>
      <point x="534.9258358662614" y="1322.4999999999998"/>
      <point x="658.2" y="1322.4999999999998" type="curve" smooth="yes"/>
      <point x="794.6671129921765" y="1322.4999999999998"/>
      <point x="864.6" y="1225.2845238095238"/>
      <point x="864.6" y="1059.1" type="curve" smooth="yes"/>
      <point x="864.6" y="914.1961702559935"/>
      <point x="804.7124315999316" y="792.9298584996327"/>
      <point x="715.1" y="722.8" type="curve"/>
      <point x="749.0" y="686.6999999999999" type="line"/>
      <point x="1097.1447816350258" y="706.3822583154222"/>
      <point x="1230.8" y="874.176338028169"/>
      <point x="1230.8" y="1050.2" type="curve" smooth="yes"/>
      <point x="1230.8" y="1272.4"/>
      <point x="1031.801617362373" y="1435.7"/>
      <point x="706.6" y="1435.7" type="curve" smooth="yes"/>
      <point x="294.4581560283688" y="1435.7"/>
      <point x="98.8" y="1221.2268170426064"/>
      <point x="98.8" y="984.4000000000001" type="curve" smooth="yes"/>
      <point x="98.8" y="797.6032076996648"/>
      <point x="224.23558772950202" y="653.8875988517101"/>
      <point x="533.8999999999999" y="568.6" type="curve" smooth="yes"/>
      <point x="774.6557846557424" y="501.5802567306996"/>
      <point x="842.2" y="403.0154379633982"/>
      <point x="842.2" y="270.4" type="curve" smooth="yes"/>
      <point x="842.2" y="147.463309352518"/>
      <point x="781.6392523364485" y="71.20000000000002"/>
      <point x="665.1" y="71.20000000000002" type="curve" smooth="yes"/>
      <point x="533.6410876132929" y="71.20000000000002"/>
      <point x="469.20000000000005" y="178.16541095890412"/>
      <point x="469.20000000000005" y="335.79999999999995" type="curve" smooth="yes"/>
      <point x="469.20000000000005" y="430.6"/>
      <point x="498.5768428126066" y="539.356255643822"/>
      <point x="572.3" y="592.1999999999999" type="curve"/>
      <point x="568.5" y="623.8000000000001" type="line"/>
      <point x="241.3070742753829" y="604.6499061299506"/>
      <point x="94.39999999999999" y="472.3388704318937"/>
      <point x="94.39999999999999" y="310.8" type="curve"/>
      <point x="94.39999999999999" y="111.06061538461537"/>
      <point x="249.81692307692305" y="-35.199999999999996"/>
    </contour>
  </outline>
</glyph>
<glyph name="nine" format="2">
  <advance width="1297.0"/>
  <unicode hex="0039"/>
  <outline>
    <contour>
      <point x="562.0999999999999" y="-35.800000000000004" type="curve" smooth="yes"/>
      <point x="976.1217557251908" y="-35.800000000000004"/>
      <point x="1228.401305471955" y="249.20418344796119"/>
      <point x="1229.6000000000001" y="746.4999999999999" type="curve" smooth="yes"/>
      <point x="1230.601488092267" y="1168.6467274948393"/>
      <point x="1014.0902286902287" y="1435.8"/>
      <point x="629.0999999999999" y="1435.8" type="curve" smooth="yes"/>
      <point x="286.2038369304556" y="1435.8"/>
      <point x="67.6" y="1244.796860986547"/>
      <point x="67.6" y="961.6000000000001" type="curve" smooth="yes"/>
      <point x="67.6" y="699.4903061224489"/>
      <point x="236.10000000000002" y="549.5000000000001"/>
      <point x="502.1" y="549.5000000000001" type="curve" smooth="yes"/>
      <point x="742.3000000000001" y="549.5000000000001"/>
      <point x="937.4" y="703.9999999999999"/>
      <point x="951.0" y="873.1" type="curve"/>
      <point x="877.1999999999999" y="904.3000000000001" type="line"/>
      <point x="857.6250474339045" y="792.8930694660485"/>
      <point x="755.7" y="713.0"/>
      <point x="645.1" y="713.0" type="curve" smooth="yes"/>
      <point x="520.8" y="713.0"/>
      <point x="436.8" y="814.4489010989012"/>
      <point x="436.8" y="1007.9000000000001" type="curve" smooth="yes"/>
      <point x="436.8" y="1210.5545918367347"/>
      <point x="510.80000000000007" y="1307.8999999999999"/>
      <point x="626.5" y="1307.8999999999999" type="curve" smooth="yes"/>
      <point x="749.0063882063882" y="1307.8999999999999"/>
      <point x="847.6015360963087" y="1189.47649863858"/>
      <point x="846.0" y="758.9" type="curve" smooth="yes"/>
      <point x="844.3014184259894" y="265.5695106154129"/>
      <point x="741.0815668202765" y="93.1"/>
      <point x="604.6999999999999" y="93.1" type="curve" smooth="yes"/>
      <point x="521.3476657990972" y="93.1"/>
      <point x="478.99999999999994" y="133.79080459770114"/>
      <point x="478.99999999999994" y="212.1" type="curve" smooth="yes"/>
      <point x="478.99999999999994" y="286.09999999999997" type="line" smooth="yes"/>
      <point x="478.99999999999994" y="394.59999999999997"/>
      <point x="416.1636363636364" y="454.3"/>
      <point x="295.59999999999997" y="454.3" type="curve" smooth="yes"/>
      <point x="179.57272727272724" y="454.3"/>
      <point x="106.2" y="386.1121212121212"/>
      <point x="106.2" y="267.29999999999995" type="curve" smooth="yes"/>
      <point x="106.2" y="107.6"/>
      <point x="271.9827893175074" y="-35.800000000000004"/>
    </contour>
  </outline>
</glyph>
<glyph name="less" format="2">
  <advance width="1074.6"/>
  <unicode hex="003C"/>
  <outline>
    <contour>
      <point x="309.1" y="700.7" type="line"/>
      <point x="886.9999999999999" y="372.5" type="line" smooth="yes"/>
      <point x="941.8" y="343.2"/>
      <point x="964.5" y="300.7"/>
      <point x="964.5" y="268.40000000000003" type="curve" smooth="yes"/>
      <point x="965.3" y="221.1"/>
      <point x="941.1" y="187.1"/>
      <point x="885.8" y="187.1" type="curve" smooth="yes"/>
      <point x="839.8" y="187.1"/>
      <point x="799.4000000000001" y="210.4"/>
      <point x="732.4" y="245.4" type="curve" smooth="yes"/>
      <point x="186.79999999999998" y="549.1999999999999" type="line" smooth="yes"/>
      <point x="126.00000000000001" y="580.7000000000002"/>
      <point x="95.3" y="626.9"/>
      <point x="95.3" y="684.0" type="curve" smooth="yes"/>
      <point x="95.3" y="740.7"/>
      <point x="125.99999999999999" y="786.9"/>
      <point x="186.79999999999998" y="818.4" type="curve" smooth="yes"/>
      <point x="730.5" y="1121.6" type="line" smooth="yes"/>
      <point x="798.0" y="1157.1000000000001"/>
      <point x="838.3" y="1179.9999999999998"/>
      <point x="883.9" y="1179.9999999999998" type="curve" smooth="yes"/>
      <point x="939.6" y="1179.9999999999998"/>
      <point x="963.9" y="1145.8999999999999"/>
      <point x="963.1" y="1099.0" type="curve" smooth="yes"/>
      <point x="963.1" y="1066.3"/>
      <point x="940.3" y="1024.8000000000002"/>
      <point x="884.9999999999999" y="995.0" type="curve" smooth="yes"/>
      <point x="309.1" y="667.4" type="line"/>
    </contour>
  </outline>
</glyph>
<glyph name="question" format="2">
  <advance width="1139.6000000000001"/>
  <unicode hex="003F"/>
  <outline>
    <contour>
      <point x="401.9" y="665.6" type="line" smooth="yes"/>
      <point x="381.6" y="733.2"/>
      <point x="407.97736321448264" y="783.5400442381914"/>
      <point x="486.5" y="821.0999999999999" type="curve" smooth="yes"/>
      <point x="553.0" y="852.6" type="line" smooth="yes"/>
      <point x="656.1" y="902.3"/>
      <point x="687.0" y="987.3625607327758"/>
      <point x="687.0" y="1138.5000000000002" type="curve" smooth="yes"/>
      <point x="687.0" y="1267.258585858586"/>
      <point x="635.3" y="1338.3999999999999"/>
      <point x="551.9" y="1338.3999999999999" type="curve" smooth="yes"/>
      <point x="471.9" y="1338.3999999999999"/>
      <point x="427.2" y="1292.6"/>
      <point x="427.2" y="1216.2" type="curve" smooth="yes"/>
      <point x="427.2" y="1139.2" type="line" smooth="yes"/>
      <point x="427.2" y="1003.1"/>
      <point x="357.58296943231437" y="926.4"/>
      <point x="233.0" y="926.4000000000001" type="curve" smooth="yes"/>
      <point x="126.4018779342723" y="926.4"/>
      <point x="56.0" y="993.7954128440368"/>
      <point x="56.0" y="1109.5" type="curve" smooth="yes"/>
      <point x="56.0" y="1304.3000000000002"/>
      <point x="270.50000000000006" y="1468.6000000000001"/>
      <point x="565.9" y="1468.6000000000001" type="curve" smooth="yes"/>
      <point x="912.8000000000001" y="1468.6000000000001"/>
      <point x="1080.2" y="1337.100755667506"/>
      <point x="1080.2" y="1099.2" type="curve" smooth="yes"/>
      <point x="1080.2" y="911.8936300188329"/>
      <point x="986.6570381021448" y="794.1611777241717"/>
      <point x="742.9" y="741.6999999999999" type="curve" smooth="yes"/>
      <point x="686.3000000000001" y="728.6" type="line" smooth="yes"/>
      <point x="641.7948852414875" y="719.3291049172603"/>
      <point x="633.9" y="696.3000000000001"/>
      <point x="622.5" y="659.3000000000001" type="curve" smooth="yes"/>
      <point x="605.9999999999999" y="569.4" type="line" smooth="yes"/>
      <point x="582.6121231253829" y="509.1132616414387"/>
      <point x="561.1363636363636" y="487.79999999999995"/>
      <point x="511.80000000000007" y="487.79999999999995" type="curve" smooth="yes"/>
      <point x="461.35496183206106" y="487.79999999999995"/>
      <point x="435.939966245735" y="512.7600833928901"/>
      <point x="419.7" y="563.4999999999999" type="curve" smooth="yes"/>
    </contour>
    <component base="period" xOffset="205.3"/>
  </outline>
</glyph>
<glyph name="at" format="2">
  <advance width="1948.2"/>
  <unicode hex="0040"/>
  <outline>
    <contour>
      <point x="1109.7000000000003" y="487.0" type="curve"/>
      <point x="1138.1" y="565.5999999999999" type="line"/>
      <point x="1086.1999999999998" y="588.0999999999999"/>
      <point x="1046.5" y="596.4"/>
      <point x="969.1" y="596.4" type="curve" smooth="yes"/>
      <point x="694.0" y="596.4"/>
      <point x="539.8" y="485.56666666666666"/>
      <point x="539.8" y="328.2" type="curve" smooth="yes"/>
      <point x="539.8" y="192.0"/>
      <point x="654.8000000000001" y="102.6"/>
      <point x="829.8000000000001" y="102.6" type="curve" smooth="yes"/>
      <point x="958.1" y="102.6"/>
      <point x="1084.7" y="157.60000000000002"/>
      <point x="1143.7999999999997" y="253.7" type="curve"/>
      <point x="1117.8000000000002" y="327.1" type="line"/>
      <point x="1094.1639282137521" y="286.000832883945"/>
      <point x="1045.1" y="265.8"/>
      <point x="989.5" y="265.8" type="curve" smooth="yes"/>
      <point x="924.1" y="265.8"/>
      <point x="876.3000000000001" y="312.03609467455624"/>
      <point x="876.3000000000001" y="389.59999999999997" type="curve" smooth="yes"/>
      <point x="876.3000000000001" y="464.1"/>
      <point x="933.9" y="509.29999999999995"/>
      <point x="1005.0" y="509.29999999999995" type="curve" smooth="yes"/>
      <point x="1048.6" y="509.29999999999995"/>
      <point x="1074.816637531537" y="500.09428860857696"/>
    </contour>
    <contour>
      <point x="1482.5" y="259.3" type="curve" smooth="yes"/>
      <point x="1431.1999999999998" y="259.3"/>
      <point x="1409.0" y="291.40000000000003"/>
      <point x="1409.0" y="345.7" type="curve" smooth="yes"/>
      <point x="1409.0" y="772.3000000000001" type="line" smooth="yes"/>
      <point x="1409.0" y="956.0000000000001"/>
      <point x="1253.1664122137404" y="1042.4"/>
      <point x="1046.3" y="1042.4" type="curve" smooth="yes"/>
      <point x="734.6946308724832" y="1042.4"/>
      <point x="577.1999999999999" y="933.1844036697248"/>
      <point x="577.1999999999999" y="779.6" type="curve" smooth="yes"/>
      <point x="577.1999999999999" y="696.5999999999999"/>
      <point x="647.1" y="658.4000000000001"/>
      <point x="725.0999999999999" y="658.4000000000001" type="curve" smooth="yes"/>
      <point x="817.9000000000001" y="658.4000000000001"/>
      <point x="898.8" y="706.0"/>
      <point x="898.8" y="797.6" type="curve" smooth="yes"/>
      <point x="898.8" y="853.0" type="line" smooth="yes"/>
      <point x="898.8" y="898.1553191489362"/>
      <point x="932.0" y="929.2"/>
      <point x="987.0999999999999" y="929.2" type="curve" smooth="yes"/>
      <point x="1051.5" y="929.2"/>
      <point x="1083.5000000000002" y="881.4914285714286"/>
      <point x="1083.5000000000002" y="815.8000000000001" type="curve" smooth="yes"/>
      <point x="1083.5000000000002" y="277.3" type="line"/>
      <point x="1108.7" y="270.40000000000003" type="line"/>
      <point x="1114.5998747558738" y="157.60413753929078"/>
      <point x="1237.6547277936966" y="103.0"/>
      <point x="1396.7000000000003" y="102.6" type="curve" smooth="yes"/>
      <point x="1677.8576048959183" y="102.19134209044645"/>
      <point x="1850.1999999999998" y="323.2"/>
      <point x="1850.1999999999998" y="630.1999999999999" type="curve" smooth="yes"/>
      <point x="1850.1999999999998" y="1128.4000000000003"/>
      <point x="1478.1000000000001" y="1416.6"/>
      <point x="1006.8999999999999" y="1416.6" type="curve" smooth="yes"/>
      <point x="466.2" y="1416.6"/>
      <point x="92.8" y="1029.6"/>
      <point x="92.8" y="547.8" type="curve" smooth="yes"/>
      <point x="92.8" y="10.2"/>
      <point x="477.80000000000007" y="-320.20000000000005"/>
      <point x="995.5" y="-320.20000000000005" type="curve" smooth="yes"/>
      <point x="1350.1999999999998" y="-320.20000000000005"/>
      <point x="1624.3000000000002" y="-193.7"/>
      <point x="1751.8" y="-48.99999999999999" type="curve" smooth="yes"/>
      <point x="1795.1000000000004" y="-1.6999999999999953"/>
      <point x="1802.1999999999998" y="41.7"/>
      <point x="1774.2" y="67.49999999999999" type="curve" smooth="yes"/>
      <point x="1743.8999999999999" y="94.80000000000001"/>
      <point x="1700.2" y="80.4"/>
      <point x="1659.9" y="46.6" type="curve" smooth="yes"/>
      <point x="1469.5315086455118" y="-120.52218962538578"/>
      <point x="1245.0" y="-189.8"/>
      <point x="997.2000000000002" y="-189.8" type="curve" smooth="yes"/>
      <point x="555.8237499999999" y="-189.8"/>
      <point x="247.2" y="104.41954350927247"/>
      <point x="247.2" y="547.8" type="curve" smooth="yes"/>
      <point x="247.2" y="989.3000000000001"/>
      <point x="548.3905109489051" y="1293.6"/>
      <point x="996.6999999999999" y="1293.6" type="curve" smooth="yes"/>
      <point x="1390.0949324324324" y="1293.6"/>
      <point x="1694.3999999999999" y="1039.2"/>
      <point x="1694.3999999999999" y="628.4" type="curve" smooth="yes"/>
      <point x="1694.3999999999999" y="393.00000000000006"/>
      <point x="1601.5786527196246" y="259.3"/>
    </contour>
  </outline>
</glyph>
<glyph name="A" format="2">
  <advance width="1547.4"/>
  <unicode hex="0041"/>
  <anchor x="775.0" y="1461.6000000000001" name="center"/>
  <outline>
    <contour>
      <point x="363.7" y="601.5" type="line"/>
      <point x="359.6" y="447.69999999999993" type="line"/>
      <point x="971.6" y="447.69999999999993" type="line"/>
      <point x="969.0" y="601.5" type="line"/>
    </contour>
    <contour>
      <point x="515.8000000000001" y="71.99999999999999" type="curve" smooth="yes"/>
      <point x="515.8000000000001" y="107.39999999999999"/>
      <point x="495.30000000000007" y="126.89999999999998"/>
      <point x="462.1" y="142.19999999999996" type="curve" smooth="yes"/>
      <point x="418.6" y="156.70000000000002" type="line" smooth="yes"/>
      <point x="339.5" y="193.79999999999998"/>
      <point x="347.1" y="222.0"/>
      <point x="375.70000000000005" y="312.5" type="curve" smooth="yes"/>
      <point x="678.2" y="1259.1000000000001" type="line" smooth="yes"/>
      <point x="645.7" y="1248.2" type="line"/>
      <point x="955.9000000000001" y="258.90000000000003" type="line" smooth="yes"/>
      <point x="975.1" y="196.7"/>
      <point x="985.8000000000001" y="172.60000000000002"/>
      <point x="952.5" y="158.79999999999998" type="curve" smooth="yes"/>
      <point x="907.1" y="144.2" type="line" smooth="yes"/>
      <point x="870.8000000000001" y="128.2"/>
      <point x="853.0" y="106.9"/>
      <point x="853.0" y="71.99999999999999" type="curve" smooth="yes"/>
      <point x="853.0" y="27.400000000000002"/>
      <point x="879.5999999999999" y="0.0"/>
      <point x="939.5999999999999" y="0.0" type="curve" smooth="yes"/>
      <point x="1411.0" y="0.0" type="line" smooth="yes"/>
      <point x="1470.3" y="0.0"/>
      <point x="1497.7" y="27.4"/>
      <point x="1497.7" y="71.99999999999999" type="curve" smooth="yes"/>
      <point x="1497.7" y="109.7"/>
      <point x="1483.8999999999999" y="130.20000000000002"/>
      <point x="1435.3" y="154.8" type="curve" smooth="yes"/>
      <point x="1391.9" y="174.0"/>
      <point x="1374.6" y="211.29999999999998"/>
      <point x="1345.9" y="302.00000000000006" type="curve" smooth="yes"/>
      <point x="1066.2" y="1160.7000000000003" type="line" smooth="yes"/>
      <point x="1049.5999999999997" y="1212.8"/>
      <point x="1053.2999999999997" y="1236.6999999999998"/>
      <point x="1085.6" y="1250.6" type="curve" smooth="yes"/>
      <point x="1123.3" y="1267.3"/>
      <point x="1141.8999999999999" y="1290.4"/>
      <point x="1141.8999999999999" y="1328.3000000000002" type="curve" smooth="yes"/>
      <point x="1141.8999999999999" y="1372.5"/>
      <point x="1114.7" y="1400.0"/>
      <point x="1055.3" y="1400.0" type="curve" smooth="yes"/>
      <point x="468.9" y="1400.0" type="line" smooth="yes"/>
      <point x="409.6" y="1400.0"/>
      <point x="382.2" y="1372.6999999999998"/>
      <point x="382.2" y="1328.2000000000003" type="curve" smooth="yes"/>
      <point x="382.2" y="1293.1000000000001"/>
      <point x="398.40000000000003" y="1268.5"/>
      <point x="437.2" y="1251.8" type="curve" smooth="yes"/>
      <point x="485.3" y="1230.7999999999997"/>
      <point x="487.1000000000001" y="1208.9"/>
      <point x="466.5" y="1143.0000000000002" type="curve" smooth="yes"/>
      <point x="190.9" y="284.20000000000005" type="line" smooth="yes"/>
      <point x="163.5" y="196.20000000000002"/>
      <point x="149.9" y="178.0"/>
      <point x="114.9" y="158.0" type="curve" smooth="yes"/>
      <point x="88.0" y="143.8" type="line" smooth="yes"/>
      <point x="53.7" y="121.79999999999998"/>
      <point x="39.800000000000004" y="102.3"/>
      <point x="39.800000000000004" y="71.89999999999999" type="curve" smooth="yes"/>
      <point x="39.800000000000004" y="27.400000000000002"/>
      <point x="67.10000000000001" y="0.0"/>
      <point x="126.09999999999998" y="0.0" type="curve" smooth="yes"/>
      <point x="429.6" y="0.0" type="line" smooth="yes"/>
      <point x="489.0" y="0.0"/>
      <point x="515.8000000000001" y="27.400000000000002"/>
    </contour>
  </outline>
</glyph>
<glyph name="B" format="2">
  <advance width="1484.8000000000002"/>
  <unicode hex="0042"/>
  <outline>
    <contour>
      <point x="1443.8" y="336.2" type="curve" smooth="yes"/>
      <point x="1443.8" y="541.5060943506481"/>
      <point x="1230.6" y="682.3000000000001"/>
      <point x="906.0999999999999" y="682.3000000000001" type="curve"/>
      <point x="857.6999999999999" y="641.6999999999999" type="line"/>
      <point x="1187.1999999999998" y="641.6999999999999"/>
      <point x="1363.8000000000002" y="787.8477472390142"/>
      <point x="1363.8000000000002" y="987.8" type="curve" smooth="yes"/>
      <point x="1363.8000000000002" y="1235.668797953964"/>
      <point x="1137.0" y="1400.0"/>
      <point x="760.7" y="1400.0" type="curve" smooth="yes"/>
      <point x="178.6" y="1400.0" type="line" smooth="yes"/>
      <point x="119.39999999999999" y="1400.0"/>
      <point x="92.29999999999998" y="1372.6"/>
      <point x="92.29999999999998" y="1328.0000000000002" type="curve" smooth="yes"/>
      <point x="92.29999999999998" y="1291.0"/>
      <point x="108.9" y="1266.1000000000001"/>
      <point x="146.2" y="1250.1000000000001" type="curve" smooth="yes"/>
      <point x="187.8" y="1235.6000000000001" type="line" smooth="yes"/>
      <point x="221.70000000000002" y="1222.6000000000001"/>
      <point x="242.1" y="1203.1"/>
      <point x="242.1" y="1161.4" type="curve" smooth="yes"/>
      <point x="242.1" y="238.6" type="line" smooth="yes"/>
      <point x="242.1" y="196.89999999999998"/>
      <point x="221.7" y="177.40000000000003"/>
      <point x="187.8" y="164.4" type="curve" smooth="yes"/>
      <point x="146.2" y="149.89999999999998" type="line" smooth="yes"/>
      <point x="108.9" y="133.9"/>
      <point x="92.29999999999998" y="109.0"/>
      <point x="92.29999999999998" y="71.99999999999999" type="curve" smooth="yes"/>
      <point x="92.29999999999998" y="27.4"/>
      <point x="119.39999999999999" y="0.0"/>
      <point x="178.6" y="0.0" type="curve" smooth="yes"/>
      <point x="924.4" y="0.0" type="line" smooth="yes"/>
      <point x="1275.7230769230769" y="0.0"/>
      <point x="1443.8" y="136.34186046511627"/>
    </contour>
    <contour>
      <point x="787.5999999999999" y="582.1" type="line" smooth="yes"/>
      <point x="961.3493562231761" y="582.1"/>
      <point x="1060.1999999999998" y="491.4829885057472"/>
      <point x="1060.1999999999998" y="349.7" type="curve" smooth="yes"/>
      <point x="1060.1999999999998" y="216.34825174825176"/>
      <point x="981.2516483516483" y="137.39999999999998"/>
      <point x="838.6" y="137.39999999999998" type="curve" smooth="yes"/>
      <point x="768.4" y="137.39999999999998" type="line" smooth="yes"/>
      <point x="678.2" y="137.39999999999998"/>
      <point x="629.5999999999999" y="179.59999999999997"/>
      <point x="629.5999999999999" y="265.8999999999999" type="curve" smooth="yes"/>
      <point x="629.5999999999999" y="1262.2" type="line"/>
      <point x="691.1" y="1262.2" type="line" smooth="yes"/>
      <point x="891.198586572438" y="1262.2"/>
      <point x="998.1999999999999" y="1148.348502994012"/>
      <point x="998.1999999999999" y="966.5999999999999" type="curve" smooth="yes"/>
      <point x="998.1999999999999" y="789.5967329153357"/>
      <point x="908.8713043478261" y="700.3"/>
      <point x="742.1999999999999" y="700.3" type="curve" smooth="yes"/>
      <point x="506.4000000000001" y="700.3" type="line"/>
      <point x="506.4000000000001" y="582.1" type="line"/>
    </contour>
  </outline>
</glyph>
<glyph name="C" format="2">
  <advance width="1430.3999999999999"/>
  <unicode hex="0043"/>
  <anchor x="757.2" y="1550.0" name="center"/>
  <outline>
    <contour>
      <point x="1368.1000000000001" y="375.2" type="curve" smooth="yes"/>
      <point x="1368.1" y="405.3"/>
      <point x="1356.3000000000002" y="425.6"/>
      <point x="1331.3999999999999" y="432.0" type="curve" smooth="yes"/>
      <point x="1304.3064516129032" y="439.19999999999993"/>
      <point x="1279.4" y="429.6000000000001"/>
      <point x="1248.0" y="387.7" type="curve" smooth="yes"/>
      <point x="1164.6" y="257.7"/>
      <point x="1045.2044164037857" y="187.20000000000002"/>
      <point x="896.9" y="187.20000000000002" type="curve" smooth="yes"/>
      <point x="640.9786413755879" y="187.20000000000002"/>
      <point x="458.7" y="387.79999999999995"/>
      <point x="458.7" y="757.3" type="curve" smooth="yes"/>
      <point x="458.7" y="1074.33488372093"/>
      <point x="592.6634831460674" y="1286.9"/>
      <point x="809.8000000000001" y="1286.9" type="curve" smooth="yes"/>
      <point x="962.6" y="1286.9"/>
      <point x="1092.7866673186188" y="1216.3214717765136"/>
      <point x="1196.6" y="986.9" type="curve" smooth="yes"/>
      <point x="1217.5000000000002" y="940.3"/>
      <point x="1255.0000000000002" y="925.3"/>
      <point x="1295.8999999999999" y="932.8999999999999" type="curve" smooth="yes"/>
      <point x="1340.3" y="940.9"/>
      <point x="1368.3999999999999" y="977.0"/>
      <point x="1355.5" y="1021.0999999999999" type="curve" smooth="yes"/>
      <point x="1255.1" y="1357.7" type="line" smooth="yes"/>
      <point x="1239.8999999999999" y="1409.9000000000003"/>
      <point x="1224.1" y="1430.4"/>
      <point x="1185.6000000000001" y="1430.4" type="curve" smooth="yes"/>
      <point x="1134.8" y="1430.4"/>
      <point x="1119.0000000000002" y="1367.9"/>
      <point x="1068.1" y="1367.9" type="curve" smooth="yes"/>
      <point x="1017.8999999999999" y="1367.9"/>
      <point x="950.5000000000001" y="1437.6"/>
      <point x="756.9000000000001" y="1437.6" type="curve" smooth="yes"/>
      <point x="369.8" y="1437.6"/>
      <point x="70.0" y="1119.8999999999999"/>
      <point x="70.0" y="696.3000000000001" type="curve" smooth="yes"/>
      <point x="70.0" y="264.2836565096953"/>
      <point x="346.77576687116573" y="-38.8"/>
      <point x="784.4999999999999" y="-38.8" type="curve" smooth="yes"/>
      <point x="1151.5035108135476" y="-38.8"/>
      <point x="1367.3000088772817" y="195.40025966049387"/>
    </contour>
  </outline>
</glyph>
<glyph name="D" format="2">
  <advance width="1642.2"/>
  <unicode hex="0044"/>
  <anchor x="806.1999999999999" y="1489.0" name="center"/>
  <outline>
    <contour>
      <point x="92.39999999999999" y="71.99999999999999" type="curve" smooth="yes"/>
      <point x="92.39999999999999" y="27.399999999999995"/>
      <point x="119.5" y="0.0"/>
      <point x="178.7" y="0.0" type="curve" smooth="yes"/>
      <point x="841.8000000000001" y="0.0" type="line" smooth="yes"/>
      <point x="1295.5" y="0.0"/>
      <point x="1574.4" y="277.1"/>
      <point x="1574.4" y="652.9" type="curve" smooth="yes"/>
      <point x="1574.4" y="1090.3"/>
      <point x="1243.8" y="1400.0"/>
      <point x="748.2" y="1400.0" type="curve" smooth="yes"/>
      <point x="178.7" y="1400.0" type="line" smooth="yes"/>
      <point x="119.89999999999999" y="1400.0"/>
      <point x="92.39999999999999" y="1372.5999999999997"/>
      <point x="92.39999999999999" y="1328.0" type="curve" smooth="yes"/>
      <point x="92.39999999999999" y="1291.0000000000002"/>
      <point x="109.0" y="1266.1"/>
      <point x="146.3" y="1250.1000000000001" type="curve" smooth="yes"/>
      <point x="187.9" y="1235.6000000000001" type="line" smooth="yes"/>
      <point x="221.79999999999998" y="1222.6"/>
      <point x="242.2" y="1203.1000000000001"/>
      <point x="242.2" y="1161.3999999999999" type="curve" smooth="yes"/>
      <point x="242.2" y="238.6" type="line" smooth="yes"/>
      <point x="242.2" y="196.9"/>
      <point x="221.8" y="177.4"/>
      <point x="187.9" y="164.4" type="curve" smooth="yes"/>
      <point x="146.29999999999998" y="149.89999999999998" type="line" smooth="yes"/>
      <point x="109.0" y="133.89999999999998"/>
      <point x="92.39999999999999" y="109.0"/>
    </contour>
    <contour>
      <point x="801.9999999999999" y="151.10000000000002" type="curve" smooth="yes"/>
      <point x="754.4" y="151.10000000000002" type="line" smooth="yes"/>
      <point x="672.1" y="151.10000000000002"/>
      <point x="629.5999999999999" y="187.10000000000002"/>
      <point x="629.5999999999999" y="272.20000000000005" type="curve" smooth="yes"/>
      <point x="629.5999999999999" y="1248.8999999999999" type="line"/>
      <point x="709.1" y="1248.8999999999999" type="line" smooth="yes"/>
      <point x="997.5" y="1248.8999999999999"/>
      <point x="1175.0" y="1018.8999999999999"/>
      <point x="1175.0" y="660.4000000000001" type="curve" smooth="yes"/>
      <point x="1175.0" y="316.2"/>
      <point x="1020.8" y="151.10000000000002"/>
    </contour>
  </outline>
</glyph>
<glyph name="E" format="2">
  <advance width="1367.1"/>
  <unicode hex="0045"/>
  <anchor x="681.1999999999999" y="1474.0" name="center"/>
  <outline>
    <contour>
      <point x="465.1" y="772.9000000000001" type="line"/>
      <point x="465.1" y="630.8999999999999" type="line"/>
      <point x="804.6999999999999" y="630.8999999999999" type="line" smooth="yes"/>
      <point x="900.2" y="630.8999999999999"/>
      <point x="927.4" y="612.9999999999999"/>
      <point x="977.3000000000001" y="536.3" type="curve" smooth="yes"/>
      <point x="1000.3999999999999" y="502.3"/>
      <point x="1033.3999999999999" y="490.3999999999999"/>
      <point x="1068.5" y="502.2" type="curve" smooth="yes"/>
      <point x="1108.1000000000001" y="515.3"/>
      <point x="1123.4" y="545.1999999999999"/>
      <point x="1110.8999999999999" y="596.4000000000001" type="curve" smooth="yes"/>
      <point x="1040.0000000000002" y="878.9000000000001" type="line" smooth="yes"/>
      <point x="1030.3" y="919.0"/>
      <point x="1005.9" y="939.5999999999999"/>
      <point x="969.4" y="938.9" type="curve" smooth="yes"/>
      <point x="936.6" y="938.1999999999999"/>
      <point x="911.6" y="919.1"/>
      <point x="900.7" y="879.1" type="curve" smooth="yes"/>
      <point x="881.0" y="799.5"/>
      <point x="861.5999999999999" y="772.9000000000001"/>
      <point x="782.0" y="772.9000000000001" type="curve" smooth="yes"/>
    </contour>
    <contour>
      <point x="92.39999999999999" y="1328.0000000000002" type="curve" smooth="yes"/>
      <point x="92.39999999999999" y="1291.0"/>
      <point x="109.0" y="1266.1000000000001"/>
      <point x="146.3" y="1250.1000000000001" type="curve" smooth="yes"/>
      <point x="187.9" y="1235.6000000000001" type="line" smooth="yes"/>
      <point x="221.8" y="1222.6000000000001"/>
      <point x="242.2" y="1203.1"/>
      <point x="242.2" y="1161.4" type="curve" smooth="yes"/>
      <point x="242.2" y="238.6" type="line" smooth="yes"/>
      <point x="242.2" y="196.9"/>
      <point x="221.8" y="177.4"/>
      <point x="187.9" y="164.4" type="curve" smooth="yes"/>
      <point x="146.3" y="149.89999999999998" type="line" smooth="yes"/>
      <point x="109.0" y="133.9"/>
      <point x="92.39999999999999" y="109.0"/>
      <point x="92.39999999999999" y="71.99999999999999" type="curve" smooth="yes"/>
      <point x="92.39999999999999" y="27.4"/>
      <point x="119.49999999999999" y="0.0"/>
      <point x="178.7" y="0.0" type="curve" smooth="yes"/>
      <point x="953.9000000000001" y="0.0" type="line" smooth="yes"/>
      <point x="1039.6" y="0.0"/>
      <point x="1077.8" y="-36.599999999999994"/>
      <point x="1135.8000000000002" y="-36.599999999999994" type="curve" smooth="yes"/>
      <point x="1200.3" y="-36.599999999999994"/>
      <point x="1226.9" y="-2.5000000000000013"/>
      <point x="1247.7" y="71.3" type="curve" smooth="yes"/>
      <point x="1323.5" y="350.99999999999994" type="line" smooth="yes"/>
      <point x="1338.3999999999999" y="404.4"/>
      <point x="1315.0" y="442.2"/>
      <point x="1267.6" y="452.0" type="curve" smooth="yes"/>
      <point x="1225.0" y="460.20000000000005"/>
      <point x="1190.0" y="444.6"/>
      <point x="1171.1000000000001" y="399.40000000000003" type="curve" smooth="yes"/>
      <point x="1079.8" y="190.3"/>
      <point x="1008.1999999999999" y="151.20000000000002"/>
      <point x="872.2" y="151.20000000000002" type="curve" smooth="yes"/>
      <point x="763.1999999999999" y="151.20000000000002" type="line" smooth="yes"/>
      <point x="676.0" y="151.20000000000002"/>
      <point x="629.6" y="194.20000000000002"/>
      <point x="629.6" y="280.7" type="curve" smooth="yes"/>
      <point x="629.6" y="1248.8" type="line"/>
      <point x="848.0" y="1248.8" type="line" smooth="yes"/>
      <point x="970.3" y="1248.8"/>
      <point x="1036.9" y="1220.8000000000002"/>
      <point x="1125.1" y="1037.8000000000002" type="curve" smooth="yes"/>
      <point x="1148.4" y="988.5"/>
      <point x="1187.3999999999999" y="974.5999999999999"/>
      <point x="1228.6000000000001" y="984.9999999999999" type="curve" smooth="yes"/>
      <point x="1271.8999999999999" y="995.5"/>
      <point x="1295.3" y="1028.8999999999999"/>
      <point x="1282.3" y="1074.3" type="curve" smooth="yes"/>
      <point x="1208.1000000000001" y="1331.4" type="line" smooth="yes"/>
      <point x="1186.0000000000002" y="1407.1"/>
      <point x="1160.5000000000002" y="1439.1000000000001"/>
      <point x="1098.1999999999998" y="1439.1000000000001" type="curve" smooth="yes"/>
      <point x="1036.3000000000002" y="1439.1000000000001"/>
      <point x="999.8000000000001" y="1400.0"/>
      <point x="913.2" y="1400.0" type="curve" smooth="yes"/>
      <point x="178.7" y="1400.0" type="line" smooth="yes"/>
      <point x="119.49999999999999" y="1400.0"/>
      <point x="92.39999999999999" y="1372.6"/>
    </contour>
  </outline>
</glyph>
<glyph name="F" format="2">
  <advance width="1282.7"/>
  <unicode hex="0046"/>
  <outline>
    <contour>
      <point x="875.1" y="1400.0" type="curve" smooth="yes"/>
      <point x="178.7" y="1400.0" type="line" smooth="yes"/>
      <point x="119.49999999999999" y="1400.0"/>
      <point x="92.39999999999999" y="1372.6"/>
      <point x="92.39999999999999" y="1328.0000000000002" type="curve" smooth="yes"/>
      <point x="92.39999999999999" y="1291.0"/>
      <point x="109.0" y="1266.1000000000001"/>
      <point x="146.3" y="1250.1000000000001" type="curve" smooth="yes"/>
      <point x="187.9" y="1235.6000000000001" type="line" smooth="yes"/>
      <point x="221.8" y="1222.6000000000001"/>
      <point x="242.2" y="1203.1"/>
      <point x="242.2" y="1161.4" type="curve" smooth="yes"/>
      <point x="242.2" y="238.6" type="line" smooth="yes"/>
      <point x="242.2" y="196.89999999999998"/>
      <point x="221.79999999999998" y="177.4"/>
      <point x="187.9" y="164.4" type="curve" smooth="yes"/>
      <point x="146.3" y="149.89999999999998" type="line" smooth="yes"/>
      <point x="109.0" y="133.9"/>
      <point x="92.39999999999999" y="109.0"/>
      <point x="92.39999999999999" y="71.99999999999999" type="curve" smooth="yes"/>
      <point x="92.39999999999999" y="27.4"/>
      <point x="119.49999999999999" y="0.0"/>
      <point x="178.7" y="0.0" type="curve" smooth="yes"/>
      <point x="725.6" y="0.0" type="line" smooth="yes"/>
      <point x="784.8" y="0.0"/>
      <point x="811.9" y="27.4"/>
      <point x="811.9" y="71.99999999999999" type="curve" smooth="yes"/>
      <point x="811.9" y="111.80000000000001"/>
      <point x="794.5000000000001" y="135.0"/>
      <point x="754.8" y="147.1" type="curve" smooth="yes"/>
      <point x="685.5" y="164.4" type="line" smooth="yes"/>
      <point x="647.9999999999999" y="174.5"/>
      <point x="629.5999999999999" y="196.49999999999997"/>
      <point x="629.5999999999999" y="238.99999999999997" type="curve" smooth="yes"/>
      <point x="629.5999999999999" y="1248.7999999999997" type="line"/>
      <point x="812.1" y="1248.7999999999997" type="line" smooth="yes"/>
      <point x="935.1999999999999" y="1248.7999999999997"/>
      <point x="1002.5455536379599" y="1217.0872839470992"/>
      <point x="1090.2999999999997" y="1028.2" type="curve" smooth="yes"/>
      <point x="1113.2000000000003" y="978.5"/>
      <point x="1149.8" y="968.6999999999999"/>
      <point x="1185.7" y="974.6" type="curve" smooth="yes"/>
      <point x="1230.2" y="982.0"/>
      <point x="1259.2" y="1015.0"/>
      <point x="1246.8999999999999" y="1058.0000000000002" type="curve" smooth="yes"/>
      <point x="1169.6000000000001" y="1331.4" type="line" smooth="yes"/>
      <point x="1148.3" y="1405.9"/>
      <point x="1122.1" y="1437.1000000000001"/>
      <point x="1058.3" y="1437.1000000000001" type="curve" smooth="yes"/>
      <point x="1002.9" y="1437.1000000000001"/>
      <point x="963.2" y="1400.0"/>
    </contour>
    <contour>
      <point x="472.40000000000003" y="730.5" type="line"/>
      <point x="472.40000000000003" y="588.5" type="line"/>
      <point x="816.8" y="588.5" type="line" smooth="yes"/>
      <point x="913.0" y="588.5"/>
      <point x="940.0138477245833" y="569.3678040403439"/>
      <point x="987.9" y="497.1" type="curve" smooth="yes"/>
      <point x="1013.3999999999999" y="460.70000000000005"/>
      <point x="1045.6" y="448.0"/>
      <point x="1081.1000000000001" y="460.2" type="curve" smooth="yes"/>
      <point x="1119.1000000000001" y="473.3"/>
      <point x="1136.0" y="502.0000000000001"/>
      <point x="1123.5000000000002" y="552.8000000000001" type="curve" smooth="yes"/>
      <point x="1052.9000000000003" y="836.4999999999999" type="line" smooth="yes"/>
      <point x="1043.1999999999998" y="877.0000000000001"/>
      <point x="1017.6" y="895.6"/>
      <point x="980.7" y="894.9000000000001" type="curve" smooth="yes"/>
      <point x="948.3000000000001" y="894.2"/>
      <point x="924.1" y="877.1000000000001"/>
      <point x="913.2" y="839.1" type="curve" smooth="yes"/>
      <point x="891.5" y="757.0999999999999"/>
      <point x="871.7" y="730.5"/>
      <point x="790.0999999999999" y="730.5" type="curve" smooth="yes"/>
    </contour>
  </outline>
</glyph>
<glyph name="G" format="2">
  <advance width="1560.5"/>
  <unicode hex="0047"/>
  <anchor x="792.0" y="1544.0" name="center"/>
  <outline>
    <contour>
      <point x="1373.0" y="46.300000000000004" type="curve" smooth="yes"/>
      <point x="1373.0" y="462.3" type="line" smooth="yes"/>
      <point x="1373.0" y="502.8"/>
      <point x="1394.1" y="519.1"/>
      <point x="1426.8999999999999" y="531.3" type="curve" smooth="yes"/>
      <point x="1454.7" y="540.8" type="line" smooth="yes"/>
      <point x="1490.0" y="556.2"/>
      <point x="1508.3999999999999" y="576.6"/>
      <point x="1508.3999999999999" y="611.5" type="curve" smooth="yes"/>
      <point x="1508.3999999999999" y="652.5"/>
      <point x="1481.4" y="679.4"/>
      <point x="1421.4" y="679.4" type="curve" smooth="yes"/>
      <point x="945.0" y="679.4" type="line" smooth="yes"/>
      <point x="885.6999999999999" y="679.4"/>
      <point x="858.3" y="653.3"/>
      <point x="858.3" y="610.6999999999999" type="curve" smooth="yes"/>
      <point x="858.3" y="573.3"/>
      <point x="884.7" y="552.6999999999999"/>
      <point x="926.1" y="537.6" type="curve" smooth="yes"/>
      <point x="972.0" y="524.0999999999999" type="line" smooth="yes"/>
      <point x="1012.8000000000001" y="511.3"/>
      <point x="1028.6" y="498.0"/>
      <point x="1028.6" y="462.3" type="curve" smooth="yes"/>
      <point x="1028.6" y="263.59999999999997" type="line" smooth="yes"/>
      <point x="1028.6" y="195.47055555555556"/>
      <point x="981.9" y="154.6"/>
      <point x="880.4" y="154.6" type="curve" smooth="yes"/>
      <point x="644.5578778135048" y="154.6"/>
      <point x="458.4" y="370.4458333333333"/>
      <point x="458.4" y="757.7" type="curve" smooth="yes"/>
      <point x="458.4" y="1085.442735042735"/>
      <point x="611.0938165864635" y="1286.9"/>
      <point x="842.5" y="1286.9" type="curve" smooth="yes"/>
      <point x="1003.7378132623642" y="1286.9"/>
      <point x="1152.1011045052269" y="1217.1986936990306"/>
      <point x="1259.6000000000001" y="986.9" type="curve" smooth="yes"/>
      <point x="1281.7" y="939.9000000000001"/>
      <point x="1318.0000000000002" y="925.3"/>
      <point x="1358.9" y="932.9" type="curve" smooth="yes"/>
      <point x="1403.3" y="940.9"/>
      <point x="1431.4" y="977.0"/>
      <point x="1418.4999999999998" y="1021.1" type="curve" smooth="yes"/>
      <point x="1318.1000000000001" y="1357.7" type="line" smooth="yes"/>
      <point x="1302.8000000000002" y="1410.1"/>
      <point x="1287.1" y="1430.4"/>
      <point x="1249.0" y="1430.4" type="curve" smooth="yes"/>
      <point x="1197.8" y="1430.4"/>
      <point x="1182.4" y="1367.9"/>
      <point x="1130.7000000000003" y="1367.9" type="curve" smooth="yes"/>
      <point x="1076.6383642395604" y="1367.9"/>
      <point x="998.050629823944" y="1437.6"/>
      <point x="789.3000000000001" y="1437.6" type="curve" smooth="yes"/>
      <point x="382.2215286679245" y="1437.6"/>
      <point x="70.0" y="1121.5"/>
      <point x="70.0" y="698.7" type="curve" smooth="yes"/>
      <point x="70.0" y="255.20000000000002"/>
      <point x="328.70000000000005" y="-38.0"/>
      <point x="765.2" y="-38.0" type="curve" smooth="yes"/>
      <point x="978.4" y="-38.0"/>
      <point x="1069.71843575419" y="65.4"/>
      <point x="1128.1999999999998" y="65.4" type="curve" smooth="yes"/>
      <point x="1181.9" y="65.4"/>
      <point x="1215.7000000000003" y="-38.800000000000004"/>
      <point x="1293.9999999999998" y="-38.800000000000004" type="curve" smooth="yes"/>
      <point x="1347.0" y="-38.800000000000004"/>
      <point x="1373.0" y="-11.899999999999999"/>
    </contour>
  </outline>
</glyph>
<glyph name="H" format="2">
  <advance width="1757.0"/>
  <unicode hex="0048"/>
  <outline>
    <contour>
      <point x="403.09999999999997" y="741.0" type="line"/>
      <point x="403.09999999999997" y="587.2" type="line"/>
      <point x="1273.8000000000002" y="587.2" type="line"/>
      <point x="1273.8000000000002" y="741.0" type="line"/>
    </contour>
    <contour>
      <point x="629.1999999999999" y="238.6" type="curve" smooth="yes"/>
      <point x="629.1999999999999" y="1161.3999999999999" type="line" smooth="yes"/>
      <point x="629.1999999999999" y="1203.1"/>
      <point x="649.5999999999999" y="1222.6000000000001"/>
      <point x="683.5" y="1235.5999999999997" type="curve" smooth="yes"/>
      <point x="725.1" y="1250.1000000000001" type="line" smooth="yes"/>
      <point x="762.4" y="1266.1"/>
      <point x="779.0" y="1290.6000000000001"/>
      <point x="779.0" y="1328.0000000000002" type="curve" smooth="yes"/>
      <point x="779.0" y="1372.6"/>
      <point x="751.9" y="1400.0"/>
      <point x="692.6999999999999" y="1400.0" type="curve" smooth="yes"/>
      <point x="178.49999999999997" y="1400.0" type="line" smooth="yes"/>
      <point x="119.3" y="1400.0"/>
      <point x="92.19999999999999" y="1372.6"/>
      <point x="92.19999999999999" y="1328.0000000000002" type="curve" smooth="yes"/>
      <point x="92.19999999999999" y="1291.0"/>
      <point x="108.8" y="1266.1"/>
      <point x="146.1" y="1250.1000000000001" type="curve" smooth="yes"/>
      <point x="187.70000000000002" y="1235.5999999999997" type="line" smooth="yes"/>
      <point x="221.60000000000002" y="1222.6000000000001"/>
      <point x="242.0" y="1203.1"/>
      <point x="242.0" y="1161.3999999999999" type="curve" smooth="yes"/>
      <point x="242.0" y="238.6" type="line" smooth="yes"/>
      <point x="242.0" y="196.89999999999998"/>
      <point x="221.59999999999997" y="177.4"/>
      <point x="187.70000000000002" y="164.39999999999998" type="curve" smooth="yes"/>
      <point x="146.1" y="149.89999999999998" type="line" smooth="yes"/>
      <point x="108.80000000000001" y="133.9"/>
      <point x="92.19999999999999" y="109.0"/>
      <point x="92.19999999999999" y="71.99999999999999" type="curve" smooth="yes"/>
      <point x="92.19999999999999" y="27.4"/>
      <point x="119.3" y="0.0"/>
      <point x="178.49999999999997" y="0.0" type="curve" smooth="yes"/>
      <point x="692.6999999999999" y="0.0" type="line" smooth="yes"/>
      <point x="751.9" y="0.0"/>
      <point x="779.0" y="27.4"/>
      <point x="779.0" y="71.99999999999999" type="curve" smooth="yes"/>
      <point x="779.0" y="109.39999999999999"/>
      <point x="762.4" y="133.9"/>
      <point x="725.1" y="149.89999999999998" type="curve" smooth="yes"/>
      <point x="683.5" y="164.39999999999998" type="line" smooth="yes"/>
      <point x="649.6" y="177.4"/>
      <point x="629.1999999999999" y="196.89999999999998"/>
    </contour>
    <contour>
      <point x="1515.0" y="238.6" type="curve" smooth="yes"/>
      <point x="1515.0" y="1161.3999999999999" type="line" smooth="yes"/>
      <point x="1515.0" y="1203.1"/>
      <point x="1535.3999999999999" y="1222.6000000000001"/>
      <point x="1569.3000000000002" y="1235.5999999999997" type="curve" smooth="yes"/>
      <point x="1610.8999999999999" y="1250.1000000000001" type="line" smooth="yes"/>
      <point x="1648.2" y="1266.1"/>
      <point x="1664.8" y="1290.6000000000001"/>
      <point x="1664.8" y="1328.0000000000002" type="curve" smooth="yes"/>
      <point x="1664.8" y="1372.6"/>
      <point x="1637.7" y="1400.0"/>
      <point x="1578.4999999999998" y="1400.0" type="curve" smooth="yes"/>
      <point x="1064.3000000000002" y="1400.0" type="line" smooth="yes"/>
      <point x="1005.1" y="1400.0"/>
      <point x="978.0" y="1372.6"/>
      <point x="978.0" y="1328.0000000000002" type="curve" smooth="yes"/>
      <point x="978.0" y="1291.0"/>
      <point x="994.5999999999999" y="1266.1"/>
      <point x="1031.8999999999999" y="1250.1000000000001" type="curve" smooth="yes"/>
      <point x="1073.5" y="1235.5999999999997" type="line" smooth="yes"/>
      <point x="1107.3999999999999" y="1222.6000000000001"/>
      <point x="1127.8" y="1203.1"/>
      <point x="1127.8" y="1161.3999999999999" type="curve" smooth="yes"/>
      <point x="1127.8" y="238.6" type="line" smooth="yes"/>
      <point x="1127.8" y="196.89999999999998"/>
      <point x="1107.4" y="177.4"/>
      <point x="1073.5" y="164.39999999999998" type="curve" smooth="yes"/>
      <point x="1031.8999999999999" y="149.89999999999998" type="line" smooth="yes"/>
      <point x="994.6" y="133.9"/>
      <point x="978.0" y="109.0"/>
      <point x="978.0" y="71.99999999999999" type="curve" smooth="yes"/>
      <point x="978.0" y="27.4"/>
      <point x="1005.1" y="0.0"/>
      <point x="1064.3000000000002" y="0.0" type="curve" smooth="yes"/>
      <point x="1578.4999999999998" y="0.0" type="line" smooth="yes"/>
      <point x="1637.7" y="0.0"/>
      <point x="1664.8" y="27.4"/>
      <point x="1664.8" y="71.99999999999999" type="curve" smooth="yes"/>
      <point x="1664.8" y="109.39999999999999"/>
      <point x="1648.2" y="133.9"/>
      <point x="1610.8999999999999" y="149.89999999999998" type="curve" smooth="yes"/>
      <point x="1569.3000000000002" y="164.39999999999998" type="line" smooth="yes"/>
      <point x="1535.4000000000003" y="177.4"/>
      <point x="1515.0" y="196.89999999999998"/>
    </contour>
  </outline>
</glyph>
<glyph name="I" format="2">
  <advance width="869.4"/>
  <unicode hex="0049"/>
  <outline>
    <contour>
      <point x="628.4" y="238.6" type="curve" smooth="yes"/>
      <point x="628.4" y="1161.3999999999999" type="line" smooth="yes"/>
      <point x="628.4" y="1203.1"/>
      <point x="648.8000000000001" y="1222.6000000000001"/>
      <point x="682.6999999999998" y="1235.5999999999997" type="curve" smooth="yes"/>
      <point x="724.3" y="1250.1000000000001" type="line" smooth="yes"/>
      <point x="761.6" y="1266.1"/>
      <point x="778.1999999999999" y="1290.6000000000001"/>
      <point x="778.1999999999999" y="1328.0000000000002" type="curve" smooth="yes"/>
      <point x="778.1999999999999" y="1372.6"/>
      <point x="751.1" y="1400.0"/>
      <point x="691.9000000000001" y="1400.0" type="curve" smooth="yes"/>
      <point x="177.50000000000003" y="1400.0" type="line" smooth="yes"/>
      <point x="118.3" y="1400.0"/>
      <point x="91.2" y="1372.6"/>
      <point x="91.2" y="1328.0000000000002" type="curve" smooth="yes"/>
      <point x="91.2" y="1291.0"/>
      <point x="107.80000000000001" y="1266.1"/>
      <point x="145.1" y="1250.1000000000001" type="curve" smooth="yes"/>
      <point x="186.7" y="1235.5999999999997" type="line" smooth="yes"/>
      <point x="220.60000000000002" y="1222.6000000000001"/>
      <point x="241.0" y="1203.1"/>
      <point x="241.0" y="1161.3999999999999" type="curve" smooth="yes"/>
      <point x="241.0" y="238.6" type="line" smooth="yes"/>
      <point x="241.0" y="196.89999999999998"/>
      <point x="220.6" y="177.4"/>
      <point x="186.7" y="164.39999999999998" type="curve" smooth="yes"/>
      <point x="145.1" y="149.89999999999998" type="line" smooth="yes"/>
      <point x="107.79999999999998" y="133.9"/>
      <point x="91.2" y="109.0"/>
      <point x="91.2" y="71.99999999999999" type="curve" smooth="yes"/>
      <point x="91.2" y="27.4"/>
      <point x="118.3" y="0.0"/>
      <point x="177.50000000000003" y="0.0" type="curve" smooth="yes"/>
      <point x="691.9000000000001" y="0.0" type="line" smooth="yes"/>
      <point x="751.1" y="0.0"/>
      <point x="778.1999999999999" y="27.4"/>
      <point x="778.1999999999999" y="71.99999999999999" type="curve" smooth="yes"/>
      <point x="778.1999999999999" y="109.39999999999999"/>
      <point x="761.5999999999999" y="133.9"/>
      <point x="724.3" y="149.89999999999998" type="curve" smooth="yes"/>
      <point x="682.6999999999998" y="164.39999999999998" type="line" smooth="yes"/>
      <point x="648.7999999999998" y="177.4"/>
      <point x="628.4" y="196.89999999999998"/>
    </contour>
  </outline>
</glyph>
<glyph name="J" format="2">
  <advance width="1117.6"/>
  <unicode hex="004A"/>
  <anchor x="669.8000000000001" y="1463.1999999999998" name="center"/>
  <outline>
    <contour>
      <point x="967.1999999999999" y="261.29999999999995" type="curve" smooth="yes"/>
      <point x="967.1999999999999" y="408.3"/>
      <point x="877.5999999999999" y="461.7"/>
      <point x="877.5999999999999" y="667.5" type="curve" smooth="yes"/>
      <point x="877.5999999999999" y="1161.3999999999999" type="line" smooth="yes"/>
      <point x="877.5999999999999" y="1203.1000000000001"/>
      <point x="898.0" y="1222.6"/>
      <point x="931.9000000000001" y="1235.6" type="curve" smooth="yes"/>
      <point x="973.5" y="1250.1000000000001" type="line" smooth="yes"/>
      <point x="1010.8" y="1266.1"/>
      <point x="1027.4" y="1290.6"/>
      <point x="1027.4" y="1327.9999999999998" type="curve" smooth="yes"/>
      <point x="1027.4" y="1372.6"/>
      <point x="1000.3" y="1400.0"/>
      <point x="941.0999999999999" y="1400.0" type="curve" smooth="yes"/>
      <point x="398.7" y="1400.0" type="line" smooth="yes"/>
      <point x="339.5" y="1400.0"/>
      <point x="312.4" y="1372.6000000000001"/>
      <point x="312.4" y="1327.9999999999998" type="curve" smooth="yes"/>
      <point x="312.4" y="1287.4000000000003"/>
      <point x="329.8" y="1261.2999999999997"/>
      <point x="371.5" y="1249.7" type="curve" smooth="yes"/>
      <point x="427.9" y="1235.6" type="line" smooth="yes"/>
      <point x="469.0" y="1224.6"/>
      <point x="490.2" y="1203.5000000000002"/>
      <point x="490.2" y="1161.4" type="curve" smooth="yes"/>
      <point x="490.2" y="635.4" type="line" smooth="yes"/>
      <point x="490.2" y="394.5046653144016"/>
      <point x="627.6000000000001" y="322.14766734279914"/>
      <point x="627.6000000000001" y="196.4" type="curve" smooth="yes"/>
      <point x="627.6000000000001" y="125.77920792079209"/>
      <point x="582.571797179718" y="86.29999999999998"/>
      <point x="511.8" y="86.29999999999998" type="curve" smooth="yes"/>
      <point x="439.29999999999995" y="86.29999999999998"/>
      <point x="407.40000000000003" y="127.61081568190262"/>
      <point x="407.40000000000003" y="199.39999999999998" type="curve" smooth="yes"/>
      <point x="407.40000000000003" y="281.8" type="line" smooth="yes"/>
      <point x="407.40000000000003" y="400.5846153846154"/>
      <point x="338.11821870561977" y="468.5"/>
      <point x="241.8" y="468.5" type="curve" smooth="yes"/>
      <point x="133.18671980748985" y="468.5"/>
      <point x="63.2" y="389.0"/>
      <point x="63.2" y="271.1" type="curve" smooth="yes"/>
      <point x="63.2" y="81.65940594059404"/>
      <point x="224.9930729550479" y="-34.0"/>
      <point x="498.9" y="-34.0" type="curve" smooth="yes"/>
      <point x="788.7470588235294" y="-34.0"/>
      <point x="967.1999999999999" y="83.55804878048781"/>
    </contour>
  </outline>
</glyph>
<glyph name="K" format="2">
  <advance width="1661.7"/>
  <unicode hex="004B"/>
  <anchor x="863.8" y="1460.0" name="center"/>
  <outline>
    <contour>
      <point x="499.1000000000001" y="563.6999999999999" type="line"/>
      <point x="560.8" y="424.59999999999997" type="line"/>
      <point x="1280.7" y="1087.3000000000002" type="line" smooth="yes"/>
      <point x="1414.1" y="1208.1"/>
      <point x="1439.1000000000001" y="1228.4"/>
      <point x="1483.2000000000003" y="1245.4" type="curve" smooth="yes"/>
      <point x="1543.1" y="1270.0"/>
      <point x="1566.8999999999999" y="1289.8999999999999"/>
      <point x="1566.8999999999999" y="1328.0" type="curve" smooth="yes"/>
      <point x="1566.8999999999999" y="1372.6000000000001"/>
      <point x="1539.6999999999998" y="1400.0"/>
      <point x="1480.2" y="1400.0" type="curve" smooth="yes"/>
      <point x="1073.0" y="1400.0" type="line" smooth="yes"/>
      <point x="1013.7999999999998" y="1400.0"/>
      <point x="986.4" y="1372.7"/>
      <point x="986.4" y="1328.0" type="curve" smooth="yes"/>
      <point x="986.4" y="1291.1000000000001"/>
      <point x="1003.3000000000001" y="1268.3999999999999"/>
      <point x="1040.1" y="1251.8000000000002" type="curve" smooth="yes"/>
      <point x="1081.0" y="1237.4999999999998" type="line" smooth="yes"/>
      <point x="1135.7" y="1214.3000000000002"/>
      <point x="1140.9000000000003" y="1175.3"/>
      <point x="1067.1" y="1105.8000000000002" type="curve" smooth="yes"/>
    </contour>
    <contour>
      <point x="733.8" y="718.4000000000001" type="line"/>
      <point x="1037.4" y="240.49999999999997" type="line" smooth="yes"/>
      <point x="1067.7348473491857" y="191.88800124546253"/>
      <point x="1068.2246962316844" y="168.4164641544562"/>
      <point x="1041.1" y="156.9" type="curve" smooth="yes"/>
      <point x="1006.5" y="145.9" type="line" smooth="yes"/>
      <point x="978.5" y="132.89999999999998"/>
      <point x="960.2" y="109.80000000000003"/>
      <point x="960.2" y="72.39999999999999" type="curve" smooth="yes"/>
      <point x="960.2" y="27.400000000000002"/>
      <point x="987.5" y="0.0"/>
      <point x="1046.9" y="0.0" type="curve" smooth="yes"/>
      <point x="1555.3" y="0.0" type="line" smooth="yes"/>
      <point x="1614.6" y="0.0"/>
      <point x="1642.1" y="27.400000000000002"/>
      <point x="1642.1" y="71.89999999999999" type="curve" smooth="yes"/>
      <point x="1642.1" y="107.88000000000001"/>
      <point x="1626.9193709304022" y="136.78837744175857"/>
      <point x="1581.6000000000001" y="157.9" type="curve" smooth="yes"/>
      <point x="1553.2666636750523" y="168.0242441920144"/>
      <point x="1525.2031050671835" y="182.17587687443324"/>
      <point x="1494.8" y="229.29999999999998" type="curve" smooth="yes"/>
      <point x="1025.8" y="957.9999999999999" type="line"/>
    </contour>
    <contour>
      <point x="629.5999999999999" y="238.6" type="curve" smooth="yes"/>
      <point x="629.5999999999999" y="1161.4" type="line" smooth="yes"/>
      <point x="629.5999999999999" y="1203.1"/>
      <point x="650.0000000000001" y="1222.6000000000001"/>
      <point x="683.8999999999999" y="1235.6000000000001" type="curve" smooth="yes"/>
      <point x="725.5000000000001" y="1250.1000000000001" type="line" smooth="yes"/>
      <point x="762.8" y="1266.1"/>
      <point x="779.4" y="1290.6000000000001"/>
      <point x="779.4" y="1328.0000000000002" type="curve" smooth="yes"/>
      <point x="779.4" y="1372.3999999999999"/>
      <point x="752.3" y="1400.0"/>
      <point x="693.0999999999999" y="1400.0" type="curve" smooth="yes"/>
      <point x="178.7" y="1400.0" type="line" smooth="yes"/>
      <point x="119.49999999999999" y="1400.0"/>
      <point x="92.39999999999999" y="1372.6"/>
      <point x="92.39999999999999" y="1328.0000000000002" type="curve" smooth="yes"/>
      <point x="92.39999999999999" y="1291.0"/>
      <point x="109.0" y="1266.1000000000001"/>
      <point x="146.3" y="1250.1000000000001" type="curve" smooth="yes"/>
      <point x="187.9" y="1235.6000000000001" type="line" smooth="yes"/>
      <point x="221.79999999999998" y="1222.6"/>
      <point x="242.2" y="1203.1"/>
      <point x="242.2" y="1161.4" type="curve" smooth="yes"/>
      <point x="242.2" y="238.6" type="line" smooth="yes"/>
      <point x="242.2" y="196.9"/>
      <point x="221.8" y="177.40000000000003"/>
      <point x="187.9" y="164.4" type="curve" smooth="yes"/>
      <point x="146.3" y="149.89999999999998" type="line" smooth="yes"/>
      <point x="109.0" y="133.9"/>
      <point x="92.39999999999999" y="109.0"/>
      <point x="92.39999999999999" y="71.99999999999999" type="curve" smooth="yes"/>
      <point x="92.39999999999999" y="27.4"/>
      <point x="119.49999999999999" y="0.0"/>
      <point x="178.7" y="0.0" type="curve" smooth="yes"/>
      <point x="673.1" y="0.0" type="line" smooth="yes"/>
      <point x="731.9000000000001" y="0.0"/>
      <point x="759.4000000000001" y="27.599999999999994"/>
      <point x="759.4000000000001" y="71.99999999999999" type="curve" smooth="yes"/>
      <point x="759.4000000000001" y="107.8"/>
      <point x="744.8" y="130.3"/>
      <point x="705.9" y="149.49999999999997" type="curve" smooth="yes"/>
      <point x="676.3" y="160.0" type="line" smooth="yes"/>
      <point x="642.8000000000001" y="175.00000000000003"/>
      <point x="629.5999999999999" y="194.10000000000002"/>
    </contour>
  </outline>
</glyph>
<glyph name="L" format="2">
  <advance width="1312.5"/>
  <unicode hex="004C"/>
  <anchor x="947.0" y="1483.6" name="right"/>
  <anchor x="458.59999999999997" y="1485.8000000000002" name="center"/>
  <outline>
    <contour>
      <point x="725.3000000000001" y="1250.1000000000001" type="line" smooth="yes"/>
      <point x="762.5999999999999" y="1266.1"/>
      <point x="779.1999999999999" y="1291.0"/>
      <point x="779.1999999999999" y="1328.0000000000002" type="curve" smooth="yes"/>
      <point x="779.1999999999999" y="1372.6"/>
      <point x="752.0999999999999" y="1400.0"/>
      <point x="692.9" y="1400.0" type="curve" smooth="yes"/>
      <point x="178.49999999999997" y="1400.0" type="line" smooth="yes"/>
      <point x="119.3" y="1400.0"/>
      <point x="92.19999999999999" y="1372.6"/>
      <point x="92.19999999999999" y="1328.0000000000002" type="curve" smooth="yes"/>
      <point x="92.19999999999999" y="1291.0"/>
      <point x="108.80000000000001" y="1266.1000000000001"/>
      <point x="146.1" y="1250.1000000000001" type="curve" smooth="yes"/>
      <point x="187.70000000000002" y="1235.6000000000001" type="line" smooth="yes"/>
      <point x="221.60000000000002" y="1222.6"/>
      <point x="242.0" y="1203.1"/>
      <point x="242.0" y="1161.4" type="curve" smooth="yes"/>
      <point x="242.0" y="238.6" type="line" smooth="yes"/>
      <point x="242.0" y="196.9"/>
      <point x="221.59999999999997" y="177.40000000000003"/>
      <point x="187.70000000000002" y="164.4" type="curve" smooth="yes"/>
      <point x="146.1" y="149.89999999999998" type="line" smooth="yes"/>
      <point x="108.80000000000001" y="133.9"/>
      <point x="92.19999999999999" y="109.0"/>
      <point x="92.19999999999999" y="71.99999999999999" type="curve" smooth="yes"/>
      <point x="92.19999999999999" y="27.4"/>
      <point x="119.3" y="0.0"/>
      <point x="178.49999999999997" y="0.0" type="curve" smooth="yes"/>
      <point x="895.5" y="0.0" type="line" smooth="yes"/>
      <point x="982.0000000000001" y="0.0"/>
      <point x="1023.1000000000001" y="-36.8"/>
      <point x="1077.7000000000003" y="-36.8" type="curve" smooth="yes"/>
      <point x="1141.4999999999998" y="-36.8"/>
      <point x="1168.5" y="-3.5000000000000004"/>
      <point x="1189.3" y="71.1" type="curve" smooth="yes"/>
      <point x="1273.7000000000003" y="386.2" type="line" smooth="yes"/>
      <point x="1288.6" y="440.20000000000005"/>
      <point x="1266.0000000000002" y="476.2"/>
      <point x="1221.0" y="486.8" type="curve" smooth="yes"/>
      <point x="1177.2000000000003" y="497.4"/>
      <point x="1144.4" y="483.3"/>
      <point x="1121.3999999999999" y="434.29999999999995" type="curve" smooth="yes"/>
      <point x="1067.1000000000001" y="316.0" type="line" smooth="yes"/>
      <point x="1007.4000000000001" y="186.0"/>
      <point x="946.4" y="151.2"/>
      <point x="840.3000000000001" y="151.2" type="curve" smooth="yes"/>
      <point x="718.6" y="151.2" type="line" smooth="yes"/>
      <point x="660.2000000000002" y="151.2"/>
      <point x="629.4" y="173.8"/>
      <point x="629.4" y="233.9" type="curve" smooth="yes"/>
      <point x="629.4" y="1161.4" type="line" smooth="yes"/>
      <point x="629.4" y="1203.1"/>
      <point x="649.8000000000001" y="1222.6000000000001"/>
      <point x="683.6999999999998" y="1235.6000000000001" type="curve" smooth="yes"/>
    </contour>
  </outline>
</glyph>
<glyph name="M" format="2">
  <advance width="1939.2"/>
  <unicode hex="004D"/>
  <anchor x="968.0" y="1484.0" name="center"/>
  <outline>
    <contour>
      <point x="1049.5" y="385.59999999999997" type="line"/>
      <point x="698.0" y="1266.8" type="line" smooth="yes"/>
      <point x="659.3" y="1365.4000000000003"/>
      <point x="619.3000000000001" y="1400.0"/>
      <point x="533.3" y="1400.0" type="curve" smooth="yes"/>
      <point x="214.7" y="1400.0" type="line" smooth="yes"/>
      <point x="156.1" y="1400.0"/>
      <point x="127.80000000000001" y="1373.0"/>
      <point x="127.80000000000001" y="1327.8000000000002" type="curve" smooth="yes"/>
      <point x="127.80000000000001" y="1287.9"/>
      <point x="147.3" y="1264.3000000000002"/>
      <point x="182.40000000000003" y="1249.8000000000002" type="curve" smooth="yes"/>
      <point x="221.9" y="1235.4" type="line" smooth="yes"/>
      <point x="263.40000000000003" y="1219.8999999999999"/>
      <point x="282.4" y="1195.4"/>
      <point x="277.70000000000005" y="1135.1000000000001" type="curve" smooth="yes"/>
      <point x="204.40000000000003" y="262.20000000000005" type="line" smooth="yes"/>
      <point x="199.8" y="205.39999999999998"/>
      <point x="174.79999999999998" y="181.0"/>
      <point x="136.0" y="164.6" type="curve" smooth="yes"/>
      <point x="106.89999999999999" y="153.0" type="line" smooth="yes"/>
      <point x="70.10000000000001" y="135.4"/>
      <point x="46.300000000000004" y="115.4"/>
      <point x="46.300000000000004" y="71.99999999999999" type="curve" smooth="yes"/>
      <point x="46.300000000000004" y="27.400000000000002"/>
      <point x="73.3" y="0.0"/>
      <point x="132.6" y="0.0" type="curve" smooth="yes"/>
      <point x="423.3" y="0.0" type="line" smooth="yes"/>
      <point x="482.2" y="0.0"/>
      <point x="509.70000000000005" y="29.000000000000004"/>
      <point x="509.70000000000005" y="74.8" type="curve" smooth="yes"/>
      <point x="509.70000000000005" y="107.39999999999999"/>
      <point x="493.79999999999995" y="128.00000000000003"/>
      <point x="470.2" y="141.0" type="curve" smooth="yes"/>
      <point x="433.20000000000005" y="159.0" type="line" smooth="yes"/>
      <point x="388.30000000000007" y="181.8"/>
      <point x="359.2" y="202.5"/>
      <point x="364.2" y="261.8" type="curve" smooth="yes"/>
      <point x="443.20000000000005" y="1214.1000000000001" type="line"/>
      <point x="326.3" y="1192.7" type="line"/>
      <point x="737.3" y="168.1" type="line" smooth="yes"/>
      <point x="782.4" y="54.30000000000001"/>
      <point x="816.9999999999999" y="43.2"/>
      <point x="875.6999999999999" y="43.2" type="curve" smooth="yes"/>
      <point x="928.8000000000001" y="43.2"/>
      <point x="960.4" y="62.3"/>
      <point x="998.1" y="161.29999999999998" type="curve" smooth="yes"/>
      <point x="1410.2000000000003" y="1225.8" type="line"/>
      <point x="1284.8" y="1220.5" type="line"/>
      <point x="1361.6000000000004" y="245.00000000000003" type="line" smooth="yes"/>
      <point x="1365.1" y="197.7"/>
      <point x="1346.7000000000003" y="179.49999999999997"/>
      <point x="1305.8" y="164.5" type="curve" smooth="yes"/>
      <point x="1265.6" y="149.79999999999998" type="line" smooth="yes"/>
      <point x="1226.8000000000002" y="133.2"/>
      <point x="1211.4" y="107.59999999999998"/>
      <point x="1211.4" y="71.99999999999999" type="curve" smooth="yes"/>
      <point x="1211.4" y="27.400000000000002"/>
      <point x="1238.7999999999997" y="0.0"/>
      <point x="1298.3999999999999" y="0.0" type="curve" smooth="yes"/>
      <point x="1801.3999999999999" y="0.0" type="line" smooth="yes"/>
      <point x="1859.8" y="0.0"/>
      <point x="1888.0" y="31.0"/>
      <point x="1888.0" y="76.00000000000001" type="curve" smooth="yes"/>
      <point x="1888.0" y="113.19999999999999"/>
      <point x="1869.9" y="136.8"/>
      <point x="1838.6" y="149.79999999999998" type="curve" smooth="yes"/>
      <point x="1798.8" y="164.5" type="line" smooth="yes"/>
      <point x="1762.5" y="178.1"/>
      <point x="1748.3" y="194.4"/>
      <point x="1744.6999999999998" y="244.89999999999998" type="curve" smooth="yes"/>
      <point x="1679.8999999999999" y="1145.0000000000002" type="line" smooth="yes"/>
      <point x="1675.8" y="1201.4"/>
      <point x="1692.8000000000002" y="1219.8000000000002"/>
      <point x="1735.2000000000003" y="1235.4" type="curve" smooth="yes"/>
      <point x="1775.3" y="1250.2" type="line" smooth="yes"/>
      <point x="1808.6999999999998" y="1264.3999999999999"/>
      <point x="1828.7" y="1288.5"/>
      <point x="1828.7" y="1328.0000000000002" type="curve" smooth="yes"/>
      <point x="1828.7" y="1372.6000000000001"/>
      <point x="1801.3" y="1400.0"/>
      <point x="1741.9999999999998" y="1400.0" type="curve" smooth="yes"/>
      <point x="1419.0" y="1400.0" type="line" smooth="yes"/>
      <point x="1331.8000000000002" y="1400.0"/>
      <point x="1290.7" y="1365.8"/>
      <point x="1252.2" y="1264.8" type="curve" smooth="yes"/>
      <point x="903.0999999999999" y="367.0" type="line"/>
    </contour>
  </outline>
</glyph>
<glyph name="N" format="2">
  <advance width="1568.9999999999998"/>
  <unicode hex="004E"/>
  <anchor x="803.2" y="1544.8" name="center"/>
  <outline>
    <contour>
      <point x="563.9999999999999" y="71.99999999999999" type="curve" smooth="yes"/>
      <point x="563.9999999999999" y="109.60000000000001"/>
      <point x="547.3" y="132.3"/>
      <point x="504.00000000000006" y="152.9" type="curve" smooth="yes"/>
      <point x="473.3" y="164.60000000000002" type="line" smooth="yes"/>
      <point x="419.20000000000005" y="188.6"/>
      <point x="403.8" y="209.5"/>
      <point x="403.8" y="270.3" type="curve" smooth="yes"/>
      <point x="403.8" y="1139.7" type="line"/>
      <point x="299.00000000000006" y="1043.6" type="line"/>
      <point x="967.5" y="159.4" type="line" smooth="yes"/>
      <point x="1012.4" y="99.4"/>
      <point x="1022.9000000000001" y="84.89999999999999"/>
      <point x="1022.9000000000001" y="56.800000000000004" type="curve" smooth="yes"/>
      <point x="1022.9000000000001" y="19.4"/>
      <point x="1045.2" y="0.0"/>
      <point x="1088.6999999999998" y="0.0" type="curve" smooth="yes"/>
      <point x="1390.5" y="0.0" type="line" smooth="yes"/>
      <point x="1436.6000000000001" y="0.0"/>
      <point x="1466.8" y="28.099999999999998"/>
      <point x="1466.8" y="70.2" type="curve" smooth="yes"/>
      <point x="1466.8" y="96.4"/>
      <point x="1460.8" y="112.3"/>
      <point x="1432.3000000000002" y="155.29999999999998" type="curve" smooth="yes"/>
      <point x="1383.0" y="225.70000000000002" type="line" smooth="yes"/>
      <point x="1360.0" y="260.6"/>
      <point x="1350.9999999999998" y="301.40000000000003"/>
      <point x="1350.9999999999998" y="357.1" type="curve" smooth="yes"/>
      <point x="1350.9999999999998" y="1129.3000000000002" type="line" smooth="yes"/>
      <point x="1350.9999999999998" y="1192.5"/>
      <point x="1368.7" y="1213.3999999999999"/>
      <point x="1420.1999999999998" y="1235.4" type="curve" smooth="yes"/>
      <point x="1451.3000000000002" y="1247.1" type="line" smooth="yes"/>
      <point x="1494.6" y="1267.7"/>
      <point x="1511.3" y="1290.3999999999999"/>
      <point x="1511.3" y="1328.0000000000002" type="curve" smooth="yes"/>
      <point x="1511.3" y="1372.6000000000001"/>
      <point x="1483.9" y="1400.0"/>
      <point x="1424.6" y="1400.0" type="curve" smooth="yes"/>
      <point x="1117.3" y="1400.0" type="line" smooth="yes"/>
      <point x="1058.4" y="1400.0"/>
      <point x="1031.0" y="1372.6000000000001"/>
      <point x="1031.0" y="1328.0000000000002" type="curve" smooth="yes"/>
      <point x="1031.0" y="1290.8"/>
      <point x="1047.6999999999998" y="1268.1"/>
      <point x="1091.0" y="1247.1" type="curve" smooth="yes"/>
      <point x="1121.7" y="1235.4" type="line" smooth="yes"/>
      <point x="1174.6" y="1212.6000000000001"/>
      <point x="1191.1999999999998" y="1190.4999999999998"/>
      <point x="1191.1999999999998" y="1129.3000000000002" type="curve" smooth="yes"/>
      <point x="1191.1999999999998" y="245.10000000000002" type="line"/>
      <point x="1241.2" y="408.90000000000003" type="line"/>
      <point x="535.6" y="1340.1000000000001" type="line" smooth="yes"/>
      <point x="496.2" y="1392.3000000000002"/>
      <point x="466.9" y="1400.0"/>
      <point x="415.8" y="1400.0" type="curve" smooth="yes"/>
      <point x="151.00000000000003" y="1400.0" type="line" smooth="yes"/>
      <point x="105.9" y="1400.0"/>
      <point x="76.10000000000001" y="1375.3999999999999"/>
      <point x="76.10000000000001" y="1335.8999999999999" type="curve" smooth="yes"/>
      <point x="76.10000000000001" y="1305.7"/>
      <point x="90.5" y="1287.7"/>
      <point x="119.8" y="1251.8999999999999" type="curve" smooth="yes"/>
      <point x="197.09999999999997" y="1157.8000000000002" type="line" smooth="yes"/>
      <point x="232.49999999999997" y="1114.2"/>
      <point x="244.0" y="1091.8999999999999"/>
      <point x="244.0" y="1032.1999999999998" type="curve" smooth="yes"/>
      <point x="244.0" y="270.70000000000005" type="line" smooth="yes"/>
      <point x="244.0" y="208.29999999999995"/>
      <point x="225.10000000000002" y="186.20000000000002"/>
      <point x="174.8" y="164.60000000000002" type="curve" smooth="yes"/>
      <point x="143.70000000000002" y="152.9" type="line" smooth="yes"/>
      <point x="100.4" y="132.7"/>
      <point x="83.69999999999999" y="110.0"/>
      <point x="83.69999999999999" y="71.99999999999999" type="curve" smooth="yes"/>
      <point x="83.69999999999999" y="27.8"/>
      <point x="111.1" y="0.4"/>
      <point x="170.4" y="0.0" type="curve" smooth="yes"/>
      <point x="477.7" y="0.0" type="line" smooth="yes"/>
      <point x="536.6" y="0.4"/>
      <point x="563.9999999999999" y="27.8"/>
    </contour>
  </outline>
</glyph>
<glyph name="O" format="2">
  <advance width="1603.0000000000002"/>
  <unicode hex="004F"/>
  <outline>
    <contour>
      <point x="798.5" y="1437.7" type="curve" smooth="yes"/>
      <point x="348.9312465858188" y="1437.7"/>
      <point x="70.39999999999999" y="1117.5924137931038"/>
      <point x="70.39999999999999" y="709.2" type="curve" smooth="yes"/>
      <point x="70.39999999999999" y="265.8"/>
      <point x="352.78821786492375" y="-38.8"/>
      <point x="803.0000000000001" y="-38.8" type="curve" smooth="yes"/>
      <point x="1249.0933734133205" y="-38.8"/>
      <point x="1532.4" y="274.6695187165775"/>
      <point x="1532.4" y="698.8" type="curve" smooth="yes"/>
      <point x="1532.4" y="1131.6507607192252"/>
      <point x="1246.7212959801336" y="1437.7"/>
    </contour>
    <contour>
      <point x="1134.4" y="474.2" type="curve" smooth="yes"/>
      <point x="1134.4" y="234.98810289389067"/>
      <point x="1041.9352112676058" y="110.49999999999999"/>
      <point x="892.0" y="110.49999999999999" type="curve" smooth="yes"/>
      <point x="684.8371794871795" y="110.49999999999999"/>
      <point x="472.4" y="496.6061016949152"/>
      <point x="472.4" y="924.9" type="curve" smooth="yes"/>
      <point x="472.4" y="1156.411897106109"/>
      <point x="561.0" y="1288.5999999999997"/>
      <point x="713.3000000000001" y="1288.5999999999997" type="curve" smooth="yes"/>
      <point x="926.1" y="1288.5999999999997"/>
      <point x="1134.4" y="896.8102622576965"/>
    </contour>
  </outline>
</glyph>
<glyph name="P" format="2">
  <advance width="1466.8"/>
  <unicode hex="0050"/>
  <outline>
    <contour>
      <point x="1410.8000000000002" y="882.9" type="curve" smooth="yes"/>
      <point x="1410.8000000000002" y="1180.9672897196263"/>
      <point x="1154.8999999999999" y="1400.0"/>
      <point x="692.0" y="1400.0" type="curve" smooth="yes"/>
      <point x="178.69999999999996" y="1400.0" type="line" smooth="yes"/>
      <point x="119.5" y="1400.0"/>
      <point x="92.39999999999999" y="1372.6"/>
      <point x="92.39999999999999" y="1328.0" type="curve" smooth="yes"/>
      <point x="92.39999999999999" y="1291.0000000000002"/>
      <point x="109.0" y="1266.1"/>
      <point x="146.3" y="1250.1000000000001" type="curve" smooth="yes"/>
      <point x="187.9" y="1235.6000000000001" type="line" smooth="yes"/>
      <point x="221.79999999999998" y="1222.6"/>
      <point x="242.2" y="1203.1000000000004"/>
      <point x="242.2" y="1161.3999999999999" type="curve" smooth="yes"/>
      <point x="242.2" y="238.59999999999997" type="line" smooth="yes"/>
      <point x="242.2" y="196.9"/>
      <point x="221.79999999999998" y="177.4"/>
      <point x="187.9" y="164.4" type="curve" smooth="yes"/>
      <point x="146.29999999999998" y="149.89999999999998" type="line" smooth="yes"/>
      <point x="109.0" y="133.89999999999998"/>
      <point x="92.39999999999999" y="109.0"/>
      <point x="92.39999999999999" y="72.0" type="curve" smooth="yes"/>
      <point x="92.39999999999999" y="27.4"/>
      <point x="119.5" y="0.0"/>
      <point x="178.7" y="0.0" type="curve" smooth="yes"/>
      <point x="724.6" y="0.0" type="line" smooth="yes"/>
      <point x="783.8" y="0.0"/>
      <point x="810.9" y="27.4"/>
      <point x="810.9" y="71.99999999999999" type="curve" smooth="yes"/>
      <point x="810.9" y="111.80000000000001"/>
      <point x="793.5000000000001" y="135.0"/>
      <point x="753.8000000000001" y="147.1" type="curve" smooth="yes"/>
      <point x="685.5000000000001" y="164.4" type="line" smooth="yes"/>
      <point x="648.0" y="174.5"/>
      <point x="629.5999999999999" y="196.49999999999997"/>
      <point x="629.5999999999999" y="238.6" type="curve" smooth="yes"/>
      <point x="629.5999999999999" y="1249.7" type="line"/>
      <point x="678.4" y="1249.7" type="line" smooth="yes"/>
      <point x="892.1" y="1249.7"/>
      <point x="1034.4" y="1106.9223097112856"/>
      <point x="1034.4" y="893.3999999999999" type="curve" smooth="yes"/>
      <point x="1034.4" y="694.3540404040402"/>
      <point x="907.3" y="590.3"/>
      <point x="737.8000000000001" y="590.3" type="curve" smooth="yes"/>
      <point x="635.3" y="590.3"/>
      <point x="562.0" y="617.3"/>
      <point x="486.8" y="664.0" type="curve"/>
      <point x="470.20000000000005" y="538.0999999999999" type="line"/>
      <point x="567.8000000000001" y="481.0"/>
      <point x="695.5999999999999" y="446.7"/>
      <point x="843.4" y="446.7" type="curve" smooth="yes"/>
      <point x="1196.7" y="446.7"/>
      <point x="1410.8000000000002" y="617.219064339564"/>
    </contour>
  </outline>
</glyph>
<glyph name="Q" format="2">
  <advance width="1602.9999999999998"/>
  <unicode hex="0051"/>
  <outline>
    <contour>
      <point x="797.6999999999999" y="1437.7" type="curve" smooth="yes"/>
      <point x="347.99999999999994" y="1437.7"/>
      <point x="69.6" y="1117.7000000000003"/>
      <point x="69.6" y="709.2" type="curve" smooth="yes"/>
      <point x="69.6" y="265.79999999999995"/>
      <point x="352.00000000000006" y="-38.8"/>
      <point x="802.2" y="-38.8" type="curve" smooth="yes"/>
      <point x="1248.3000000000002" y="-38.8"/>
      <point x="1531.6" y="274.79999999999995"/>
      <point x="1531.6" y="698.8" type="curve" smooth="yes"/>
      <point x="1531.6" y="1131.6999999999998"/>
      <point x="1245.8000000000002" y="1437.7"/>
    </contour>
    <contour>
      <point x="1134.4" y="474.2" type="curve" smooth="yes"/>
      <point x="1134.4" y="235.1"/>
      <point x="1041.9" y="110.49999999999999"/>
      <point x="892.0" y="110.49999999999999" type="curve" smooth="yes"/>
      <point x="684.8000000000001" y="110.49999999999999"/>
      <point x="472.4" y="496.79999999999995"/>
      <point x="472.4" y="924.9000000000001" type="curve" smooth="yes"/>
      <point x="472.4" y="1156.3"/>
      <point x="561.0" y="1288.6"/>
      <point x="713.3000000000001" y="1288.6" type="curve" smooth="yes"/>
      <point x="926.1" y="1288.6"/>
      <point x="1134.4" y="896.9999999999999"/>
    </contour>
    <contour>
      <point x="817.4" y="341.6" type="curve" smooth="yes"/>
      <point x="917.4696447316968" y="-93.77274244426677"/>
      <point x="1136.8955970115776" y="-277.0"/>
      <point x="1377.5" y="-277.0" type="curve" smooth="yes"/>
      <point x="1462.4248618784532" y="-277.0"/>
      <point x="1495.3054772271205" y="-253.7439925205228"/>
      <point x="1518.6000000000001" y="-203.99999999999997" type="curve" smooth="yes"/>
      <point x="1555.9" y="-123.30000000000001" type="line" smooth="yes"/>
      <point x="1567.8999999999999" y="-97.7"/>
      <point x="1573.4000000000003" y="-78.3"/>
      <point x="1573.4" y="-57.4" type="curve" smooth="yes"/>
      <point x="1573.4" y="-29.000000000000004"/>
      <point x="1554.4" y="-12.499999999999998"/>
      <point x="1528.0" y="-13.499999999999998" type="curve" smooth="yes"/>
      <point x="1482.8999999999999" y="-16.099999999999998"/>
      <point x="1459.6" y="-46.7"/>
      <point x="1374.4" y="-46.7" type="curve" smooth="yes"/>
      <point x="1179.9425742574258" y="-46.7"/>
      <point x="1043.1183290379001" y="55.07656128060508"/>
      <point x="950.4" y="370.4" type="curve" smooth="yes"/>
      <point x="935.6752356594425" y="422.7792458897843"/>
      <point x="911.1" y="453.3"/>
      <point x="865.5999999999999" y="446.49999999999994" type="curve" smooth="yes"/>
      <point x="818.3254940711463" y="439.7"/>
      <point x="806.103314648321" y="392.18622660309836"/>
    </contour>
  </outline>
</glyph>
<glyph name="R" format="2">
  <advance width="1585.8999999999999"/>
  <unicode hex="0052"/>
  <anchor x="770.8" y="1476.0" name="center"/>
  <outline>
    <contour>
      <point x="1439.4" y="915.3999999999999" type="curve" smooth="yes"/>
      <point x="1439.4" y="1197.4"/>
      <point x="1182.2000000000003" y="1400.0"/>
      <point x="710.7" y="1400.0" type="curve" smooth="yes"/>
      <point x="178.49999999999997" y="1400.0" type="line" smooth="yes"/>
      <point x="119.3" y="1400.0"/>
      <point x="92.19999999999999" y="1372.6"/>
      <point x="92.19999999999999" y="1328.0000000000002" type="curve" smooth="yes"/>
      <point x="92.19999999999999" y="1291.0"/>
      <point x="108.80000000000001" y="1266.1"/>
      <point x="146.1" y="1250.1000000000001" type="curve" smooth="yes"/>
      <point x="187.70000000000002" y="1235.6000000000001" type="line" smooth="yes"/>
      <point x="221.59999999999997" y="1222.6"/>
      <point x="242.0" y="1203.1"/>
      <point x="242.0" y="1161.4" type="curve" smooth="yes"/>
      <point x="242.0" y="238.6" type="line" smooth="yes"/>
      <point x="242.0" y="196.89999999999998"/>
      <point x="221.59999999999997" y="177.40000000000003"/>
      <point x="187.70000000000002" y="164.4" type="curve" smooth="yes"/>
      <point x="146.1" y="149.89999999999998" type="line" smooth="yes"/>
      <point x="108.80000000000001" y="133.9"/>
      <point x="92.19999999999999" y="109.0"/>
      <point x="92.19999999999999" y="71.99999999999999" type="curve" smooth="yes"/>
      <point x="92.19999999999999" y="27.4"/>
      <point x="119.3" y="0.0"/>
      <point x="178.49999999999997" y="0.0" type="curve" smooth="yes"/>
      <point x="680.4000000000001" y="0.0" type="line" smooth="yes"/>
      <point x="738.4" y="0.0"/>
      <point x="766.6999999999999" y="25.4"/>
      <point x="766.6999999999999" y="71.99999999999999" type="curve" smooth="yes"/>
      <point x="766.6999999999999" y="106.19999999999999"/>
      <point x="755.6999999999999" y="127.79999999999998"/>
      <point x="720.0" y="147.49999999999997" type="curve" smooth="yes"/>
      <point x="679.6999999999998" y="161.2" type="line" smooth="yes"/>
      <point x="647.4896546374983" y="177.03275902187625"/>
      <point x="629.4" y="194.96511627906978"/>
      <point x="629.4" y="238.6" type="curve" smooth="yes"/>
      <point x="629.4" y="1262.0000000000002" type="line"/>
      <point x="692.3" y="1262.0000000000002" type="line" smooth="yes"/>
      <point x="902.4076923076923" y="1262.0000000000002"/>
      <point x="1042.1999999999998" y="1115.5239436619718"/>
      <point x="1042.1999999999998" y="913.5" type="curve" smooth="yes"/>
      <point x="1042.1999999999998" y="725.4660767736176"/>
      <point x="938.4" y="628.8"/>
      <point x="756.7" y="628.8" type="curve" smooth="yes"/>
      <point x="670.3" y="628.8"/>
      <point x="595.0" y="643.0"/>
      <point x="532.1" y="684.6" type="curve"/>
      <point x="530.6" y="556.8" type="line"/>
      <point x="598.3000000000001" y="518.6999999999999"/>
      <point x="702.3000000000001" y="491.1"/>
      <point x="818.4" y="491.1" type="curve" smooth="yes"/>
      <point x="927.1" y="491.1"/>
      <point x="990.4499835521688" y="529.9427258159603"/>
      <point x="1094.2" y="548.4" type="curve" smooth="yes"/>
      <point x="1305.139488425199" y="586.3384334036073"/>
      <point x="1439.4" y="734.1"/>
    </contour>
    <contour>
      <point x="811.4" y="551.8" type="line"/>
      <point x="1006.0999999999999" y="196.79999999999998" type="line" smooth="yes"/>
      <point x="1022.7" y="166.29999999999998"/>
      <point x="1018.2000000000002" y="148.60000000000002"/>
      <point x="997.5" y="135.79999999999998" type="curve" smooth="yes"/>
      <point x="979.0" y="127.40000000000002" type="line" smooth="yes"/>
      <point x="957.8808193742698" y="111.5409217960535"/>
      <point x="946.9" y="94.60000000000001"/>
      <point x="946.9" y="71.99999999999999" type="curve" smooth="yes"/>
      <point x="946.9" y="25.0"/>
      <point x="975.1" y="0.0"/>
      <point x="1029.9" y="0.0" type="curve" smooth="yes"/>
      <point x="1468.4" y="0.0" type="line" smooth="yes"/>
      <point x="1527.6999999999998" y="0.0"/>
      <point x="1555.1" y="27.400000000000002"/>
      <point x="1555.1" y="71.99999999999999" type="curve" smooth="yes"/>
      <point x="1555.1" y="109.3"/>
      <point x="1538.5000000000002" y="132.1"/>
      <point x="1497.7999999999997" y="149.0" type="curve" smooth="yes"/>
      <point x="1456.3943579226113" y="166.18522929435497"/>
      <point x="1437.0" y="182.89999999999998"/>
      <point x="1411.8999999999999" y="224.7" type="curve" smooth="yes"/>
      <point x="1185.1" y="595.6999999999999" type="line"/>
    </contour>
  </outline>
</glyph>
<glyph name="S" format="2">
  <advance width="1265.6"/>
  <unicode hex="0053"/>
  <anchor x="621.2" y="1479.0" name="center"/>
  <outline>
    <contour>
      <point x="671.6999999999999" y="-30.6" type="curve" smooth="yes"/>
      <point x="988.4000000000001" y="-30.6"/>
      <point x="1175.0" y="156.0"/>
      <point x="1175.3999999999999" y="388.6" type="curve" smooth="yes"/>
      <point x="1175.7000000023734" y="600.200000417726"/>
      <point x="1065.4814334185858" y="750.998323269381"/>
      <point x="718.4999999999999" y="862.6999999999999" type="curve" smooth="yes"/>
      <point x="496.5097645436458" y="938.496210264529"/>
      <point x="432.2" y="1004.7394255874673"/>
      <point x="432.2" y="1104.5" type="curve" smooth="yes"/>
      <point x="432.2" y="1202.0000000000002"/>
      <point x="503.09999999999997" y="1272.1"/>
      <point x="619.6999999999999" y="1272.1" type="curve" smooth="yes"/>
      <point x="765.0999999999999" y="1272.1"/>
      <point x="922.3000000000001" y="1189.5"/>
      <point x="1032.4" y="976.7" type="curve" smooth="yes"/>
      <point x="1055.8" y="931.8000000000001"/>
      <point x="1088.8999999999999" y="914.0999999999999"/>
      <point x="1132.0" y="925.8" type="curve" smooth="yes"/>
      <point x="1178.3000000000002" y="938.4"/>
      <point x="1200.5" y="979.6"/>
      <point x="1185.0" y="1031.2" type="curve" smooth="yes"/>
      <point x="1096.7" y="1328.6000000000001" type="line" smooth="yes"/>
      <point x="1073.1999999999998" y="1406.6"/>
      <point x="1047.0" y="1430.5"/>
      <point x="1003.8000000000001" y="1430.5" type="curve" smooth="yes"/>
      <point x="943.5000000000001" y="1430.5"/>
      <point x="931.8000000000001" y="1364.3999999999999"/>
      <point x="883.8" y="1364.3999999999999" type="curve" smooth="yes"/>
      <point x="825.4" y="1364.3999999999999"/>
      <point x="743.6" y="1426.1999999999998"/>
      <point x="574.3000000000001" y="1426.2" type="curve" smooth="yes"/>
      <point x="276.4" y="1426.2"/>
      <point x="86.0" y="1248.5"/>
      <point x="86.0" y="998.9" type="curve" smooth="yes"/>
      <point x="86.0" y="767.1990498812352"/>
      <point x="203.0387534644543" y="611.4233118301385"/>
      <point x="560.2" y="506.40000000000003" type="curve" smooth="yes"/>
      <point x="791.8614470073118" y="434.93642626628014"/>
      <point x="843.600000035051" y="376.10000245357577"/>
      <point x="843.2" y="281.40000000000003" type="curve" smooth="yes"/>
      <point x="842.8000000000001" y="185.10000000000002"/>
      <point x="767.1999999999999" y="121.89999999999999"/>
      <point x="644.9" y="121.89999999999999" type="curve" smooth="yes"/>
      <point x="507.09999999999997" y="121.89999999999999"/>
      <point x="383.5105278902727" y="186.67686177962034"/>
      <point x="278.9" y="375.3" type="curve" smooth="yes"/>
      <point x="249.89999999999998" y="424.5"/>
      <point x="215.20000000000002" y="440.3"/>
      <point x="172.29999999999998" y="426.4" type="curve" smooth="yes"/>
      <point x="131.3" y="413.3"/>
      <point x="112.8" y="382.2"/>
      <point x="120.70000000000002" y="341.8" type="curve" smooth="yes"/>
      <point x="181.7" y="45.0" type="line" smooth="yes"/>
      <point x="192.7" y="-11.9"/>
      <point x="216.50000000000003" y="-34.8"/>
      <point x="261.20000000000005" y="-34.8" type="curve" smooth="yes"/>
      <point x="312.9" y="-34.8"/>
      <point x="336.49999999999994" y="24.1"/>
      <point x="397.0" y="24.1" type="curve" smooth="yes"/>
      <point x="438.67207207207207" y="24.1"/>
      <point x="523.1114114114114" y="-30.6"/>
    </contour>
  </outline>
</glyph>
<glyph name="T" format="2">
  <advance width="1450.7999999999997"/>
  <unicode hex="0054"/>
  <outline>
    <contour>
      <point x="410.40000000000003" y="1400.0" type="line" smooth="yes"/>
      <point x="322.3" y="1400.0"/>
      <point x="283.2" y="1437.1"/>
      <point x="228.3" y="1437.1" type="curve" smooth="yes"/>
      <point x="163.79999999999998" y="1437.1"/>
      <point x="135.6" y="1406.2000000000003"/>
      <point x="116.3" y="1331.3000000000002" type="curve" smooth="yes"/>
      <point x="52.2" y="1040.3" type="line" smooth="yes"/>
      <point x="39.99999999999999" y="985.3"/>
      <point x="62.099999999999994" y="947.4"/>
      <point x="108.2" y="938.8000000000001" type="curve" smooth="yes"/>
      <point x="151.4" y="929.8000000000001"/>
      <point x="183.5" y="943.6"/>
      <point x="206.3" y="992.5" type="curve" smooth="yes"/>
      <point x="299.4" y="1193.8999999999999"/>
      <point x="345.99999999999994" y="1240.8999999999999"/>
      <point x="444.2" y="1240.8999999999999" type="curve" smooth="yes"/>
      <point x="531.6999999999999" y="1240.8999999999999" type="line"/>
      <point x="531.6999999999999" y="238.6" type="line" smooth="yes"/>
      <point x="531.6999999999999" y="196.9"/>
      <point x="511.3" y="176.99999999999997"/>
      <point x="477.40000000000003" y="164.4" type="curve" smooth="yes"/>
      <point x="431.8" y="149.89999999999998" type="line" smooth="yes"/>
      <point x="394.49999999999994" y="134.10000000000002"/>
      <point x="377.8999999999999" y="109.0"/>
      <point x="377.8999999999999" y="72.39999999999999" type="curve" smooth="yes"/>
      <point x="377.8999999999999" y="27.4"/>
      <point x="405.0" y="0.0"/>
      <point x="464.20000000000005" y="0.0" type="curve" smooth="yes"/>
      <point x="986.5999999999999" y="0.0" type="line" smooth="yes"/>
      <point x="1045.8" y="0.0"/>
      <point x="1072.8999999999999" y="26.6"/>
      <point x="1072.8999999999999" y="71.99999999999999" type="curve" smooth="yes"/>
      <point x="1072.8999999999999" y="109.39999999999999"/>
      <point x="1056.3000000000002" y="134.10000000000002"/>
      <point x="1019.0000000000001" y="149.89999999999998" type="curve" smooth="yes"/>
      <point x="973.4" y="164.4" type="line" smooth="yes"/>
      <point x="939.5000000000001" y="177.0"/>
      <point x="919.1" y="196.9"/>
      <point x="919.1" y="238.6" type="curve" smooth="yes"/>
      <point x="919.1" y="1240.8999999999999" type="line"/>
      <point x="1006.6" y="1240.8999999999999" type="line" smooth="yes"/>
      <point x="1104.8000000000002" y="1240.8999999999999"/>
      <point x="1151.3999999999999" y="1193.9"/>
      <point x="1244.4999999999998" y="992.5" type="curve" smooth="yes"/>
      <point x="1267.3000000000002" y="943.6"/>
      <point x="1299.4" y="929.8000000000001"/>
      <point x="1342.6" y="938.8000000000001" type="curve" smooth="yes"/>
      <point x="1388.7" y="947.4"/>
      <point x="1410.8000000000002" y="985.3"/>
      <point x="1398.6" y="1040.3" type="curve" smooth="yes"/>
      <point x="1334.5000000000002" y="1331.2999999999997" type="line" smooth="yes"/>
      <point x="1315.2" y="1406.2"/>
      <point x="1286.9999999999998" y="1437.1"/>
      <point x="1222.5000000000002" y="1437.1" type="curve" smooth="yes"/>
      <point x="1167.6000000000001" y="1437.1"/>
      <point x="1128.1000000000001" y="1400.0"/>
      <point x="1040.4" y="1400.0" type="curve" smooth="yes"/>
    </contour>
  </outline>
</glyph>
<glyph name="U" format="2">
  <advance width="1543.0"/>
  <unicode hex="0055"/>
  <anchor x="868.2" y="1460.0" name="center"/>
  <outline>
    <contour>
      <point x="1190.8" y="608.2" type="line" smooth="yes"/>
      <point x="1194.1" y="557.0"/>
      <point x="1198.1000000000001" y="506.50000000000006"/>
      <point x="1198.9" y="415.20000000000005" type="curve" smooth="yes"/>
      <point x="1201.1999142348188" y="240.20157236165284"/>
      <point x="1086.041463414634" y="133.4"/>
      <point x="885.4" y="133.4" type="curve" smooth="yes"/>
      <point x="697.5999999999999" y="133.4"/>
      <point x="586.9280351779237" y="228.23920205666056"/>
      <point x="588.8" y="440.0" type="curve" smooth="yes"/>
      <point x="589.5000000000001" y="490.40000000000003"/>
      <point x="591.3" y="558.8000000000001"/>
      <point x="595.9999999999999" y="641.1999999999999" type="curve" smooth="yes"/>
      <point x="627.0" y="1160.9" type="line" smooth="yes"/>
      <point x="629.4000000000001" y="1205.8"/>
      <point x="645.9" y="1226.9"/>
      <point x="683.0" y="1235.9" type="curve" smooth="yes"/>
      <point x="724.0" y="1245.9" type="line" smooth="yes"/>
      <point x="773.4" y="1259.2"/>
      <point x="798.6000000000001" y="1283.3"/>
      <point x="798.6000000000001" y="1326.8" type="curve" smooth="yes"/>
      <point x="798.6000000000001" y="1370.6000000000001"/>
      <point x="769.2" y="1400.0"/>
      <point x="716.8000000000001" y="1400.0" type="curve" smooth="yes"/>
      <point x="143.20000000000002" y="1400.0" type="line" smooth="yes"/>
      <point x="90.69999999999999" y="1400.0"/>
      <point x="61.300000000000004" y="1370.6000000000001"/>
      <point x="61.300000000000004" y="1326.8" type="curve" smooth="yes"/>
      <point x="61.300000000000004" y="1282.8"/>
      <point x="87.0" y="1256.3999999999999"/>
      <point x="135.9" y="1244.7" type="curve" smooth="yes"/>
      <point x="176.1" y="1235.9" type="line" smooth="yes"/>
      <point x="224.9" y="1225.0"/>
      <point x="241.4" y="1204.1"/>
      <point x="238.6" y="1158.9" type="curve" smooth="yes"/>
      <point x="207.70000000000002" y="649.5999999999999" type="line" smooth="yes"/>
      <point x="201.4" y="552.4"/>
      <point x="194.9" y="457.2"/>
      <point x="194.5" y="408.8" type="curve" smooth="yes"/>
      <point x="192.49999666391193" y="130.39991993388597"/>
      <point x="394.06628352490424" y="-38.0"/>
      <point x="773.9999999999999" y="-38.0" type="curve" smooth="yes"/>
      <point x="1178.0" y="-38.0"/>
      <point x="1368.8" y="150.4"/>
      <point x="1366.0000000000002" y="406.00000000000006" type="curve" smooth="yes"/>
      <point x="1365.2000000000003" y="477.2"/>
      <point x="1362.1000000000001" y="541.1999999999998"/>
      <point x="1356.0000000000002" y="610.4" type="curve" smooth="yes"/>
      <point x="1316.7" y="1124.8" type="line" smooth="yes"/>
      <point x="1311.6000000000001" y="1185.5"/>
      <point x="1332.5" y="1219.1000000000001"/>
      <point x="1392.7" y="1236.4" type="curve" smooth="yes"/>
      <point x="1428.6" y="1245.8" type="line" smooth="yes"/>
      <point x="1477.7" y="1260.6"/>
      <point x="1503.2000000000003" y="1283.7"/>
      <point x="1503.2000000000003" y="1326.9" type="curve" smooth="yes"/>
      <point x="1503.2000000000003" y="1370.6000000000001"/>
      <point x="1473.8" y="1400.0"/>
      <point x="1421.3999999999999" y="1400.0" type="curve" smooth="yes"/>
      <point x="1057.0000000000002" y="1400.0" type="line" smooth="yes"/>
      <point x="1005.0" y="1400.0"/>
      <point x="975.6" y="1370.6000000000001"/>
      <point x="975.6" y="1326.9" type="curve" smooth="yes"/>
      <point x="975.6" y="1283.8"/>
      <point x="999.4" y="1258.4"/>
      <point x="1049.8" y="1245.1000000000001" type="curve" smooth="yes"/>
      <point x="1086.6" y="1236.2" type="line" smooth="yes"/>
      <point x="1132.6000000000001" y="1224.8"/>
      <point x="1152.6" y="1196.2"/>
      <point x="1156.6000000000001" y="1137.3" type="curve" smooth="yes"/>
    </contour>
  </outline>
</glyph>
<glyph name="V" format="2">
  <advance width="1511.0"/>
  <unicode hex="0056"/>
  <outline>
    <contour>
      <point x="1003.8000000000001" y="1328.0000000000002" type="curve" smooth="yes"/>
      <point x="1003.8000000000001" y="1291.0000000000002"/>
      <point x="1024.0" y="1273.0"/>
      <point x="1057.6" y="1257.8000000000002" type="curve" smooth="yes"/>
      <point x="1102.1000000000001" y="1243.2" type="line" smooth="yes"/>
      <point x="1156.1" y="1219.7"/>
      <point x="1165.5" y="1187.3000000000002"/>
      <point x="1145.3000000000002" y="1127.9000000000003" type="curve" smooth="yes"/>
      <point x="799.1999999999999" y="125.4" type="line"/>
      <point x="907.6999999999999" y="230.70000000000002" type="line"/>
      <point x="600.9" y="1130.7" type="line" smooth="yes"/>
      <point x="578.3" y="1197.1000000000004"/>
      <point x="588.5999999999999" y="1227.6000000000001"/>
      <point x="623.6" y="1242.0" type="curve" smooth="yes"/>
      <point x="671.1" y="1257.0" type="line" smooth="yes"/>
      <point x="707.5" y="1272.9999999999998"/>
      <point x="725.3" y="1293.0"/>
      <point x="725.3" y="1328.0000000000002" type="curve" smooth="yes"/>
      <point x="725.3" y="1372.6000000000001"/>
      <point x="698.7" y="1400.0"/>
      <point x="638.6999999999999" y="1400.0" type="curve" smooth="yes"/>
      <point x="122.5" y="1400.0" type="line" smooth="yes"/>
      <point x="63.199999999999996" y="1400.0"/>
      <point x="35.8" y="1372.6000000000001"/>
      <point x="35.8" y="1328.0000000000002" type="curve" smooth="yes"/>
      <point x="35.8" y="1295.4"/>
      <point x="51.1" y="1269.5"/>
      <point x="81.60000000000001" y="1254.6000000000001" type="curve" smooth="yes"/>
      <point x="114.8" y="1240.6" type="line" smooth="yes"/>
      <point x="150.6" y="1222.8000000000002"/>
      <point x="165.7" y="1204.9999999999998"/>
      <point x="183.39999999999998" y="1153.9" type="curve" smooth="yes"/>
      <point x="514.6999999999999" y="205.79999999999998" type="line" smooth="yes"/>
      <point x="527.0" y="169.39999999999998"/>
      <point x="538.5" y="139.8"/>
      <point x="538.5" y="115.9" type="curve" smooth="yes"/>
      <point x="538.5" y="72.2" type="line" smooth="yes"/>
      <point x="538.5" y="24.3"/>
      <point x="565.5" y="0.0"/>
      <point x="605.1999999999999" y="0.0" type="curve" smooth="yes"/>
      <point x="909.1999999999999" y="0.0" type="line" smooth="yes"/>
      <point x="948.9000000000001" y="0.0"/>
      <point x="977.9" y="25.1"/>
      <point x="977.9" y="69.4" type="curve" smooth="yes"/>
      <point x="977.9" y="113.5" type="line" smooth="yes"/>
      <point x="977.9" y="148.90000000000003"/>
      <point x="987.6" y="177.3"/>
      <point x="1009.7" y="241.6" type="curve" smooth="yes"/>
      <point x="1308.4999999999998" y="1110.6" type="line" smooth="yes"/>
      <point x="1336.7" y="1194.6000000000001"/>
      <point x="1357.9" y="1223.0"/>
      <point x="1401.0999999999997" y="1243.2" type="curve" smooth="yes"/>
      <point x="1435.1999999999998" y="1257.8000000000002" type="line" smooth="yes"/>
      <point x="1472.8" y="1275.8000000000002"/>
      <point x="1489.1000000000001" y="1295.0000000000002"/>
      <point x="1489.1000000000001" y="1328.2000000000003" type="curve" smooth="yes"/>
      <point x="1489.1000000000001" y="1372.5"/>
      <point x="1461.8999999999999" y="1400.0"/>
      <point x="1402.4" y="1400.0" type="curve" smooth="yes"/>
      <point x="1090.0" y="1400.0" type="line" smooth="yes"/>
      <point x="1030.8" y="1400.0"/>
      <point x="1003.8000000000001" y="1372.6000000000001"/>
    </contour>
  </outline>
</glyph>
<glyph name="W" format="2">
  <advance width="2210.7"/>
  <unicode hex="0057"/>
  <anchor x="1220.4" y="1463.0" name="center"/>
  <outline>
    <contour>
      <point x="1047.3" y="1109.1" type="line"/>
      <point x="720.4000000000001" y="116.29999999999998" type="line"/>
      <point x="859.6" y="217.0" type="line"/>
      <point x="572.0999999999999" y="1135.5" type="line" smooth="yes"/>
      <point x="551.1999999999999" y="1202.7"/>
      <point x="559.0000000000001" y="1236.8"/>
      <point x="594.3000000000001" y="1250.0" type="curve" smooth="yes"/>
      <point x="635.9000000000001" y="1260.6" type="line" smooth="yes"/>
      <point x="667.3" y="1273.0000000000002"/>
      <point x="684.0" y="1296.2"/>
      <point x="684.0" y="1328.4" type="curve" smooth="yes"/>
      <point x="684.0" y="1372.6"/>
      <point x="657.5" y="1400.0"/>
      <point x="597.8000000000001" y="1400.0" type="curve" smooth="yes"/>
      <point x="105.6" y="1400.0" type="line" smooth="yes"/>
      <point x="47.0" y="1400.0"/>
      <point x="19.700000000000003" y="1372.7"/>
      <point x="19.700000000000003" y="1328.6000000000001" type="curve" smooth="yes"/>
      <point x="19.700000000000003" y="1296.5000000000002"/>
      <point x="33.699999999999996" y="1269.7"/>
      <point x="64.80000000000001" y="1255.8000000000002" type="curve" smooth="yes"/>
      <point x="100.69999999999999" y="1241.4000000000003" type="line" smooth="yes"/>
      <point x="136.49999999999997" y="1224.8000000000002"/>
      <point x="152.6" y="1207.3"/>
      <point x="168.5" y="1157.1000000000001" type="curve" smooth="yes"/>
      <point x="476.0" y="192.60000000000002" type="line" smooth="yes"/>
      <point x="487.29999999999995" y="155.70000000000002"/>
      <point x="493.8" y="133.8"/>
      <point x="493.8" y="111.89999999999999" type="curve" smooth="yes"/>
      <point x="493.8" y="71.79999999999998" type="line" smooth="yes"/>
      <point x="493.8" y="24.299999999999997"/>
      <point x="522.1" y="0.0"/>
      <point x="560.6000000000001" y="0.0" type="curve" smooth="yes"/>
      <point x="835.8" y="0.0" type="line" smooth="yes"/>
      <point x="873.3000000000001" y="0.0"/>
      <point x="901.5000000000001" y="24.299999999999997"/>
      <point x="901.5000000000001" y="71.79999999999998" type="curve" smooth="yes"/>
      <point x="901.5000000000001" y="111.9" type="line" smooth="yes"/>
      <point x="901.5000000000001" y="150.5"/>
      <point x="907.6999999999999" y="183.2"/>
      <point x="922.5" y="225.60000000000002" type="curve" smooth="yes"/>
      <point x="1202.9" y="1080.8999999999999" type="line"/>
    </contour>
    <contour>
      <point x="1739.8" y="1328.0000000000002" type="curve" smooth="yes"/>
      <point x="1739.8" y="1296.7"/>
      <point x="1755.5" y="1275.1000000000001"/>
      <point x="1784.4999999999998" y="1262.2" type="curve" smooth="yes"/>
      <point x="1823.8" y="1250.0" type="line" smooth="yes"/>
      <point x="1876.2708452086642" y="1228.3734465481703"/>
      <point x="1883.7821960345843" y="1192.738701203587"/>
      <point x="1865.6000000000001" y="1131.9" type="curve" smooth="yes"/>
      <point x="1560.3999999999999" y="118.0" type="line"/>
      <point x="1686.2" y="216.39999999999998" type="line"/>
      <point x="1410.2" y="1135.1" type="line" smooth="yes"/>
      <point x="1389.3000000000002" y="1205.2"/>
      <point x="1398.1000000000001" y="1234.7999999999997"/>
      <point x="1429.6" y="1246.4" type="curve" smooth="yes"/>
      <point x="1470.3000000000002" y="1257.3999999999999" type="line" smooth="yes"/>
      <point x="1506.6000000000001" y="1272.7"/>
      <point x="1523.7" y="1293.4"/>
      <point x="1523.7" y="1328.0" type="curve" smooth="yes"/>
      <point x="1523.7" y="1372.6"/>
      <point x="1497.1000000000001" y="1400.0"/>
      <point x="1437.5" y="1400.0" type="curve" smooth="yes"/>
      <point x="968.2" y="1400.0" type="line" smooth="yes"/>
      <point x="910.2" y="1400.0"/>
      <point x="882.0" y="1372.6"/>
      <point x="882.0" y="1328.0" type="curve" smooth="yes"/>
      <point x="882.0" y="1296.4"/>
      <point x="897.3" y="1276.0"/>
      <point x="928.1999999999999" y="1262.1999999999998" type="curve" smooth="yes"/>
      <point x="963.7" y="1247.8" type="line" smooth="yes"/>
      <point x="991.8000000000001" y="1234.8"/>
      <point x="998.8000000000001" y="1216.2"/>
      <point x="1017.1" y="1157.1000000000001" type="curve" smooth="yes"/>
      <point x="1310.8" y="193.2" type="line" smooth="yes"/>
      <point x="1322.4" y="155.1"/>
      <point x="1328.2" y="132.2"/>
      <point x="1328.2" y="111.9" type="curve" smooth="yes"/>
      <point x="1328.2" y="71.79999999999998" type="line" smooth="yes"/>
      <point x="1328.2" y="24.3"/>
      <point x="1356.5" y="0.0"/>
      <point x="1394.5000000000002" y="0.0" type="curve" smooth="yes"/>
      <point x="1674.5" y="0.0" type="line" smooth="yes"/>
      <point x="1711.8999999999999" y="0.0"/>
      <point x="1740.1" y="24.3"/>
      <point x="1740.1" y="71.79999999999998" type="curve" smooth="yes"/>
      <point x="1740.1" y="111.89999999999999" type="line" smooth="yes"/>
      <point x="1740.1" y="146.50000000000003"/>
      <point x="1745.9999999999998" y="174.80000000000004"/>
      <point x="1761.1" y="225.6" type="curve" smooth="yes"/>
      <point x="2026.5" y="1113.0" type="line" smooth="yes"/>
      <point x="2050.3" y="1193.8"/>
      <point x="2073.5" y="1222.6000000000001"/>
      <point x="2116.6000000000004" y="1243.2" type="curve" smooth="yes"/>
      <point x="2150.2999999999997" y="1257.8000000000002" type="line" smooth="yes"/>
      <point x="2189.2999999999997" y="1276.6000000000001"/>
      <point x="2203.9999999999995" y="1294.8999999999999"/>
      <point x="2203.9999999999995" y="1328.1000000000001" type="curve" smooth="yes"/>
      <point x="2203.9999999999995" y="1372.3"/>
      <point x="2176.9" y="1400.0"/>
      <point x="2117.8" y="1400.0" type="curve" smooth="yes"/>
      <point x="1826.0" y="1400.0" type="line" smooth="yes"/>
      <point x="1767.6" y="1400.0"/>
      <point x="1739.8" y="1372.6000000000001"/>
    </contour>
  </outline>
</glyph>
<glyph name="X" format="2">
  <advance width="1503.8"/>
  <unicode hex="0058"/>
  <outline>
    <contour>
      <point x="1293.3" y="254.29999999999998" type="curve" smooth="yes"/>
      <point x="652.0" y="1155.2999999999997" type="line" smooth="yes"/>
      <point x="614.2999999999998" y="1207.9"/>
      <point x="619.5" y="1230.1999999999998"/>
      <point x="664.5999999999999" y="1245.8" type="curve" smooth="yes"/>
      <point x="694.1" y="1255.0" type="line" smooth="yes"/>
      <point x="723.3" y="1267.0"/>
      <point x="739.1" y="1289.8"/>
      <point x="739.1" y="1328.0" type="curve" smooth="yes"/>
      <point x="739.1" y="1371.9"/>
      <point x="714.0999999999999" y="1400.0"/>
      <point x="654.1000000000001" y="1400.0" type="curve" smooth="yes"/>
      <point x="130.6" y="1400.0" type="line" smooth="yes"/>
      <point x="71.2" y="1400.0"/>
      <point x="43.800000000000004" y="1372.7"/>
      <point x="43.800000000000004" y="1328.0000000000002" type="curve" smooth="yes"/>
      <point x="43.800000000000004" y="1291.2000000000003"/>
      <point x="57.49999999999999" y="1271.1000000000001"/>
      <point x="102.89999999999999" y="1249.6" type="curve" smooth="yes"/>
      <point x="151.5" y="1229.1999999999998"/>
      <point x="166.1" y="1209.0"/>
      <point x="200.5" y="1160.8" type="curve" smooth="yes"/>
      <point x="826.8" y="280.79999999999995" type="line" smooth="yes"/>
      <point x="871.7000000000002" y="218.20000000000002"/>
      <point x="894.5999999999999" y="180.3"/>
      <point x="826.5" y="154.2" type="curve" smooth="yes"/>
      <point x="777.8000000000001" y="135.50000000000003"/>
      <point x="758.2" y="112.89999999999999"/>
      <point x="758.2" y="71.8" type="curve" smooth="yes"/>
      <point x="758.2" y="27.200000000000003"/>
      <point x="785.5999999999999" y="0.0"/>
      <point x="844.8000000000001" y="0.0" type="curve" smooth="yes"/>
      <point x="1389.1000000000001" y="0.0" type="line" smooth="yes"/>
      <point x="1448.3" y="0.0"/>
      <point x="1475.7" y="27.3"/>
      <point x="1475.7" y="71.99999999999999" type="curve" smooth="yes"/>
      <point x="1475.7" y="108.5"/>
      <point x="1453.1999999999998" y="133.4"/>
      <point x="1415.8" y="150.0" type="curve" smooth="yes"/>
      <point x="1357.8000000000002" y="171.49999999999997"/>
      <point x="1345.1999999999998" y="182.29999999999998"/>
    </contour>
    <contour>
      <point x="871.1999999999999" y="673.4" type="line"/>
      <point x="1191.3" y="1094.2" type="line" smooth="yes"/>
      <point x="1264.3999999999999" y="1190.0000000000002"/>
      <point x="1290.9" y="1221.6"/>
      <point x="1334.6000000000001" y="1241.6" type="curve" smooth="yes"/>
      <point x="1387.5" y="1268.5"/>
      <point x="1414.7" y="1292.6"/>
      <point x="1414.7" y="1329.9" type="curve" smooth="yes"/>
      <point x="1414.7" y="1374.6"/>
      <point x="1387.3" y="1400.0"/>
      <point x="1328.1" y="1400.0" type="curve" smooth="yes"/>
      <point x="1030.9" y="1400.0" type="line" smooth="yes"/>
      <point x="973.9000000000001" y="1400.0"/>
      <point x="948.5" y="1372.6"/>
      <point x="948.5" y="1328.0000000000002" type="curve" smooth="yes"/>
      <point x="948.5" y="1290.8999999999999"/>
      <point x="968.7" y="1266.0"/>
      <point x="997.5999999999999" y="1252.1000000000001" type="curve" smooth="yes"/>
      <point x="1028.9999999999998" y="1240.7" type="line" smooth="yes"/>
      <point x="1074.0" y="1223.4000000000003"/>
      <point x="1070.5" y="1194.5"/>
      <point x="1032.7" y="1144.0" type="curve" smooth="yes"/>
      <point x="720.2" y="726.0999999999999" type="line"/>
    </contour>
    <contour>
      <point x="604.3" y="733.4" type="line"/>
      <point x="277.4" y="311.4" type="line" smooth="yes"/>
      <point x="223.70000000000002" y="242.49999999999997"/>
      <point x="180.39999999999998" y="188.7"/>
      <point x="104.4" y="151.6" type="curve" smooth="yes"/>
      <point x="54.3" y="126.30000000000001"/>
      <point x="39.1" y="105.2"/>
      <point x="39.1" y="72.19999999999999" type="curve" smooth="yes"/>
      <point x="39.1" y="27.400000000000002"/>
      <point x="66.5" y="0.0"/>
      <point x="125.29999999999998" y="0.0" type="curve" smooth="yes"/>
      <point x="420.7" y="0.0" type="line" smooth="yes"/>
      <point x="476.5" y="0.0"/>
      <point x="503.09999999999997" y="28.2"/>
      <point x="503.09999999999997" y="72.0" type="curve" smooth="yes"/>
      <point x="503.09999999999997" y="107.1"/>
      <point x="486.50000000000006" y="126.9"/>
      <point x="454.8" y="142.29999999999998" type="curve" smooth="yes"/>
      <point x="429.20000000000005" y="150.1" type="line" smooth="yes"/>
      <point x="389.1" y="165.20000000000002"/>
      <point x="380.9" y="190.29999999999998"/>
      <point x="429.4" y="252.6" type="curve" smooth="yes"/>
      <point x="755.4000000000001" y="673.0" type="line"/>
    </contour>
  </outline>
</glyph>
<glyph name="Y" format="2">
  <advance width="1425.5000000000002"/>
  <unicode hex="0059"/>
  <anchor x="805.4" y="1452.0" name="center"/>
  <outline>
    <contour>
      <point x="882.4" y="422.40000000000003" type="line"/>
      <point x="1230.4999999999998" y="1110.0" type="line" smooth="yes"/>
      <point x="1282.8999999999999" y="1214.2"/>
      <point x="1304.1" y="1230.7999999999997"/>
      <point x="1339.0000000000002" y="1248.3999999999999" type="curve" smooth="yes"/>
      <point x="1353.6" y="1256.5" type="line" smooth="yes"/>
      <point x="1386.3" y="1274.3"/>
      <point x="1399.7" y="1294.3"/>
      <point x="1399.7" y="1328.0000000000002" type="curve" smooth="yes"/>
      <point x="1399.7" y="1372.3999999999999"/>
      <point x="1372.2" y="1400.0"/>
      <point x="1313.3" y="1400.0" type="curve" smooth="yes"/>
      <point x="1031.2" y="1400.0" type="line" smooth="yes"/>
      <point x="972.0000000000001" y="1400.0"/>
      <point x="944.6" y="1372.7"/>
      <point x="944.6" y="1328.0" type="curve" smooth="yes"/>
      <point x="944.6" y="1290.9000000000003"/>
      <point x="963.9" y="1266.1"/>
      <point x="990.0000000000001" y="1254.9" type="curve" smooth="yes"/>
      <point x="1028.3999999999999" y="1243.2" type="line" smooth="yes"/>
      <point x="1085.3999999999999" y="1220.7"/>
      <point x="1091.2" y="1183.9"/>
      <point x="1063.6" y="1128.1" type="curve" smooth="yes"/>
      <point x="735.4" y="470.3" type="line"/>
      <point x="880.1" y="545.3" type="line"/>
      <point x="596.3000000000001" y="1136.9" type="line" smooth="yes"/>
      <point x="568.1" y="1196.7"/>
      <point x="569.3" y="1221.0"/>
      <point x="624.6" y="1242.0" type="curve" smooth="yes"/>
      <point x="655.6000000000001" y="1250.2" type="line" smooth="yes"/>
      <point x="694.3000000000001" y="1264.2"/>
      <point x="712.8000000000001" y="1289.7"/>
      <point x="712.8000000000001" y="1328.0000000000002" type="curve" smooth="yes"/>
      <point x="712.8000000000001" y="1372.7"/>
      <point x="684.5" y="1400.0"/>
      <point x="624.9" y="1400.0" type="curve" smooth="yes"/>
      <point x="116.80000000000001" y="1400.0" type="line" smooth="yes"/>
      <point x="57.49999999999999" y="1400.0"/>
      <point x="30.099999999999998" y="1372.7"/>
      <point x="30.099999999999998" y="1328.0000000000002" type="curve" smooth="yes"/>
      <point x="30.099999999999998" y="1296.2"/>
      <point x="44.6" y="1269.0"/>
      <point x="77.7" y="1254.6" type="curve" smooth="yes"/>
      <point x="106.5" y="1242.2" type="line" smooth="yes"/>
      <point x="141.5" y="1226.1999999999998"/>
      <point x="152.1" y="1208.6"/>
      <point x="179.2" y="1156.5000000000002" type="curve" smooth="yes"/>
      <point x="587.0" y="377.3" type="line"/>
    </contour>
    <contour>
      <point x="530.9999999999999" y="522.4999999999999" type="line"/>
      <point x="530.9999999999999" y="238.6" type="line" smooth="yes"/>
      <point x="530.9999999999999" y="205.70000000000002"/>
      <point x="516.2" y="180.2"/>
      <point x="476.70000000000005" y="164.4" type="curve" smooth="yes"/>
      <point x="435.1" y="149.89999999999998" type="line" smooth="yes"/>
      <point x="397.8" y="133.9"/>
      <point x="381.20000000000005" y="109.0"/>
      <point x="381.20000000000005" y="71.99999999999999" type="curve" smooth="yes"/>
      <point x="381.20000000000005" y="27.4"/>
      <point x="408.29999999999995" y="0.0"/>
      <point x="467.5" y="0.0" type="curve" smooth="yes"/>
      <point x="981.9" y="0.0" type="line" smooth="yes"/>
      <point x="1041.1000000000001" y="0.0"/>
      <point x="1068.2" y="27.4"/>
      <point x="1068.2" y="72.0" type="curve" smooth="yes"/>
      <point x="1068.2" y="109.39999999999999"/>
      <point x="1051.6" y="133.9"/>
      <point x="1014.3000000000001" y="149.89999999999998" type="curve" smooth="yes"/>
      <point x="972.6999999999999" y="164.4" type="line" smooth="yes"/>
      <point x="935.5999999999999" y="179.0"/>
      <point x="918.4" y="203.70000000000002"/>
      <point x="918.4" y="238.59999999999997" type="curve" smooth="yes"/>
      <point x="918.4" y="522.4999999999999" type="line"/>
    </contour>
  </outline>
</glyph>
<glyph name="Z" format="2">
  <advance width="1316.2"/>
  <unicode hex="005A"/>
  <anchor x="725.4" y="1465.2" name="center"/>
  <outline>
    <contour>
      <point x="1196.9999999999998" y="1221.9999999999998" type="line" smooth="yes"/>
      <point x="1225.3999999999999" y="1265.5000000000002"/>
      <point x="1239.6" y="1299.8"/>
      <point x="1239.6" y="1326.3" type="curve" smooth="yes"/>
      <point x="1239.6" y="1371.9"/>
      <point x="1210.6" y="1400.0"/>
      <point x="1158.1999999999998" y="1400.0" type="curve" smooth="yes"/>
      <point x="433.7" y="1400.0" type="line" smooth="yes"/>
      <point x="347.50000000000006" y="1400.0"/>
      <point x="305.90000000000003" y="1438.0"/>
      <point x="252.09999999999997" y="1438.0" type="curve" smooth="yes"/>
      <point x="187.90000000000003" y="1438.0"/>
      <point x="155.6" y="1405.5"/>
      <point x="140.10000000000002" y="1331.0" type="curve" smooth="yes"/>
      <point x="88.39999999999999" y="1072.1" type="line" smooth="yes"/>
      <point x="78.69999999999999" y="1022.3000000000002"/>
      <point x="103.8" y="989.9999999999999"/>
      <point x="149.0" y="982.7" type="curve" smooth="yes"/>
      <point x="185.99999999999997" y="976.8"/>
      <point x="223.8" y="987.8"/>
      <point x="247.90000000000003" y="1037.7" type="curve" smooth="yes"/>
      <point x="275.79999999999995" y="1099.8999999999999" type="line" smooth="yes"/>
      <point x="326.29999999999995" y="1213.8000000000004"/>
      <point x="384.7" y="1248.7999999999997"/>
      <point x="490.9" y="1248.7999999999997" type="curve" smooth="yes"/>
      <point x="891.3000000000001" y="1248.7999999999997" type="line"/>
      <point x="856.2" y="1352.3999999999999" type="line"/>
      <point x="83.2" y="177.7" type="line" smooth="yes"/>
      <point x="55.6" y="135.89999999999998"/>
      <point x="41.6" y="101.8"/>
      <point x="41.6" y="74.1" type="curve" smooth="yes"/>
      <point x="41.6" y="28.4"/>
      <point x="69.20000000000002" y="0.0"/>
      <point x="122.20000000000002" y="0.0" type="curve" smooth="yes"/>
      <point x="890.2" y="0.0" type="line" smooth="yes"/>
      <point x="977.0999999999999" y="0.0"/>
      <point x="1016.6000000000001" y="-34.8"/>
      <point x="1070.8" y="-34.8" type="curve" smooth="yes"/>
      <point x="1135.2" y="-34.8"/>
      <point x="1163.5999999999997" y="-2.2000000000000015"/>
      <point x="1182.3999999999999" y="71.6" type="curve" smooth="yes"/>
      <point x="1256.3000000000002" y="378.49999999999994" type="line" smooth="yes"/>
      <point x="1269.5" y="430.8"/>
      <point x="1248.3" y="468.7"/>
      <point x="1202.1999999999998" y="478.70000000000005" type="curve" smooth="yes"/>
      <point x="1159.6000000000001" y="487.9"/>
      <point x="1125.9" y="474.20000000000005"/>
      <point x="1104.2" y="425.8" type="curve" smooth="yes"/>
      <point x="1066.6999999999998" y="338.90000000000003" type="line" smooth="yes"/>
      <point x="1003.5" y="189.2"/>
      <point x="931.0" y="151.2"/>
      <point x="814.6999999999999" y="151.2" type="curve" smooth="yes"/>
      <point x="209.39999999999998" y="151.2" type="line"/>
      <point x="431.4" y="56.2" type="line"/>
    </contour>
  </outline>
</glyph>
<glyph name="bracketleft" format="2">
  <advance width="735.6"/>
  <unicode hex="005B"/>
  <outline>
    <contour>
      <point x="431.20000000000005" y="1262.1000000000001" type="line" smooth="yes"/>
      <point x="431.20000000000005" y="1321.1000000000001"/>
      <point x="456.59999999999997" y="1342.3"/>
      <point x="520.6" y="1342.3" type="curve" smooth="yes"/>
      <point x="652.3000000000001" y="1342.3" type="line" smooth="yes"/>
      <point x="706.7999999999998" y="1342.3"/>
      <point x="731.2" y="1366.8"/>
      <point x="731.2" y="1411.1999999999998" type="curve" smooth="yes"/>
      <point x="731.2" y="1450.3"/>
      <point x="706.8" y="1479.2"/>
      <point x="652.3000000000001" y="1479.2" type="curve" smooth="yes"/>
      <point x="252.2" y="1479.2" type="line" smooth="yes"/>
      <point x="182.2" y="1479.2"/>
      <point x="156.0" y="1447.1999999999998"/>
      <point x="156.0" y="1373.9999999999998" type="curve" smooth="yes"/>
      <point x="156.0" y="-150.8" type="line" smooth="yes"/>
      <point x="156.0" y="-223.59999999999997"/>
      <point x="182.2" y="-256.0"/>
      <point x="252.2" y="-256.0" type="curve" smooth="yes"/>
      <point x="652.3000000000001" y="-256.0" type="line" smooth="yes"/>
      <point x="706.8" y="-256.0"/>
      <point x="731.2" y="-227.5"/>
      <point x="731.2" y="-188.39999999999998" type="curve" smooth="yes"/>
      <point x="731.2" y="-143.6"/>
      <point x="706.8000000000001" y="-119.50000000000003"/>
      <point x="652.3000000000001" y="-119.50000000000003" type="curve" smooth="yes"/>
      <point x="520.6" y="-119.50000000000003" type="line" smooth="yes"/>
      <point x="456.59999999999997" y="-119.50000000000003"/>
      <point x="431.20000000000005" y="-97.89999999999999"/>
      <point x="431.20000000000005" y="-38.900000000000006" type="curve" smooth="yes"/>
    </contour>
  </outline>
</glyph>
<glyph name="asciicircum" format="2">
  <advance width="1009.2"/>
  <unicode hex="005E"/>
  <outline>
    <contour>
      <point x="565.4000000000001" y="1248.0000000000002" type="line"/>
      <point x="271.6" y="783.7" type="line" smooth="yes"/>
      <point x="217.39999999999998" y="708.9999999999999"/>
      <point x="165.10000000000002" y="699.5"/>
      <point x="121.0" y="725.0" type="curve" smooth="yes"/>
      <point x="84.10000000000001" y="746.5"/>
      <point x="77.80000000000001" y="799.1"/>
      <point x="110.10000000000001" y="857.2" type="curve" smooth="yes"/>
      <point x="346.5" y="1309.8" type="line" smooth="yes"/>
      <point x="403.90000000000003" y="1412.1999999999998"/>
      <point x="444.3" y="1433.2"/>
      <point x="505.79999999999995" y="1433.2" type="curve" smooth="yes"/>
      <point x="567.3000000000001" y="1433.2"/>
      <point x="607.7" y="1412.2"/>
      <point x="665.0999999999999" y="1309.8" type="curve" smooth="yes"/>
      <point x="899.1" y="856.0000000000001" type="line" smooth="yes"/>
      <point x="931.4" y="798.3"/>
      <point x="924.7" y="746.1"/>
      <point x="888.2" y="724.6" type="curve" smooth="yes"/>
      <point x="844.1" y="699.1"/>
      <point x="791.4000000000001" y="708.5999999999999"/>
      <point x="737.2" y="782.9" type="curve" smooth="yes"/>
      <point x="446.6" y="1248.0000000000002" type="line"/>
    </contour>
  </outline>
</glyph>
<glyph name="underscore" format="2">
  <advance width="1035.8"/>
  <unicode hex="005F"/>
  <outline>
    <contour>
      <point x="-2.2" y="-255.99999999999997" type="curve" smooth="yes"/>
      <point x="-2.2" y="-312.40000000000003"/>
      <point x="19.4" y="-348.8"/>
      <point x="68.8" y="-348.8" type="curve" smooth="yes"/>
      <point x="967.0" y="-348.8" type="line" smooth="yes"/>
      <point x="1016.1999999999999" y="-348.8"/>
      <point x="1037.6" y="-312.40000000000003"/>
      <point x="1037.6" y="-255.99999999999997" type="curve" smooth="yes"/>
      <point x="1037.6" y="-200.00000000000003"/>
      <point x="1016.1999999999999" y="-163.4"/>
      <point x="967.0" y="-163.4" type="curve" smooth="yes"/>
      <point x="68.8" y="-163.4" type="line" smooth="yes"/>
      <point x="19.4" y="-163.4"/>
      <point x="-2.2" y="-200.00000000000003"/>
    </contour>
  </outline>
</glyph>
<glyph name="a" format="2">
  <advance width="1165.0"/>
  <unicode hex="0061"/>
  <anchor x="583.8" y="1054.3999999999999" name="center"/>
  <outline>
    <contour>
      <point x="680.5999999999999" y="140.9" type="line" smooth="yes"/>
      <point x="680.5999999999999" y="40.9"/>
      <point x="775.9000000000001" y="-26.6"/>
      <point x="909.5" y="-26.6" type="curve" smooth="yes"/>
      <point x="1062.2999999999997" y="-26.6"/>
      <point x="1149.9" y="74.30000000000001"/>
      <point x="1149.9" y="157.29999999999998" type="curve" smooth="yes"/>
      <point x="1149.9" y="184.7"/>
      <point x="1136.3000000000002" y="204.89999999999998"/>
      <point x="1111.1" y="204.89999999999998" type="curve" smooth="yes"/>
      <point x="1099.0" y="204.89999999999998"/>
      <point x="1091.3000000000002" y="198.3"/>
      <point x="1083.6999999999998" y="191.3" type="curve" smooth="yes"/>
      <point x="1073.6999999999998" y="181.99999999999997"/>
      <point x="1063.5" y="170.90000000000003"/>
      <point x="1041.7" y="170.90000000000003" type="curve" smooth="yes"/>
      <point x="1013.9000000000001" y="170.90000000000003"/>
      <point x="1001.0" y="190.2"/>
      <point x="1001.0" y="217.20000000000002" type="curve" smooth="yes"/>
      <point x="1001.0" y="698.1999999999999" type="line" smooth="yes"/>
      <point x="1001.0" y="872.4999999999999"/>
      <point x="878.9" y="981.3000000000001"/>
      <point x="626.2" y="981.3000000000001" type="curve" smooth="yes"/>
      <point x="283.3" y="981.3000000000001"/>
      <point x="109.29999999999998" y="833.9"/>
      <point x="109.29999999999998" y="704.3" type="curve" smooth="yes"/>
      <point x="109.29999999999998" y="623.9"/>
      <point x="159.9" y="575.6999999999999"/>
      <point x="263.3" y="575.6999999999999" type="curve" smooth="yes"/>
      <point x="383.0" y="575.6999999999999"/>
      <point x="451.4" y="630.4000000000001"/>
      <point x="451.4" y="726.5000000000001" type="curve" smooth="yes"/>
      <point x="451.4" y="807.6999999999999" type="line" smooth="yes"/>
      <point x="451.4" y="845.1"/>
      <point x="488.6" y="872.4"/>
      <point x="544.9000000000001" y="872.4" type="curve" smooth="yes"/>
      <point x="611.6999999999999" y="872.4"/>
      <point x="651.8" y="829.5"/>
      <point x="651.8" y="759.6" type="curve" smooth="yes"/>
      <point x="651.8" y="174.29999999999998" type="line"/>
      <point x="680.5999999999999" y="166.70000000000002" type="line"/>
    </contour>
    <contour>
      <point x="70.2" y="212.79999999999998" type="curve" smooth="yes"/>
      <point x="70.2" y="72.41900136700481"/>
      <point x="190.3" y="-26.6"/>
      <point x="370.69999999999993" y="-26.6" type="curve" smooth="yes"/>
      <point x="510.80000000000007" y="-26.6"/>
      <point x="645.9703294158734" y="30.171105001991076"/>
      <point x="716.0999999999999" y="129.70000000000002" type="curve"/>
      <point x="691.8000000000001" y="215.70000000000002" type="line"/>
      <point x="660.3079688575741" y="175.3532552702949"/>
      <point x="606.4000000000001" y="147.3"/>
      <point x="548.5" y="147.3" type="curve" smooth="yes"/>
      <point x="477.0" y="147.3"/>
      <point x="427.40000000000003" y="193.6039225042947"/>
      <point x="427.40000000000003" y="277.4" type="curve" smooth="yes"/>
      <point x="427.40000000000003" y="358.25772778971316"/>
      <point x="480.412" y="407.70000000000005"/>
      <point x="564.9000000000001" y="407.70000000000005" type="curve" smooth="yes"/>
      <point x="607.8348837209303" y="407.70000000000005"/>
      <point x="643.433418351662" y="398.50698276607403"/>
      <point x="679.7" y="381.1" type="curve"/>
      <point x="710.8999999999999" y="471.70000000000005" type="line"/>
      <point x="667.2104750717466" y="491.92049672141565"/>
      <point x="599.9853658536585" y="504.09999999999997"/>
      <point x="519.3000000000001" y="504.09999999999997" type="curve" smooth="yes"/>
      <point x="241.58757763975157" y="504.09999999999997"/>
      <point x="70.2" y="389.52400000000006"/>
    </contour>
  </outline>
</glyph>
<glyph name="b" format="2">
  <advance width="1262.9"/>
  <unicode hex="0062"/>
  <outline>
    <contour>
      <point x="488.2" y="1419.6" type="line" smooth="yes"/>
      <point x="488.2" y="1465.8"/>
      <point x="460.4" y="1498.4"/>
      <point x="410.7" y="1498.4" type="curve"/>
      <point x="375.6" y="1498.4"/>
      <point x="342.7" y="1488.1000000000001"/>
      <point x="282.2" y="1465.1000000000001" type="curve" smooth="yes"/>
      <point x="85.0" y="1390.7" type="line" smooth="yes"/>
      <point x="39.5" y="1373.1"/>
      <point x="22.5" y="1354.2"/>
      <point x="22.5" y="1322.5000000000002" type="curve" smooth="yes"/>
      <point x="22.5" y="1294.3999999999999"/>
      <point x="37.199999999999996" y="1277.6"/>
      <point x="64.4" y="1267.2" type="curve" smooth="yes"/>
      <point x="98.0" y="1261.2" type="line" smooth="yes"/>
      <point x="122.0" y="1252.8000000000002"/>
      <point x="135.0" y="1238.8999999999999"/>
      <point x="135.0" y="1192.3" type="curve" smooth="yes"/>
      <point x="135.0" y="42.2" type="line" smooth="yes"/>
      <point x="135.0" y="-0.30000000000000027"/>
      <point x="160.7" y="-22.8"/>
      <point x="198.59999999999997" y="-22.8" type="curve" smooth="yes"/>
      <point x="240.30989010989012" y="-22.8"/>
      <point x="276.8" y="-10.499999999999998"/>
      <point x="350.40000000000003" y="16.8" type="curve" smooth="yes"/>
      <point x="488.2" y="88.0" type="line"/>
    </contour>
    <contour>
      <point x="421.2" y="629.6999999999999" type="line"/>
      <point x="479.0644948765427" y="739.1752870943022"/>
      <point x="550.4999999999999" y="790.3"/>
      <point x="635.4999999999999" y="790.3" type="curve" smooth="yes"/>
      <point x="751.3" y="790.3"/>
      <point x="837.4" y="688.0962499999999"/>
      <point x="837.4" y="469.1" type="curve" smooth="yes"/>
      <point x="837.4" y="243.2"/>
      <point x="754.1" y="134.6"/>
      <point x="638.3" y="134.6" type="curve" smooth="yes"/>
      <point x="559.1999999999999" y="134.6"/>
      <point x="490.0" y="176.8"/>
      <point x="430.5" y="280.59999999999997" type="curve"/>
      <point x="338.80000000000007" y="188.69999999999996" type="line"/>
      <point x="422.40000000000003" y="47.20000000000001"/>
      <point x="545.1999999999999" y="-26.6"/>
      <point x="706.4" y="-26.6" type="curve" smooth="yes"/>
      <point x="987.9000000000001" y="-26.6"/>
      <point x="1203.6" y="185.0"/>
      <point x="1203.6" y="507.0" type="curve" smooth="yes"/>
      <point x="1203.6" y="786.6999999999999"/>
      <point x="1027.1000000000001" y="982.8999999999999"/>
      <point x="788.4999999999999" y="982.8999999999999" type="curve" smooth="yes"/>
      <point x="612.1999999999999" y="982.8999999999999"/>
      <point x="471.6926611300997" y="875.6050230510697"/>
      <point x="362.1" y="699.1" type="curve"/>
    </contour>
  </outline>
</glyph>
<glyph name="c" format="2">
  <advance width="1083.6000000000001"/>
  <unicode hex="0063"/>
  <anchor x="559.8000000000001" y="1053.1999999999998" name="center"/>
  <outline>
    <contour>
      <point x="1018.4" y="688.9000000000001" type="curve" smooth="yes"/>
      <point x="1018.4" y="850.4"/>
      <point x="857.5" y="983.0"/>
      <point x="597.9" y="983.0" type="curve" smooth="yes"/>
      <point x="269.9" y="983.0"/>
      <point x="61.1" y="756.8492647058823"/>
      <point x="61.1" y="454.29999999999995" type="curve" smooth="yes"/>
      <point x="61.1" y="166.00081967213114"/>
      <point x="279.80000000000007" y="-26.5"/>
      <point x="578.1" y="-26.5" type="curve" smooth="yes"/>
      <point x="840.6" y="-26.5"/>
      <point x="1022.0996397774873" y="125.79735836823974"/>
      <point x="1025.2" y="298.40000000000003" type="curve" smooth="yes"/>
      <point x="1025.4000839755806" y="335.5007557802255"/>
      <point x="1012.0799999999999" y="357.50000000000006"/>
      <point x="986.4" y="358.3" type="curve" smooth="yes"/>
      <point x="968.657142857143" y="358.70000000000005"/>
      <point x="955.1005342247814" y="349.10373957346917"/>
      <point x="922.8" y="320.90000000000003" type="curve" smooth="yes"/>
      <point x="864.5006332524426" y="256.0035884305082"/>
      <point x="792.2434782608696" y="222.99999999999997"/>
      <point x="689.5" y="222.99999999999997" type="curve" smooth="yes"/>
      <point x="509.6" y="222.99999999999997"/>
      <point x="375.79999999999995" y="344.05042685344364"/>
      <point x="375.79999999999995" y="576.4" type="curve" smooth="yes"/>
      <point x="375.79999999999995" y="745.7622820753732"/>
      <point x="455.48181818181826" y="837.1999999999999"/>
      <point x="553.6" y="837.1999999999999" type="curve" smooth="yes"/>
      <point x="630.8199999999999" y="837.1999999999999"/>
      <point x="679.9999999999999" y="788.9176470588236"/>
      <point x="679.9999999999999" y="713.0999999999999" type="curve" smooth="yes"/>
      <point x="679.9999999999999" y="682.1" type="line" smooth="yes"/>
      <point x="679.9999999999999" y="592.176049382716"/>
      <point x="734.0" y="529.6"/>
      <point x="839.4000000000001" y="529.6" type="curve" smooth="yes"/>
      <point x="947.6999999999999" y="529.6"/>
      <point x="1018.4" y="599.351111111111"/>
    </contour>
  </outline>
</glyph>
<glyph name="d" format="2">
  <advance width="1285.8"/>
  <unicode hex="0064"/>
  <outline>
    <contour>
      <point x="789.6" y="187.20000000000002" type="line"/>
      <point x="789.6" y="145.40000000000003" type="line" smooth="yes"/>
      <point x="789.6" y="63.59999999999999"/>
      <point x="858.4" y="0.0"/>
      <point x="942.3" y="0.0" type="curve" smooth="yes"/>
      <point x="1156.9" y="0.0" type="line" smooth="yes"/>
      <point x="1205.1999999999998" y="0.0"/>
      <point x="1231.0" y="23.099999999999998"/>
      <point x="1231.0" y="62.40000000000001" type="curve" smooth="yes"/>
      <point x="1231.0" y="92.00000000000001"/>
      <point x="1216.5000000000002" y="111.20000000000002"/>
      <point x="1186.9" y="126.39999999999999" type="curve" smooth="yes"/>
      <point x="1161.5000000000002" y="136.4" type="line" smooth="yes"/>
      <point x="1139.6000000000001" y="146.80000000000004"/>
      <point x="1128.8000000000002" y="164.4"/>
      <point x="1128.8000000000002" y="219.1" type="curve" smooth="yes"/>
      <point x="1128.8000000000002" y="1419.6" type="line" smooth="yes"/>
      <point x="1128.8000000000002" y="1465.8"/>
      <point x="1100.9999999999998" y="1498.4"/>
      <point x="1052.8999999999999" y="1498.4" type="curve"/>
      <point x="1014.7" y="1498.4"/>
      <point x="981.7" y="1487.3000000000002"/>
      <point x="922.8" y="1465.1000000000001" type="curve" smooth="yes"/>
      <point x="725.6000000000001" y="1390.7" type="line" smooth="yes"/>
      <point x="680.0999999999999" y="1373.1"/>
      <point x="663.1" y="1354.2"/>
      <point x="663.1" y="1322.5000000000002" type="curve" smooth="yes"/>
      <point x="663.1" y="1294.3999999999999"/>
      <point x="677.8000000000001" y="1277.6"/>
      <point x="705.0" y="1267.2" type="curve" smooth="yes"/>
      <point x="738.6" y="1261.2" type="line" smooth="yes"/>
      <point x="762.6" y="1252.8000000000002"/>
      <point x="775.6" y="1238.8999999999999"/>
      <point x="775.6" y="1192.3" type="curve" smooth="yes"/>
      <point x="775.6" y="191.9" type="line"/>
    </contour>
    <contour>
      <point x="60.2" y="449.3" type="curve" smooth="yes"/>
      <point x="60.2" y="169.6"/>
      <point x="236.7" y="-26.6"/>
      <point x="475.3" y="-26.6" type="curve" smooth="yes"/>
      <point x="651.6" y="-26.6"/>
      <point x="792.0778601125303" y="80.7530380982389"/>
      <point x="901.6999999999999" y="257.3" type="curve"/>
      <point x="842.6" y="326.59999999999997" type="line"/>
      <point x="784.7919612334621" y="217.21381833233164"/>
      <point x="713.3" y="166.2"/>
      <point x="628.3" y="166.2" type="curve" smooth="yes"/>
      <point x="512.5" y="166.2"/>
      <point x="426.40000000000003" y="268.32624999999996"/>
      <point x="426.40000000000003" y="487.19999999999993" type="curve" smooth="yes"/>
      <point x="426.40000000000003" y="713.1"/>
      <point x="509.7" y="821.7"/>
      <point x="625.5" y="821.7" type="curve" smooth="yes"/>
      <point x="704.6" y="821.7"/>
      <point x="773.8" y="779.5000000000001"/>
      <point x="833.3000000000001" y="675.6999999999998" type="curve"/>
      <point x="925.0" y="767.5999999999999" type="line"/>
      <point x="841.4" y="909.0999999999999"/>
      <point x="718.6" y="982.8999999999999"/>
      <point x="557.4" y="982.8999999999999" type="curve" smooth="yes"/>
      <point x="275.90000000000003" y="982.8999999999999"/>
      <point x="60.2" y="771.3000000000001"/>
    </contour>
  </outline>
</glyph>
<glyph name="e" format="2">
  <advance width="1095.6000000000001"/>
  <unicode hex="0065"/>
  <anchor x="569.2" y="1054.4" name="center"/>
  <outline>
    <contour>
      <point x="1035.8" y="607.9" type="curve" smooth="yes"/>
      <point x="1035.8" y="821.576923076923"/>
      <point x="872.4409090909089" y="983.0"/>
      <point x="592.2000000000002" y="983.0" type="curve" smooth="yes"/>
      <point x="254.56027397260274" y="983.0"/>
      <point x="60.2" y="765.644277673546"/>
      <point x="60.2" y="458.7" type="curve" smooth="yes"/>
      <point x="60.2" y="168.89038076152303"/>
      <point x="271.5" y="-26.5"/>
      <point x="579.8" y="-26.5" type="curve" smooth="yes"/>
      <point x="849.6346820809248" y="-26.5"/>
      <point x="1030.7" y="127.9"/>
      <point x="1033.7" y="300.2" type="curve" smooth="yes"/>
      <point x="1033.8000000000002" y="336.7"/>
      <point x="1018.16" y="357.5"/>
      <point x="994.8" y="358.3" type="curve" smooth="yes"/>
      <point x="976.7444444444444" y="359.1"/>
      <point x="962.3003386085027" y="349.5023702595187"/>
      <point x="930.9000000000001" y="320.9" type="curve" smooth="yes"/>
      <point x="872.600589550543" y="253.8033969340803"/>
      <point x="789.1695652173913" y="217.0"/>
      <point x="688.1" y="217.0" type="curve" smooth="yes"/>
      <point x="497.7" y="217.0"/>
      <point x="374.9" y="334.90000000000003"/>
      <point x="374.9" y="577.3" type="curve" smooth="yes"/>
      <point x="374.9" y="748.8000000000001"/>
      <point x="447.3586402266289" y="837.1999999999999"/>
      <point x="543.8" y="837.1999999999999" type="curve" smooth="yes"/>
      <point x="625.4669064748202" y="837.1999999999999"/>
      <point x="685.0" y="767.4484848484848"/>
      <point x="685.0" y="623.3" type="curve" smooth="yes"/>
      <point x="685.0" y="582.9"/>
      <point x="666.2" y="566.8"/>
      <point x="625.1" y="566.8" type="curve" smooth="yes"/>
      <point x="287.49999999999994" y="566.8" type="line"/>
      <point x="287.49999999999994" y="465.50000000000006" type="line"/>
      <point x="883.5999999999999" y="465.50000000000006" type="line" smooth="yes"/>
      <point x="980.8" y="465.50000000000006"/>
      <point x="1035.8" y="516.7"/>
    </contour>
  </outline>
</glyph>
<glyph name="f" format="2">
  <advance width="863.2"/>
  <unicode hex="0066"/>
  <outline>
    <contour>
      <point x="576.1999999999999" y="219.5" type="curve" smooth="yes"/>
      <point x="576.1999999999999" y="769.4000000000001" type="line"/>
      <point x="660.6999999999999" y="769.4000000000001" type="line" smooth="yes"/>
      <point x="770.4000000000001" y="769.4000000000001"/>
      <point x="815.3" y="808.5388059701493"/>
      <point x="815.3" y="860.9999999999999" type="curve" smooth="yes"/>
      <point x="815.3" y="896.4"/>
      <point x="789.1" y="915.5999999999999"/>
      <point x="746.9000000000001" y="915.5999999999999" type="curve" smooth="yes"/>
      <point x="501.09999999999997" y="915.5999999999999" type="line"/>
      <point x="548.2" y="857.1" type="line"/>
      <point x="548.2" y="918.7" type="line" smooth="yes"/>
      <point x="548.2" y="1025.1000000000001"/>
      <point x="365.2" y="1100.2999999999997"/>
      <point x="365.2" y="1242.5000000000002" type="curve" smooth="yes"/>
      <point x="365.2" y="1310.1"/>
      <point x="398.3406593406594" y="1349.2"/>
      <point x="462.70000000000005" y="1349.3000000000002" type="curve" smooth="yes"/>
      <point x="517.5604938271604" y="1349.3000000000002"/>
      <point x="553.1999999999999" y="1320.7999999999997"/>
      <point x="553.1999999999999" y="1262.9" type="curve" smooth="yes"/>
      <point x="553.1999999999999" y="1207.0000000000002" type="line" smooth="yes"/>
      <point x="553.1999999999999" y="1111.8703703703704"/>
      <point x="614.9" y="1051.0"/>
      <point x="710.6" y="1051.0" type="curve" smooth="yes"/>
      <point x="795.9999999999999" y="1051.0"/>
      <point x="855.4" y="1103.5529411764708"/>
      <point x="855.4" y="1200.6" type="curve" smooth="yes"/>
      <point x="855.4" y="1338.7095744680853"/>
      <point x="728.5987012987014" y="1457.7999999999997"/>
      <point x="495.79999999999995" y="1457.7999999999997" type="curve" smooth="yes"/>
      <point x="251.60978520286397" y="1457.7999999999997"/>
      <point x="109.89999999999999" y="1337.4999999999998"/>
      <point x="109.89999999999999" y="1169.5" type="curve" smooth="yes"/>
      <point x="109.89999999999999" y="1028.5000000000002"/>
      <point x="225.60000000000002" y="970.0000000000001"/>
      <point x="225.60000000000002" y="917.1999999999999" type="curve" smooth="yes"/>
      <point x="225.60000000000002" y="876.5000000000001" type="line"/>
      <point x="309.3" y="915.5999999999999" type="line"/>
      <point x="129.19999999999996" y="915.5999999999999" type="line" smooth="yes"/>
      <point x="84.9" y="915.5999999999999"/>
      <point x="60.6" y="892.1"/>
      <point x="60.6" y="858.4" type="curve" smooth="yes"/>
      <point x="60.6" y="826.1999999999999"/>
      <point x="79.49999999999999" y="803.3000000000001"/>
      <point x="133.10000000000002" y="781.3" type="curve" smooth="yes"/>
      <point x="167.89999999999998" y="767.9" type="line" smooth="yes"/>
      <point x="211.50000000000003" y="750.1"/>
      <point x="223.0" y="733.5999999999999"/>
      <point x="223.0" y="703.5" type="curve" smooth="yes"/>
      <point x="223.0" y="220.20000000000002" type="line" smooth="yes"/>
      <point x="223.0" y="172.00000000000003"/>
      <point x="204.6" y="148.89999999999998"/>
      <point x="167.5" y="137.6" type="curve" smooth="yes"/>
      <point x="137.5" y="129.5" type="line" smooth="yes"/>
      <point x="98.0" y="117.10000000000002"/>
      <point x="80.8" y="96.69999999999999"/>
      <point x="80.8" y="60.80000000000001" type="curve" smooth="yes"/>
      <point x="80.8" y="23.0"/>
      <point x="108.5" y="0.0"/>
      <point x="153.1" y="0.0" type="curve" smooth="yes"/>
      <point x="712.7" y="0.0" type="line" smooth="yes"/>
      <point x="759.0" y="0.0"/>
      <point x="785.6000000000001" y="23.0"/>
      <point x="785.6000000000001" y="62.800000000000004" type="curve" smooth="yes"/>
      <point x="785.6000000000001" y="96.4"/>
      <point x="769.5" y="122.69999999999999"/>
      <point x="728.7" y="126.80000000000003" type="curve" smooth="yes"/>
      <point x="628.5000000000001" y="138.0" type="line" smooth="yes"/>
      <point x="590.9999999999999" y="141.90000000000003"/>
      <point x="576.1999999999999" y="169.2"/>
    </contour>
  </outline>
</glyph>
<glyph name="g" format="2">
  <advance width="1197.6000000000001"/>
  <unicode hex="0067"/>
  <anchor x="583.4" y="1055.4" name="center"/>
  <outline>
    <contour>
      <point x="757.6" y="120.79999999999998" type="curve" smooth="yes"/>
      <point x="1060.6250776739828" y="86.89740838627534"/>
      <point x="1179.1" y="8.026950354609935"/>
      <point x="1179.1" y="-156.0" type="curve" smooth="yes"/>
      <point x="1179.1" y="-350.09999999999997"/>
      <point x="959.2" y="-490.0"/>
      <point x="546.6999999999999" y="-490.0" type="curve" smooth="yes"/>
      <point x="185.5" y="-490.0"/>
      <point x="51.599999999999994" y="-408.09999999999997"/>
      <point x="51.599999999999994" y="-283.0" type="curve" smooth="yes"/>
      <point x="51.599999999999994" y="-172.4"/>
      <point x="139.6" y="-96.2"/>
      <point x="399.09999999999997" y="-76.6" type="curve"/>
      <point x="412.6" y="-104.1" type="line"/>
      <point x="356.8" y="-116.60000000000002"/>
      <point x="324.6" y="-159.29999999999998"/>
      <point x="324.6" y="-203.29999999999998" type="curve" smooth="yes"/>
      <point x="324.6" y="-293.2"/>
      <point x="394.09999999999997" y="-352.09999999999997"/>
      <point x="617.1" y="-352.09999999999997" type="curve" smooth="yes"/>
      <point x="809.8" y="-352.09999999999997"/>
      <point x="870.3000000000001" y="-313.49999999999994"/>
      <point x="870.3000000000001" y="-247.2" type="curve" smooth="yes"/>
      <point x="870.3000000000001" y="-186.3920353982301"/>
      <point x="796.1502404123028" y="-163.4939806950366"/>
      <point x="553.8" y="-133.29999999999998" type="curve" smooth="yes"/>
      <point x="241.6680152707869" y="-95.49635353250014"/>
      <point x="175.9" y="-34.740758293838866"/>
      <point x="175.9" y="69.9" type="curve" smooth="yes"/>
      <point x="175.9" y="162.50000000000003"/>
      <point x="250.56127386905715" y="249.46536527834292"/>
      <point x="498.50000000000006" y="259.50000000000006" type="curve"/>
      <point x="516.6" y="241.7" type="line"/>
      <point x="486.40000000000003" y="226.60000000000002"/>
      <point x="472.7" y="212.9"/>
      <point x="472.7" y="195.7" type="curve" smooth="yes"/>
      <point x="472.7" y="164.7"/>
      <point x="506.59221431369997" y="150.3200097113752"/>
    </contour>
    <contour>
      <point x="748.7" y="875.8" type="line" smooth="yes"/>
      <point x="785.5" y="957.3000000000001" type="line" smooth="yes"/>
      <point x="855.0" y="1117.6000000000001"/>
      <point x="962.4" y="1193.9"/>
      <point x="1081.1000000000001" y="1193.9" type="curve" smooth="yes"/>
      <point x="1172.0" y="1193.9"/>
      <point x="1240.2" y="1139.3999999999996"/>
      <point x="1240.2" y="1042.1999999999998" type="curve" smooth="yes"/>
      <point x="1240.2" y="954.8"/>
      <point x="1194.8999999999999" y="896.4"/>
      <point x="1120.8999999999999" y="896.4" type="curve" smooth="yes"/>
      <point x="1020.1999999999999" y="896.4"/>
      <point x="1026.1" y="991.8000000000001"/>
      <point x="951.9000000000001" y="991.8000000000001" type="curve" smooth="yes"/>
      <point x="906.4" y="991.8000000000001"/>
      <point x="880.4" y="956.2"/>
      <point x="839.0" y="863.8000000000002" type="curve"/>
    </contour>
    <contour>
      <point x="1093.6000000000001" y="615.1" type="curve" smooth="yes"/>
      <point x="1093.6000000000001" y="381.49999999999994"/>
      <point x="892.1999999999999" y="225.29999999999998"/>
      <point x="583.9" y="225.29999999999998" type="curve" smooth="yes"/>
      <point x="264.2" y="225.29999999999998"/>
      <point x="80.89999999999999" y="378.5"/>
      <point x="80.89999999999999" y="584.8000000000001" type="curve" smooth="yes"/>
      <point x="80.89999999999999" y="822.0"/>
      <point x="281.59999999999997" y="978.6"/>
      <point x="605.5" y="978.6" type="curve" smooth="yes"/>
      <point x="916.7" y="978.6"/>
      <point x="1093.6000000000001" y="816.7"/>
    </contour>
    <contour>
      <point x="554.1" y="863.8000000000001" type="curve" smooth="yes"/>
      <point x="465.09999999999997" y="858.6"/>
      <point x="427.90000000000003" y="775.1"/>
      <point x="443.5" y="632.9" type="curve" smooth="yes"/>
      <point x="460.3" y="440.70000000000005"/>
      <point x="523.5" y="337.6"/>
      <point x="619.2999999999998" y="342.80000000000007" type="curve" smooth="yes"/>
      <point x="708.9000000000001" y="347.99999999999994"/>
      <point x="746.2" y="428.29999999999995"/>
      <point x="730.5999999999999" y="579.1999999999999" type="curve" smooth="yes"/>
      <point x="714.2" y="761.4"/>
      <point x="653.5999999999999" y="868.9999999999999"/>
    </contour>
  </outline>
</glyph>
